<svg version="1.1" viewBox="0.0 0.0 450.0 281.0" fill="none" stroke="none" stroke-linecap="square" stroke-miterlimit="10" width="450" height="281" xmlns:xlink="http://www.w3.org/1999/xlink" xmlns="http://www.w3.org/2000/svg"><path fill="#ffffff" d="M0 0L450.0 0L450.0 281.0L0 281.0L0 0Z" fill-rule="nonzero"/><path stroke="#333333" stroke-width="1.0" stroke-linecap="butt" d="M50.5 245.5L435.5 245.5" fill-rule="nonzero"/><path stroke="#cccccc" stroke-width="1.0" stroke-linecap="butt" d="M50.5 204.5L435.5 204.5" fill-rule="nonzero"/><path stroke="#cccccc" stroke-width="1.0" stroke-linecap="butt" d="M50.5 162.5L435.5 162.5" fill-rule="nonzero"/><path stroke="#cccccc" stroke-width="1.0" stroke-linecap="butt" d="M50.5 120.5L435.5 120.5" fill-rule="nonzero"/><path stroke="#cccccc" stroke-width="1.0" stroke-linecap="butt" d="M50.5 79.5L435.5 79.5" fill-rule="nonzero"/><clipPath id="id_0"><path d="M50.05 79.28333L435.95 79.28333L435.95 245.95L50.05 245.95L50.05 79.28333Z" clip-rule="nonzero"/></clipPath><path stroke="#000000" stroke-width="2.0" stroke-linecap="butt" stroke-opacity="0.0" clip-path="url(#id_0)" d="M160.0 246.0L109.0 246.0L109.0 81.0C109.0 79.89543 109.89543 79.0 111.0 79.0L158.0 79.0C159.10457 79.0 160.0 79.89543 160.0 81.0Z" fill-rule="nonzero"/><path fill="#4285f4" clip-path="url(#id_0)" d="M160.0 246.0L109.0 246.0L109.0 81.0C109.0 79.89543 109.89543 79.0 111.0 79.0L158.0 79.0C159.10457 79.0 160.0 79.89543 160.0 81.0Z" fill-rule="nonzero"/><path stroke="#000000" stroke-width="2.0" stroke-linecap="butt" stroke-opacity="0.0" clip-path="url(#id_0)" d="M324.0 246.0L273.0 246.0L273.0 172.0C273.0 170.89543 273.89542 170.0 275.0 170.0L322.0 170.0C323.10458 170.0 324.0 170.89543 324.0 172.0Z" fill-rule="nonzero"/><path fill="#4285f4" clip-path="url(#id_0)" d="M324.0 246.0L273.0 246.0L273.0 172.0C273.0 170.89543 273.89542 170.0 275.0 170.0L322.0 170.0C323.10458 170.0 324.0 170.89543 324.0 172.0Z" fill-rule="nonzero"/><path stroke="#000000" stroke-width="2.0" stroke-linecap="butt" stroke-opacity="0.0" clip-path="url(#id_0)" d="M213.0 246.0L162.0 246.0L162.0 81.0C162.0 79.89543 162.89543 79.0 164.0 79.0L211.0 79.0C212.10457 79.0 213.0 79.89543 213.0 81.0Z" fill-rule="nonzero"/><path fill="#db4437" clip-path="url(#id_0)" d="M213.0 246.0L162.0 246.0L162.0 81.0C162.0 79.89543 162.89543 79.0 164.0 79.0L211.0 79.0C212.10457 79.0 213.0 79.89543 213.0 81.0Z" fill-rule="nonzero"/><path stroke="#000000" stroke-width="2.0" stroke-linecap="butt" stroke-opacity="0.0" clip-path="url(#id_0)" d="M377.0 246.0L326.0 246.0L326.0 98.0C326.0 96.89543 326.89542 96.0 328.0 96.0L375.0 96.0C376.10458 96.0 377.0 96.89543 377.0 98.0Z" fill-rule="nonzero"/><path fill="#db4437" clip-path="url(#id_0)" d="M377.0 246.0L326.0 246.0L326.0 98.0C326.0 96.89543 326.89542 96.0 328.0 96.0L375.0 96.0C376.10458 96.0 377.0 96.89543 377.0 98.0Z" fill-rule="nonzero"/><path stroke="#4285f4" stroke-width="3.0" stroke-linejoin="round" stroke-linecap="round" d="M123.765625 96.083336L122.6875 96.083336L122.6875 88.864586L120.5 89.66146L120.5 88.677086L123.609375 87.50521L123.765625 87.50521L123.765625 96.083336ZM132.5625 92.44271Q132.5625 94.34896 131.90625 95.28646Q131.26562 96.208336 129.875 96.208336Q128.51562 96.208336 127.859375 95.302086Q127.203125 94.395836 127.171875 92.583336L127.171875 91.145836Q127.171875 89.25521 127.8125 88.34896Q128.46875 87.427086 129.85938 87.427086Q131.23438 87.427086 131.89062 88.31771Q132.54688 89.19271 132.5625 91.03646L132.5625 92.44271ZM131.46875 90.958336Q131.46875 89.583336 131.07812 88.958336Q130.70312 88.31771 129.85938 88.31771Q129.03125 88.31771 128.64062 88.958336Q128.26562 89.583336 128.26562 90.88021L128.26562 92.614586Q128.26562 93.989586 128.65625 94.66146Q129.0625 95.31771 129.875 95.31771Q130.67188 95.31771 131.0625 94.69271Q131.45312 94.06771 131.46875 92.739586L131.46875 90.958336ZM139.5625 92.44271Q139.5625 94.34896 138.90625 95.28646Q138.26562 96.208336 136.875 96.208336Q135.51562 96.208336 134.85938 95.302086Q134.20312 94.395836 134.17188 92.583336L134.17188 91.145836Q134.17188 89.25521 134.8125 88.34896Q135.46875 87.427086 136.85938 87.427086Q138.23438 87.427086 138.89062 88.31771Q139.54688 89.19271 139.5625 91.03646L139.5625 92.44271ZM138.46875 90.958336Q138.46875 89.583336 138.07812 88.958336Q137.70312 88.31771 136.85938 88.31771Q136.03125 88.31771 135.64062 88.958336Q135.26562 89.583336 135.26562 90.88021L135.26562 92.614586Q135.26562 93.989586 135.65625 94.66146Q136.0625 95.31771 136.875 95.31771Q137.67188 95.31771 138.0625 94.69271Q138.45312 94.06771 138.46875 92.739586L138.46875 90.958336ZM141.10938 89.19271Q141.10938 88.427086 141.59375 87.927086Q142.09375 87.427086 142.85938 87.427086Q143.64062 87.427086 144.125 87.927086Q144.60938 88.427086 144.60938 89.22396L144.60938 89.645836Q144.60938 90.41146 144.10938 90.91146Q143.625 91.395836 142.875 91.395836Q142.10938 91.395836 141.60938 90.91146Q141.10938 90.41146 141.10938 89.59896L141.10938 89.19271ZM141.92188 89.645836Q141.92188 90.09896 142.17188 90.395836Q142.4375 90.69271 142.875 90.69271Q143.29688 90.69271 143.54688 90.41146Q143.79688 90.114586 143.79688 89.614586L143.79688 89.19271Q143.79688 88.739586 143.54688 88.44271Q143.29688 88.13021 142.85938 88.13021Q142.42188 88.13021 142.17188 88.44271Q141.92188 88.739586 141.92188 89.208336L141.92188 89.645836ZM145.26562 93.989586Q145.26562 93.22396 145.75 92.739586Q146.25 92.239586 147.01562 92.239586Q147.78125 92.239586 148.26562 92.739586Q148.76562 93.22396 148.76562 94.03646L148.76562 94.44271Q148.76562 95.208336 148.28125 95.708336Q147.79688 96.208336 147.03125 96.208336Q146.26562 96.208336 145.76562 95.72396Q145.26562 95.22396 145.26562 94.41146L145.26562 93.989586ZM146.07812 94.44271Q146.07812 94.91146 146.32812 95.208336Q146.59375 95.50521 147.03125 95.50521Q147.45312 95.50521 147.70312 95.22396Q147.95312 94.927086 147.95312 94.427086L147.95312 93.989586Q147.95312 93.520836 147.6875 93.239586Q147.4375 92.94271 147.01562 92.94271Q146.59375 92.94271 146.32812 93.239586Q146.07812 93.520836 146.07812 94.020836L146.07812 94.44271ZM143.125 95.44271L142.5 95.052086L146.67188 88.38021L147.28125 88.770836L143.125 95.44271Z" fill-rule="nonzero"/><path fill="#ffffff" d="M123.765625 96.083336L122.6875 96.083336L122.6875 88.864586L120.5 89.66146L120.5 88.677086L123.609375 87.50521L123.765625 87.50521L123.765625 96.083336ZM132.5625 92.44271Q132.5625 94.34896 131.90625 95.28646Q131.26562 96.208336 129.875 96.208336Q128.51562 96.208336 127.859375 95.302086Q127.203125 94.395836 127.171875 92.583336L127.171875 91.145836Q127.171875 89.25521 127.8125 88.34896Q128.46875 87.427086 129.85938 87.427086Q131.23438 87.427086 131.89062 88.31771Q132.54688 89.19271 132.5625 91.03646L132.5625 92.44271ZM131.46875 90.958336Q131.46875 89.583336 131.07812 88.958336Q130.70312 88.31771 129.85938 88.31771Q129.03125 88.31771 128.64062 88.958336Q128.26562 89.583336 128.26562 90.88021L128.26562 92.614586Q128.26562 93.989586 128.65625 94.66146Q129.0625 95.31771 129.875 95.31771Q130.67188 95.31771 131.0625 94.69271Q131.45312 94.06771 131.46875 92.739586L131.46875 90.958336ZM139.5625 92.44271Q139.5625 94.34896 138.90625 95.28646Q138.26562 96.208336 136.875 96.208336Q135.51562 96.208336 134.85938 95.302086Q134.20312 94.395836 134.17188 92.583336L134.17188 91.145836Q134.17188 89.25521 134.8125 88.34896Q135.46875 87.427086 136.85938 87.427086Q138.23438 87.427086 138.89062 88.31771Q139.54688 89.19271 139.5625 91.03646L139.5625 92.44271ZM138.46875 90.958336Q138.46875 89.583336 138.07812 88.958336Q137.70312 88.31771 136.85938 88.31771Q136.03125 88.31771 135.64062 88.958336Q135.26562 89.583336 135.26562 90.88021L135.26562 92.614586Q135.26562 93.989586 135.65625 94.66146Q136.0625 95.31771 136.875 95.31771Q137.67188 95.31771 138.0625 94.69271Q138.45312 94.06771 138.46875 92.739586L138.46875 90.958336ZM141.10938 89.19271Q141.10938 88.427086 141.59375 87.927086Q142.09375 87.427086 142.85938 87.427086Q143.64062 87.427086 144.125 87.927086Q144.60938 88.427086 144.60938 89.22396L144.60938 89.645836Q144.60938 90.41146 144.10938 90.91146Q143.625 91.395836 142.875 91.395836Q142.10938 91.395836 141.60938 90.91146Q141.10938 90.41146 141.10938 89.59896L141.10938 89.19271ZM141.92188 89.645836Q141.92188 90.09896 142.17188 90.395836Q142.4375 90.69271 142.875 90.69271Q143.29688 90.69271 143.54688 90.41146Q143.79688 90.114586 143.79688 89.614586L143.79688 89.19271Q143.79688 88.739586 143.54688 88.44271Q143.29688 88.13021 142.85938 88.13021Q142.42188 88.13021 142.17188 88.44271Q141.92188 88.739586 141.92188 89.208336L141.92188 89.645836ZM145.26562 93.989586Q145.26562 93.22396 145.75 92.739586Q146.25 92.239586 147.01562 92.239586Q147.78125 92.239586 148.26562 92.739586Q148.76562 93.22396 148.76562 94.03646L148.76562 94.44271Q148.76562 95.208336 148.28125 95.708336Q147.79688 96.208336 147.03125 96.208336Q146.26562 96.208336 145.76562 95.72396Q145.26562 95.22396 145.26562 94.41146L145.26562 93.989586ZM146.07812 94.44271Q146.07812 94.91146 146.32812 95.208336Q146.59375 95.50521 147.03125 95.50521Q147.45312 95.50521 147.70312 95.22396Q147.95312 94.927086 147.95312 94.427086L147.95312 93.989586Q147.95312 93.520836 147.6875 93.239586Q147.4375 92.94271 147.01562 92.94271Q146.59375 92.94271 146.32812 93.239586Q146.07812 93.520836 146.07812 94.020836L146.07812 94.44271ZM143.125 95.44271L142.5 95.052086L146.67188 88.38021L147.28125 88.770836L143.125 95.44271Z" fill-rule="nonzero"/><path stroke="#4285f4" stroke-width="3.0" stroke-linejoin="round" stroke-linecap="round" d="M292.28125 184.13306L293.46875 184.13306L293.46875 185.00806L292.28125 185.00806L292.28125 186.99243L291.20312 186.99243L291.20312 185.00806L287.3125 185.00806L287.3125 184.36743L291.125 178.46118L292.28125 178.46118L292.28125 184.13306ZM288.54688 184.13306L291.20312 184.13306L291.20312 179.94556L291.0625 180.17993L288.54688 184.13306ZM295.20312 182.71118L295.64062 178.46118L300.01562 178.46118L300.01562 179.46118L296.5625 179.46118L296.29688 181.7893Q296.9375 181.4143 297.73438 181.4143Q298.89062 181.4143 299.57812 182.19556Q300.26562 182.96118 300.26562 184.27368Q300.26562 185.58618 299.54688 186.3518Q298.84375 187.11743 297.5625 187.11743Q296.4375 187.11743 295.71875 186.49243Q295.0 185.8518 294.90625 184.74243L295.92188 184.74243Q296.03125 185.4768 296.45312 185.8518Q296.875 186.2268 297.5625 186.2268Q298.3125 186.2268 298.75 185.71118Q299.1875 185.19556 299.1875 184.2893Q299.1875 183.42993 298.71875 182.9143Q298.25 182.39868 297.46875 182.39868Q296.76562 182.39868 296.35938 182.69556L296.07812 182.92993L295.20312 182.71118ZM301.60938 180.1018Q301.60938 179.33618 302.09375 178.83618Q302.59375 178.33618 303.35938 178.33618Q304.14062 178.33618 304.625 178.83618Q305.10938 179.33618 305.10938 180.13306L305.10938 180.55493Q305.10938 181.32056 304.60938 181.82056Q304.125 182.30493 303.375 182.30493Q302.60938 182.30493 302.10938 181.82056Q301.60938 181.32056 301.60938 180.50806L301.60938 180.1018ZM302.42188 180.55493Q302.42188 181.00806 302.67188 181.30493Q302.9375 181.6018 303.375 181.6018Q303.79688 181.6018 304.04688 181.32056Q304.29688 181.02368 304.29688 180.52368L304.29688 180.1018Q304.29688 179.64868 304.04688 179.3518Q303.79688 179.0393 303.35938 179.0393Q302.92188 179.0393 302.67188 179.3518Q302.42188 179.64868 302.42188 180.11743L302.42188 180.55493ZM305.76562 184.89868Q305.76562 184.13306 306.25 183.64868Q306.75 183.14868 307.51562 183.14868Q308.28125 183.14868 308.76562 183.64868Q309.26562 184.13306 309.26562 184.94556L309.26562 185.3518Q309.26562 186.11743 308.78125 186.61743Q308.29688 187.11743 307.53125 187.11743Q306.76562 187.11743 306.26562 186.63306Q305.76562 186.13306 305.76562 185.32056L305.76562 184.89868ZM306.57812 185.3518Q306.57812 185.82056 306.82812 186.11743Q307.09375 186.4143 307.53125 186.4143Q307.95312 186.4143 308.20312 186.13306Q308.45312 185.83618 308.45312 185.33618L308.45312 184.89868Q308.45312 184.42993 308.1875 184.14868Q307.9375 183.8518 307.51562 183.8518Q307.09375 183.8518 306.82812 184.14868Q306.57812 184.42993 306.57812 184.92993L306.57812 185.3518ZM303.625 186.3518L303.0 185.96118L307.17188 179.2893L307.78125 179.67993L303.625 186.3518Z" fill-rule="nonzero"/><path fill="#ffffff" d="M292.28125 184.13306L293.46875 184.13306L293.46875 185.00806L292.28125 185.00806L292.28125 186.99243L291.20312 186.99243L291.20312 185.00806L287.3125 185.00806L287.3125 184.36743L291.125 178.46118L292.28125 178.46118L292.28125 184.13306ZM288.54688 184.13306L291.20312 184.13306L291.20312 179.94556L291.0625 180.17993L288.54688 184.13306ZM295.20312 182.71118L295.64062 178.46118L300.01562 178.46118L300.01562 179.46118L296.5625 179.46118L296.29688 181.7893Q296.9375 181.4143 297.73438 181.4143Q298.89062 181.4143 299.57812 182.19556Q300.26562 182.96118 300.26562 184.27368Q300.26562 185.58618 299.54688 186.3518Q298.84375 187.11743 297.5625 187.11743Q296.4375 187.11743 295.71875 186.49243Q295.0 185.8518 294.90625 184.74243L295.92188 184.74243Q296.03125 185.4768 296.45312 185.8518Q296.875 186.2268 297.5625 186.2268Q298.3125 186.2268 298.75 185.71118Q299.1875 185.19556 299.1875 184.2893Q299.1875 183.42993 298.71875 182.9143Q298.25 182.39868 297.46875 182.39868Q296.76562 182.39868 296.35938 182.69556L296.07812 182.92993L295.20312 182.71118ZM301.60938 180.1018Q301.60938 179.33618 302.09375 178.83618Q302.59375 178.33618 303.35938 178.33618Q304.14062 178.33618 304.625 178.83618Q305.10938 179.33618 305.10938 180.13306L305.10938 180.55493Q305.10938 181.32056 304.60938 181.82056Q304.125 182.30493 303.375 182.30493Q302.60938 182.30493 302.10938 181.82056Q301.60938 181.32056 301.60938 180.50806L301.60938 180.1018ZM302.42188 180.55493Q302.42188 181.00806 302.67188 181.30493Q302.9375 181.6018 303.375 181.6018Q303.79688 181.6018 304.04688 181.32056Q304.29688 181.02368 304.29688 180.52368L304.29688 180.1018Q304.29688 179.64868 304.04688 179.3518Q303.79688 179.0393 303.35938 179.0393Q302.92188 179.0393 302.67188 179.3518Q302.42188 179.64868 302.42188 180.11743L302.42188 180.55493ZM305.76562 184.89868Q305.76562 184.13306 306.25 183.64868Q306.75 183.14868 307.51562 183.14868Q308.28125 183.14868 308.76562 183.64868Q309.26562 184.13306 309.26562 184.94556L309.26562 185.3518Q309.26562 186.11743 308.78125 186.61743Q308.29688 187.11743 307.53125 187.11743Q306.76562 187.11743 306.26562 186.63306Q305.76562 186.13306 305.76562 185.32056L305.76562 184.89868ZM306.57812 185.3518Q306.57812 185.82056 306.82812 186.11743Q307.09375 186.4143 307.53125 186.4143Q307.95312 186.4143 308.20312 186.13306Q308.45312 185.83618 308.45312 185.33618L308.45312 184.89868Q308.45312 184.42993 308.1875 184.14868Q307.9375 183.8518 307.51562 183.8518Q307.09375 183.8518 306.82812 184.14868Q306.57812 184.42993 306.57812 184.92993L306.57812 185.3518ZM303.625 186.3518L303.0 185.96118L307.17188 179.2893L307.78125 179.67993L303.625 186.3518Z" fill-rule="nonzero"/><path stroke="#db4437" stroke-width="3.0" stroke-linejoin="round" stroke-linecap="round" d="M176.76562 96.083336L175.6875 96.083336L175.6875 88.864586L173.5 89.66146L173.5 88.677086L176.60938 87.50521L176.76562 87.50521L176.76562 96.083336ZM185.5625 92.44271Q185.5625 94.34896 184.90625 95.28646Q184.26562 96.208336 182.875 96.208336Q181.51562 96.208336 180.85938 95.302086Q180.20312 94.395836 180.17188 92.583336L180.17188 91.145836Q180.17188 89.25521 180.8125 88.34896Q181.46875 87.427086 182.85938 87.427086Q184.23438 87.427086 184.89062 88.31771Q185.54688 89.19271 185.5625 91.03646L185.5625 92.44271ZM184.46875 90.958336Q184.46875 89.583336 184.07812 88.958336Q183.70312 88.31771 182.85938 88.31771Q182.03125 88.31771 181.64062 88.958336Q181.26562 89.583336 181.26562 90.88021L181.26562 92.614586Q181.26562 93.989586 181.65625 94.66146Q182.0625 95.31771 182.875 95.31771Q183.67188 95.31771 184.0625 94.69271Q184.45312 94.06771 184.46875 92.739586L184.46875 90.958336ZM192.5625 92.44271Q192.5625 94.34896 191.90625 95.28646Q191.26562 96.208336 189.875 96.208336Q188.51562 96.208336 187.85938 95.302086Q187.20312 94.395836 187.17188 92.583336L187.17188 91.145836Q187.17188 89.25521 187.8125 88.34896Q188.46875 87.427086 189.85938 87.427086Q191.23438 87.427086 191.89062 88.31771Q192.54688 89.19271 192.5625 91.03646L192.5625 92.44271ZM191.46875 90.958336Q191.46875 89.583336 191.07812 88.958336Q190.70312 88.31771 189.85938 88.31771Q189.03125 88.31771 188.64062 88.958336Q188.26562 89.583336 188.26562 90.88021L188.26562 92.614586Q188.26562 93.989586 188.65625 94.66146Q189.0625 95.31771 189.875 95.31771Q190.67188 95.31771 191.0625 94.69271Q191.45312 94.06771 191.46875 92.739586L191.46875 90.958336ZM194.10938 89.19271Q194.10938 88.427086 194.59375 87.927086Q195.09375 87.427086 195.85938 87.427086Q196.64062 87.427086 197.125 87.927086Q197.60938 88.427086 197.60938 89.22396L197.60938 89.645836Q197.60938 90.41146 197.10938 90.91146Q196.625 91.395836 195.875 91.395836Q195.10938 91.395836 194.60938 90.91146Q194.10938 90.41146 194.10938 89.59896L194.10938 89.19271ZM194.92188 89.645836Q194.92188 90.09896 195.17188 90.395836Q195.4375 90.69271 195.875 90.69271Q196.29688 90.69271 196.54688 90.41146Q196.79688 90.114586 196.79688 89.614586L196.79688 89.19271Q196.79688 88.739586 196.54688 88.44271Q196.29688 88.13021 195.85938 88.13021Q195.42188 88.13021 195.17188 88.44271Q194.92188 88.739586 194.92188 89.208336L194.92188 89.645836ZM198.26562 93.989586Q198.26562 93.22396 198.75 92.739586Q199.25 92.239586 200.01562 92.239586Q200.78125 92.239586 201.26562 92.739586Q201.76562 93.22396 201.76562 94.03646L201.76562 94.44271Q201.76562 95.208336 201.28125 95.708336Q200.79688 96.208336 200.03125 96.208336Q199.26562 96.208336 198.76562 95.72396Q198.26562 95.22396 198.26562 94.41146L198.26562 93.989586ZM199.07812 94.44271Q199.07812 94.91146 199.32812 95.208336Q199.59375 95.50521 200.03125 95.50521Q200.45312 95.50521 200.70312 95.22396Q200.95312 94.927086 200.95312 94.427086L200.95312 93.989586Q200.95312 93.520836 200.6875 93.239586Q200.4375 92.94271 200.01562 92.94271Q199.59375 92.94271 199.32812 93.239586Q199.07812 93.520836 199.07812 94.020836L199.07812 94.44271ZM196.125 95.44271L195.5 95.052086L199.67188 88.38021L200.28125 88.770836L196.125 95.44271Z" fill-rule="nonzero"/><path fill="#ffffff" d="M176.76562 96.083336L175.6875 96.083336L175.6875 88.864586L173.5 89.66146L173.5 88.677086L176.60938 87.50521L176.76562 87.50521L176.76562 96.083336ZM185.5625 92.44271Q185.5625 94.34896 184.90625 95.28646Q184.26562 96.208336 182.875 96.208336Q181.51562 96.208336 180.85938 95.302086Q180.20312 94.395836 180.17188 92.583336L180.17188 91.145836Q180.17188 89.25521 180.8125 88.34896Q181.46875 87.427086 182.85938 87.427086Q184.23438 87.427086 184.89062 88.31771Q185.54688 89.19271 185.5625 91.03646L185.5625 92.44271ZM184.46875 90.958336Q184.46875 89.583336 184.07812 88.958336Q183.70312 88.31771 182.85938 88.31771Q182.03125 88.31771 181.64062 88.958336Q181.26562 89.583336 181.26562 90.88021L181.26562 92.614586Q181.26562 93.989586 181.65625 94.66146Q182.0625 95.31771 182.875 95.31771Q183.67188 95.31771 184.0625 94.69271Q184.45312 94.06771 184.46875 92.739586L184.46875 90.958336ZM192.5625 92.44271Q192.5625 94.34896 191.90625 95.28646Q191.26562 96.208336 189.875 96.208336Q188.51562 96.208336 187.85938 95.302086Q187.20312 94.395836 187.17188 92.583336L187.17188 91.145836Q187.17188 89.25521 187.8125 88.34896Q188.46875 87.427086 189.85938 87.427086Q191.23438 87.427086 191.89062 88.31771Q192.54688 89.19271 192.5625 91.03646L192.5625 92.44271ZM191.46875 90.958336Q191.46875 89.583336 191.07812 88.958336Q190.70312 88.31771 189.85938 88.31771Q189.03125 88.31771 188.64062 88.958336Q188.26562 89.583336 188.26562 90.88021L188.26562 92.614586Q188.26562 93.989586 188.65625 94.66146Q189.0625 95.31771 189.875 95.31771Q190.67188 95.31771 191.0625 94.69271Q191.45312 94.06771 191.46875 92.739586L191.46875 90.958336ZM194.10938 89.19271Q194.10938 88.427086 194.59375 87.927086Q195.09375 87.427086 195.85938 87.427086Q196.64062 87.427086 197.125 87.927086Q197.60938 88.427086 197.60938 89.22396L197.60938 89.645836Q197.60938 90.41146 197.10938 90.91146Q196.625 91.395836 195.875 91.395836Q195.10938 91.395836 194.60938 90.91146Q194.10938 90.41146 194.10938 89.59896L194.10938 89.19271ZM194.92188 89.645836Q194.92188 90.09896 195.17188 90.395836Q195.4375 90.69271 195.875 90.69271Q196.29688 90.69271 196.54688 90.41146Q196.79688 90.114586 196.79688 89.614586L196.79688 89.19271Q196.79688 88.739586 196.54688 88.44271Q196.29688 88.13021 195.85938 88.13021Q195.42188 88.13021 195.17188 88.44271Q194.92188 88.739586 194.92188 89.208336L194.92188 89.645836ZM198.26562 93.989586Q198.26562 93.22396 198.75 92.739586Q199.25 92.239586 200.01562 92.239586Q200.78125 92.239586 201.26562 92.739586Q201.76562 93.22396 201.76562 94.03646L201.76562 94.44271Q201.76562 95.208336 201.28125 95.708336Q200.79688 96.208336 200.03125 96.208336Q199.26562 96.208336 198.76562 95.72396Q198.26562 95.22396 198.26562 94.41146L198.26562 93.989586ZM199.07812 94.44271Q199.07812 94.91146 199.32812 95.208336Q199.59375 95.50521 200.03125 95.50521Q200.45312 95.50521 200.70312 95.22396Q200.95312 94.927086 200.95312 94.427086L200.95312 93.989586Q200.95312 93.520836 200.6875 93.239586Q200.4375 92.94271 200.01562 92.94271Q199.59375 92.94271 199.32812 93.239586Q199.07812 93.520836 199.07812 94.020836L199.07812 94.44271ZM196.125 95.44271L195.5 95.052086L199.67188 88.38021L200.28125 88.770836L196.125 95.44271Z" fill-rule="nonzero"/><path stroke="#db4437" stroke-width="3.0" stroke-linejoin="round" stroke-linecap="round" d="M344.85938 109.0Q344.53125 109.40625 344.04688 109.65625Q343.57812 109.890625 343.01562 109.890625Q342.28125 109.890625 341.73438 109.53125Q341.1875 109.171875 340.89062 108.515625Q340.59375 107.84375 340.59375 107.046875Q340.59375 106.203125 340.90625 105.515625Q341.23438 104.828125 341.82812 104.46875Q342.4375 104.09375 343.23438 104.09375Q344.5 104.09375 345.21875 105.046875Q345.95312 106.0 345.95312 107.625L345.95312 107.9375Q345.95312 110.4375 344.96875 111.578125Q343.98438 112.71875 342.0 112.75L341.78125 112.75L341.78125 111.84375L342.01562 111.84375Q343.35938 111.8125 344.07812 111.140625Q344.79688 110.46875 344.85938 109.0ZM343.1875 109.0Q343.73438 109.0 344.1875 108.671875Q344.65625 108.328125 344.875 107.84375L344.875 107.40625Q344.875 106.34375 344.40625 105.671875Q343.9375 105.0 343.23438 105.0Q342.51562 105.0 342.07812 105.546875Q341.65625 106.09375 341.65625 107.0Q341.65625 107.875 342.0625 108.4375Q342.48438 109.0 343.1875 109.0ZM353.0625 109.109375Q353.0625 111.015625 352.40625 111.953125Q351.76562 112.875 350.375 112.875Q349.01562 112.875 348.35938 111.96875Q347.70312 111.0625 347.67188 109.25L347.67188 107.8125Q347.67188 105.921875 348.3125 105.015625Q348.96875 104.09375 350.35938 104.09375Q351.73438 104.09375 352.39062 104.984375Q353.04688 105.859375 353.0625 107.703125L353.0625 109.109375ZM351.96875 107.625Q351.96875 106.25 351.57812 105.625Q351.20312 104.984375 350.35938 104.984375Q349.53125 104.984375 349.14062 105.625Q348.76562 106.25 348.76562 107.546875L348.76562 109.28125Q348.76562 110.65625 349.15625 111.328125Q349.5625 111.984375 350.375 111.984375Q351.17188 111.984375 351.5625 111.359375Q351.95312 110.734375 351.96875 109.40625L351.96875 107.625ZM354.60938 105.859375Q354.60938 105.09375 355.09375 104.59375Q355.59375 104.09375 356.35938 104.09375Q357.14062 104.09375 357.625 104.59375Q358.10938 105.09375 358.10938 105.890625L358.10938 106.3125Q358.10938 107.078125 357.60938 107.578125Q357.125 108.0625 356.375 108.0625Q355.60938 108.0625 355.10938 107.578125Q354.60938 107.078125 354.60938 106.265625L354.60938 105.859375ZM355.42188 106.3125Q355.42188 106.765625 355.67188 107.0625Q355.9375 107.359375 356.375 107.359375Q356.79688 107.359375 357.04688 107.078125Q357.29688 106.78125 357.29688 106.28125L357.29688 105.859375Q357.29688 105.40625 357.04688 105.109375Q356.79688 104.796875 356.35938 104.796875Q355.92188 104.796875 355.67188 105.109375Q355.42188 105.40625 355.42188 105.875L355.42188 106.3125ZM358.76562 110.65625Q358.76562 109.890625 359.25 109.40625Q359.75 108.90625 360.51562 108.90625Q361.28125 108.90625 361.76562 109.40625Q362.26562 109.890625 362.26562 110.703125L362.26562 111.109375Q362.26562 111.875 361.78125 112.375Q361.29688 112.875 360.53125 112.875Q359.76562 112.875 359.26562 112.390625Q358.76562 111.890625 358.76562 111.078125L358.76562 110.65625ZM359.57812 111.109375Q359.57812 111.578125 359.82812 111.875Q360.09375 112.171875 360.53125 112.171875Q360.95312 112.171875 361.20312 111.890625Q361.45312 111.59375 361.45312 111.09375L361.45312 110.65625Q361.45312 110.1875 361.1875 109.90625Q360.9375 109.609375 360.51562 109.609375Q360.09375 109.609375 359.82812 109.90625Q359.57812 110.1875 359.57812 110.6875L359.57812 111.109375ZM356.625 112.109375L356.0 111.71875L360.17188 105.046875L360.78125 105.4375L356.625 112.109375Z" fill-rule="nonzero"/><path fill="#ffffff" d="M344.85938 109.0Q344.53125 109.40625 344.04688 109.65625Q343.57812 109.890625 343.01562 109.890625Q342.28125 109.890625 341.73438 109.53125Q341.1875 109.171875 340.89062 108.515625Q340.59375 107.84375 340.59375 107.046875Q340.59375 106.203125 340.90625 105.515625Q341.23438 104.828125 341.82812 104.46875Q342.4375 104.09375 343.23438 104.09375Q344.5 104.09375 345.21875 105.046875Q345.95312 106.0 345.95312 107.625L345.95312 107.9375Q345.95312 110.4375 344.96875 111.578125Q343.98438 112.71875 342.0 112.75L341.78125 112.75L341.78125 111.84375L342.01562 111.84375Q343.35938 111.8125 344.07812 111.140625Q344.79688 110.46875 344.85938 109.0ZM343.1875 109.0Q343.73438 109.0 344.1875 108.671875Q344.65625 108.328125 344.875 107.84375L344.875 107.40625Q344.875 106.34375 344.40625 105.671875Q343.9375 105.0 343.23438 105.0Q342.51562 105.0 342.07812 105.546875Q341.65625 106.09375 341.65625 107.0Q341.65625 107.875 342.0625 108.4375Q342.48438 109.0 343.1875 109.0ZM353.0625 109.109375Q353.0625 111.015625 352.40625 111.953125Q351.76562 112.875 350.375 112.875Q349.01562 112.875 348.35938 111.96875Q347.70312 111.0625 347.67188 109.25L347.67188 107.8125Q347.67188 105.921875 348.3125 105.015625Q348.96875 104.09375 350.35938 104.09375Q351.73438 104.09375 352.39062 104.984375Q353.04688 105.859375 353.0625 107.703125L353.0625 109.109375ZM351.96875 107.625Q351.96875 106.25 351.57812 105.625Q351.20312 104.984375 350.35938 104.984375Q349.53125 104.984375 349.14062 105.625Q348.76562 106.25 348.76562 107.546875L348.76562 109.28125Q348.76562 110.65625 349.15625 111.328125Q349.5625 111.984375 350.375 111.984375Q351.17188 111.984375 351.5625 111.359375Q351.95312 110.734375 351.96875 109.40625L351.96875 107.625ZM354.60938 105.859375Q354.60938 105.09375 355.09375 104.59375Q355.59375 104.09375 356.35938 104.09375Q357.14062 104.09375 357.625 104.59375Q358.10938 105.09375 358.10938 105.890625L358.10938 106.3125Q358.10938 107.078125 357.60938 107.578125Q357.125 108.0625 356.375 108.0625Q355.60938 108.0625 355.10938 107.578125Q354.60938 107.078125 354.60938 106.265625L354.60938 105.859375ZM355.42188 106.3125Q355.42188 106.765625 355.67188 107.0625Q355.9375 107.359375 356.375 107.359375Q356.79688 107.359375 357.04688 107.078125Q357.29688 106.78125 357.29688 106.28125L357.29688 105.859375Q357.29688 105.40625 357.04688 105.109375Q356.79688 104.796875 356.35938 104.796875Q355.92188 104.796875 355.67188 105.109375Q355.42188 105.40625 355.42188 105.875L355.42188 106.3125ZM358.76562 110.65625Q358.76562 109.890625 359.25 109.40625Q359.75 108.90625 360.51562 108.90625Q361.28125 108.90625 361.76562 109.40625Q362.26562 109.890625 362.26562 110.703125L362.26562 111.109375Q362.26562 111.875 361.78125 112.375Q361.29688 112.875 360.53125 112.875Q359.76562 112.875 359.26562 112.390625Q358.76562 111.890625 358.76562 111.078125L358.76562 110.65625ZM359.57812 111.109375Q359.57812 111.578125 359.82812 111.875Q360.09375 112.171875 360.53125 112.171875Q360.95312 112.171875 361.20312 111.890625Q361.45312 111.59375 361.45312 111.09375L361.45312 110.65625Q361.45312 110.1875 361.1875 109.90625Q360.9375 109.609375 360.51562 109.609375Q360.09375 109.609375 359.82812 109.90625Q359.57812 110.1875 359.57812 110.6875L359.57812 111.109375ZM356.625 112.109375L356.0 111.71875L360.17188 105.046875L360.78125 105.4375L356.625 112.109375Z" fill-rule="nonzero"/><path fill="#757575" d="M34.1125 246.80937Q34.1125 248.71562 33.45625 249.65312Q32.815624 250.575 31.425 250.575Q30.065624 250.575 29.409374 249.66875Q28.753124 248.7625 28.721874 246.95L28.721874 245.5125Q28.721874 243.62187 29.3625 242.71562Q30.01875 241.79375 31.409374 241.79375Q32.784374 241.79375 33.440624 242.68437Q34.096874 243.55937 34.1125 245.40312L34.1125 246.80937ZM33.01875 245.325Q33.01875 243.95 32.628124 243.325Q32.253124 242.68437 31.409374 242.68437Q30.58125 242.68437 30.190624 243.325Q29.815624 243.95 29.815624 245.24687L29.815624 246.98125Q29.815624 248.35625 30.20625 249.02812Q30.6125 249.68437 31.425 249.68437Q32.221874 249.68437 32.6125 249.05937Q33.003124 248.43437 33.01875 247.10625L33.01875 245.325ZM35.659374 243.55937Q35.659374 242.79375 36.14375 242.29375Q36.64375 241.79375 37.409374 241.79375Q38.190624 241.79375 38.675 242.29375Q39.159374 242.79375 39.159374 243.59062L39.159374 244.0125Q39.159374 244.77812 38.659374 245.27812Q38.175 245.7625 37.425 245.7625Q36.659374 245.7625 36.159374 245.27812Q35.659374 244.77812 35.659374 243.96562L35.659374 243.55937ZM36.471874 244.0125Q36.471874 244.46562 36.721874 244.7625Q36.9875 245.05937 37.425 245.05937Q37.846874 245.05937 38.096874 244.77812Q38.346874 244.48125 38.346874 243.98125L38.346874 243.55937Q38.346874 243.10625 38.096874 242.80937Q37.846874 242.49687 37.409374 242.49687Q36.971874 242.49687 36.721874 242.80937Q36.471874 243.10625 36.471874 243.575L36.471874 244.0125ZM39.815624 248.35625Q39.815624 247.59062 40.3 247.10625Q40.8 246.60625 41.565624 246.60625Q42.33125 246.60625 42.815624 247.10625Q43.315624 247.59062 43.315624 248.40312L43.315624 248.80937Q43.315624 249.575 42.83125 250.075Q42.346874 250.575 41.58125 250.575Q40.815624 250.575 40.315624 250.09062Q39.815624 249.59062 39.815624 248.77812L39.815624 248.35625ZM40.628124 248.80937Q40.628124 249.27812 40.878124 249.575Q41.14375 249.87187 41.58125 249.87187Q42.003124 249.87187 42.253124 249.59062Q42.503124 249.29375 42.503124 248.79375L42.503124 248.35625Q42.503124 247.8875 42.2375 247.60625Q41.9875 247.30937 41.565624 247.30937Q41.14375 247.30937 40.878124 247.60625Q40.628124 247.8875 40.628124 248.3875L40.628124 248.80937ZM37.675 249.80937L37.05 249.41875L41.221874 242.74687L41.83125 243.1375L37.675 249.80937Z" fill-rule="nonzero"/><path fill="#757575" d="M27.346874 208.78334L21.753124 208.78334L21.753124 208.00209L24.70625 204.72084Q25.3625 203.97084 25.6125 203.51772Q25.8625 203.04897 25.8625 202.54897Q25.8625 201.87709 25.45625 201.45522Q25.065624 201.01772 24.378124 201.01772Q23.58125 201.01772 23.128124 201.48647Q22.675 201.93959 22.675 202.76772L21.596874 202.76772Q21.596874 201.58022 22.346874 200.86147Q23.1125 200.12709 24.378124 200.12709Q25.58125 200.12709 26.26875 200.75209Q26.95625 201.37709 26.95625 202.42397Q26.95625 203.67397 25.346874 205.42397L23.065624 207.89272L27.346874 207.89272L27.346874 208.78334ZM29.253124 204.50209L29.690624 200.25209L34.065624 200.25209L34.065624 201.25209L30.6125 201.25209L30.346874 203.58022Q30.9875 203.20522 31.784374 203.20522Q32.940624 203.20522 33.628124 203.98647Q34.315624 204.75209 34.315624 206.06459Q34.315624 207.37709 33.596874 208.14272Q32.89375 208.90834 31.6125 208.90834Q30.4875 208.90834 29.76875 208.28334Q29.05 207.64272 28.95625 206.53334L29.971874 206.53334Q30.08125 207.26772 30.503124 207.64272Q30.925 208.01772 31.6125 208.01772Q32.3625 208.01772 32.8 207.50209Q33.2375 206.98647 33.2375 206.08022Q33.2375 205.22084 32.76875 204.70522Q32.3 204.18959 31.51875 204.18959Q30.815624 204.18959 30.409374 204.48647L30.128124 204.72084L29.253124 204.50209ZM35.659374 201.89272Q35.659374 201.12709 36.14375 200.62709Q36.64375 200.12709 37.409374 200.12709Q38.190624 200.12709 38.675 200.62709Q39.159374 201.12709 39.159374 201.92397L39.159374 202.34584Q39.159374 203.11147 38.659374 203.61147Q38.175 204.09584 37.425 204.09584Q36.659374 204.09584 36.159374 203.61147Q35.659374 203.11147 35.659374 202.29897L35.659374 201.89272ZM36.471874 202.34584Q36.471874 202.79897 36.721874 203.09584Q36.9875 203.39272 37.425 203.39272Q37.846874 203.39272 38.096874 203.11147Q38.346874 202.81459 38.346874 202.31459L38.346874 201.89272Q38.346874 201.43959 38.096874 201.14272Q37.846874 200.83022 37.409374 200.83022Q36.971874 200.83022 36.721874 201.14272Q36.471874 201.43959 36.471874 201.90834L36.471874 202.34584ZM39.815624 206.68959Q39.815624 205.92397 40.3 205.43959Q40.8 204.93959 41.565624 204.93959Q42.33125 204.93959 42.815624 205.43959Q43.315624 205.92397 43.315624 206.73647L43.315624 207.14272Q43.315624 207.90834 42.83125 208.40834Q42.346874 208.90834 41.58125 208.90834Q40.815624 208.90834 40.315624 208.42397Q39.815624 207.92397 39.815624 207.11147L39.815624 206.68959ZM40.628124 207.14272Q40.628124 207.61147 40.878124 207.90834Q41.14375 208.20522 41.58125 208.20522Q42.003124 208.20522 42.253124 207.92397Q42.503124 207.62709 42.503124 207.12709L42.503124 206.68959Q42.503124 206.22084 42.2375 205.93959Q41.9875 205.64272 41.565624 205.64272Q41.14375 205.64272 40.878124 205.93959Q40.628124 206.22084 40.628124 206.72084L40.628124 207.14272ZM37.675 208.14272L37.05 207.75209L41.221874 201.08022L41.83125 201.47084L37.675 208.14272Z" fill-rule="nonzero"/><path fill="#757575" d="M22.253124 162.83542L22.690624 158.58542L27.065624 158.58542L27.065624 159.58542L23.6125 159.58542L23.346874 161.91354Q23.9875 161.53854 24.784374 161.53854Q25.940624 161.53854 26.628124 162.3198Q27.315624 163.08542 27.315624 164.39792Q27.315624 165.71042 26.596874 166.47604Q25.89375 167.24167 24.6125 167.24167Q23.4875 167.24167 22.76875 166.61667Q22.05 165.97604 21.95625 164.86667L22.971874 164.86667Q23.08125 165.60104 23.503124 165.97604Q23.925 166.35104 24.6125 166.35104Q25.3625 166.35104 25.8 165.83542Q26.2375 165.3198 26.2375 164.41354Q26.2375 163.55417 25.76875 163.03854Q25.3 162.52292 24.51875 162.52292Q23.815624 162.52292 23.409374 162.8198L23.128124 163.05417L22.253124 162.83542ZM34.1125 163.47604Q34.1125 165.3823 33.45625 166.3198Q32.815624 167.24167 31.425 167.24167Q30.065624 167.24167 29.409374 166.33542Q28.753124 165.42917 28.721874 163.61667L28.721874 162.17917Q28.721874 160.28854 29.3625 159.3823Q30.01875 158.46042 31.409374 158.46042Q32.784374 158.46042 33.440624 159.35104Q34.096874 160.22604 34.1125 162.0698L34.1125 163.47604ZM33.01875 161.99167Q33.01875 160.61667 32.628124 159.99167Q32.253124 159.35104 31.409374 159.35104Q30.58125 159.35104 30.190624 159.99167Q29.815624 160.61667 29.815624 161.91354L29.815624 163.64792Q29.815624 165.02292 30.20625 165.6948Q30.6125 166.35104 31.425 166.35104Q32.221874 166.35104 32.6125 165.72604Q33.003124 165.10104 33.01875 163.77292L33.01875 161.99167ZM35.659374 160.22604Q35.659374 159.46042 36.14375 158.96042Q36.64375 158.46042 37.409374 158.46042Q38.190624 158.46042 38.675 158.96042Q39.159374 159.46042 39.159374 160.2573L39.159374 160.67917Q39.159374 161.4448 38.659374 161.9448Q38.175 162.42917 37.425 162.42917Q36.659374 162.42917 36.159374 161.9448Q35.659374 161.4448 35.659374 160.6323L35.659374 160.22604ZM36.471874 160.67917Q36.471874 161.1323 36.721874 161.42917Q36.9875 161.72604 37.425 161.72604Q37.846874 161.72604 38.096874 161.4448Q38.346874 161.14792 38.346874 160.64792L38.346874 160.22604Q38.346874 159.77292 38.096874 159.47604Q37.846874 159.16354 37.409374 159.16354Q36.971874 159.16354 36.721874 159.47604Q36.471874 159.77292 36.471874 160.24167L36.471874 160.67917ZM39.815624 165.02292Q39.815624 164.2573 40.3 163.77292Q40.8 163.27292 41.565624 163.27292Q42.33125 163.27292 42.815624 163.77292Q43.315624 164.2573 43.315624 165.0698L43.315624 165.47604Q43.315624 166.24167 42.83125 166.74167Q42.346874 167.24167 41.58125 167.24167Q40.815624 167.24167 40.315624 166.7573Q39.815624 166.2573 39.815624 165.4448L39.815624 165.02292ZM40.628124 165.47604Q40.628124 165.9448 40.878124 166.24167Q41.14375 166.53854 41.58125 166.53854Q42.003124 166.53854 42.253124 166.2573Q42.503124 165.96042 42.503124 165.46042L42.503124 165.02292Q42.503124 164.55417 42.2375 164.27292Q41.9875 163.97604 41.565624 163.97604Q41.14375 163.97604 40.878124 164.27292Q40.628124 164.55417 40.628124 165.05417L40.628124 165.47604ZM37.675 166.47604L37.05 166.08542L41.221874 159.41354L41.83125 159.80417L37.675 166.47604Z" fill-rule="nonzero"/><path fill="#757575" d="M27.26875 117.52812L23.7375 125.45L22.596874 125.45L26.1125 117.80937L21.503124 117.80937L21.503124 116.91875L27.26875 116.91875L27.26875 117.52812ZM29.253124 121.16875L29.690624 116.91875L34.065624 116.91875L34.065624 117.91875L30.6125 117.91875L30.346874 120.24687Q30.9875 119.87187 31.784374 119.87187Q32.940624 119.87187 33.628124 120.65312Q34.315624 121.41875 34.315624 122.73125Q34.315624 124.04375 33.596874 124.80937Q32.89375 125.575 31.6125 125.575Q30.4875 125.575 29.76875 124.95Q29.05 124.30937 28.95625 123.2L29.971874 123.2Q30.08125 123.93437 30.503124 124.30937Q30.925 124.68437 31.6125 124.68437Q32.3625 124.68437 32.8 124.16875Q33.2375 123.65312 33.2375 122.74687Q33.2375 121.8875 32.76875 121.37187Q32.3 120.85625 31.51875 120.85625Q30.815624 120.85625 30.409374 121.15312L30.128124 121.3875L29.253124 121.16875ZM35.659374 118.55937Q35.659374 117.79375 36.14375 117.29375Q36.64375 116.79375 37.409374 116.79375Q38.190624 116.79375 38.675 117.29375Q39.159374 117.79375 39.159374 118.59062L39.159374 119.0125Q39.159374 119.77812 38.659374 120.27812Q38.175 120.7625 37.425 120.7625Q36.659374 120.7625 36.159374 120.27812Q35.659374 119.77812 35.659374 118.96562L35.659374 118.55937ZM36.471874 119.0125Q36.471874 119.46562 36.721874 119.7625Q36.9875 120.05937 37.425 120.05937Q37.846874 120.05937 38.096874 119.77812Q38.346874 119.48125 38.346874 118.98125L38.346874 118.55937Q38.346874 118.10625 38.096874 117.80937Q37.846874 117.49687 37.409374 117.49687Q36.971874 117.49687 36.721874 117.80937Q36.471874 118.10625 36.471874 118.575L36.471874 119.0125ZM39.815624 123.35625Q39.815624 122.59062 40.3 122.10625Q40.8 121.60625 41.565624 121.60625Q42.33125 121.60625 42.815624 122.10625Q43.315624 122.59062 43.315624 123.40312L43.315624 123.80937Q43.315624 124.575 42.83125 125.075Q42.346874 125.575 41.58125 125.575Q40.815624 125.575 40.315624 125.09062Q39.815624 124.59062 39.815624 123.77812L39.815624 123.35625ZM40.628124 123.80937Q40.628124 124.27812 40.878124 124.575Q41.14375 124.87187 41.58125 124.87187Q42.003124 124.87187 42.253124 124.59062Q42.503124 124.29375 42.503124 123.79375L42.503124 123.35625Q42.503124 122.8875 42.2375 122.60625Q41.9875 122.30937 41.565624 122.30937Q41.14375 122.30937 40.878124 122.60625Q40.628124 122.8875 40.628124 123.3875L40.628124 123.80937ZM37.675 124.80937L37.05 124.41875L41.221874 117.74687L41.83125 118.1375L37.675 124.80937Z" fill-rule="nonzero"/><path fill="#757575" d="M18.315624 83.78333L17.2375 83.78333L17.2375 76.56458L15.05 77.36146L15.05 76.37708L18.159374 75.20521L18.315624 75.20521L18.315624 83.78333ZM27.1125 80.14271Q27.1125 82.04896 26.45625 82.98646Q25.815624 83.90833 24.425 83.90833Q23.065624 83.90833 22.409374 83.00208Q21.753124 82.09583 21.721874 80.28333L21.721874 78.84583Q21.721874 76.95521 22.3625 76.04896Q23.01875 75.12708 24.409374 75.12708Q25.784374 75.12708 26.440624 76.01771Q27.096874 76.89271 27.1125 78.73646L27.1125 80.14271ZM26.01875 78.65833Q26.01875 77.28333 25.628124 76.65833Q25.253124 76.01771 24.409374 76.01771Q23.58125 76.01771 23.190624 76.65833Q22.815624 77.28333 22.815624 78.58021L22.815624 80.31458Q22.815624 81.68958 23.20625 82.36146Q23.6125 83.01771 24.425 83.01771Q25.221874 83.01771 25.6125 82.39271Q26.003124 81.76771 26.01875 80.43958L26.01875 78.65833ZM34.1125 80.14271Q34.1125 82.04896 33.45625 82.98646Q32.815624 83.90833 31.425 83.90833Q30.065624 83.90833 29.409374 83.00208Q28.753124 82.09583 28.721874 80.28333L28.721874 78.84583Q28.721874 76.95521 29.3625 76.04896Q30.01875 75.12708 31.409374 75.12708Q32.784374 75.12708 33.440624 76.01771Q34.096874 76.89271 34.1125 78.73646L34.1125 80.14271ZM33.01875 78.65833Q33.01875 77.28333 32.628124 76.65833Q32.253124 76.01771 31.409374 76.01771Q30.58125 76.01771 30.190624 76.65833Q29.815624 77.28333 29.815624 78.58021L29.815624 80.31458Q29.815624 81.68958 30.20625 82.36146Q30.6125 83.01771 31.425 83.01771Q32.221874 83.01771 32.6125 82.39271Q33.003124 81.76771 33.01875 80.43958L33.01875 78.65833ZM35.659374 76.89271Q35.659374 76.12708 36.14375 75.62708Q36.64375 75.12708 37.409374 75.12708Q38.190624 75.12708 38.675 75.62708Q39.159374 76.12708 39.159374 76.92396L39.159374 77.34583Q39.159374 78.11146 38.659374 78.61146Q38.175 79.09583 37.425 79.09583Q36.659374 79.09583 36.159374 78.61146Q35.659374 78.11146 35.659374 77.29896L35.659374 76.89271ZM36.471874 77.34583Q36.471874 77.79896 36.721874 78.09583Q36.9875 78.39271 37.425 78.39271Q37.846874 78.39271 38.096874 78.11146Q38.346874 77.81458 38.346874 77.31458L38.346874 76.89271Q38.346874 76.43958 38.096874 76.14271Q37.846874 75.83021 37.409374 75.83021Q36.971874 75.83021 36.721874 76.14271Q36.471874 76.43958 36.471874 76.90833L36.471874 77.34583ZM39.815624 81.68958Q39.815624 80.92396 40.3 80.43958Q40.8 79.93958 41.565624 79.93958Q42.33125 79.93958 42.815624 80.43958Q43.315624 80.92396 43.315624 81.73646L43.315624 82.14271Q43.315624 82.90833 42.83125 83.40833Q42.346874 83.90833 41.58125 83.90833Q40.815624 83.90833 40.315624 83.42396Q39.815624 82.92396 39.815624 82.11146L39.815624 81.68958ZM40.628124 82.14271Q40.628124 82.61146 40.878124 82.90833Q41.14375 83.20521 41.58125 83.20521Q42.003124 83.20521 42.253124 82.92396Q42.503124 82.62708 42.503124 82.12708L42.503124 81.68958Q42.503124 81.22083 42.2375 80.93958Q41.9875 80.64271 41.565624 80.64271Q41.14375 80.64271 40.878124 80.93958Q40.628124 81.22083 40.628124 81.72083L40.628124 82.14271ZM37.675 83.14271L37.05 82.75208L41.221874 76.08021L41.83125 76.47083L37.675 83.14271Z" fill-rule="nonzero"/><path fill="#757575" d="M157.39362 259.96564Q157.39362 261.2 157.00299 262.09064Q156.61237 262.98126 155.90924 263.48126L157.42487 264.6844L156.65924 265.3875L154.86237 263.96564Q154.44049 264.075 153.97174 264.075Q152.97174 264.075 152.19049 263.575Q151.40924 263.075 150.97174 262.16876Q150.54987 261.2469 150.53424 260.02814L150.53424 259.41876Q150.53424 258.1844 150.95612 257.2469Q151.39362 256.3094 152.17487 255.80939Q152.95612 255.29376 153.95612 255.29376Q154.98737 255.29376 155.76862 255.79376Q156.54987 256.29376 156.97174 257.23126Q157.39362 258.16876 157.39362 259.41876L157.39362 259.96564ZM156.26862 259.40314Q156.26862 257.90314 155.67487 257.09064Q155.08112 256.2625 153.95612 256.2625Q152.89362 256.2625 152.28424 257.075Q151.67487 257.8875 151.65924 259.325L151.65924 259.96564Q151.65924 261.41876 152.26862 262.2625Q152.87799 263.10626 153.97174 263.10626Q155.06549 263.10626 155.65924 262.325Q156.25299 261.52814 156.26862 260.04376L156.26862 259.40314ZM162.15924 263.95L161.08112 263.95L161.08112 256.73126L158.89362 257.52814L158.89362 256.54376L162.00299 255.37189L162.15924 255.37189L162.15924 263.95ZM170.17487 261.09064L171.36237 261.09064L171.36237 261.96564L170.17487 261.96564L170.17487 263.95L169.09674 263.95L169.09674 261.96564L165.20612 261.96564L165.20612 261.325L169.01862 255.41876L170.17487 255.41876L170.17487 261.09064ZM166.44049 261.09064L169.09674 261.09064L169.09674 256.90314L168.95612 257.1375L166.44049 261.09064Z" fill-rule="nonzero"/><path fill="#757575" d="M321.60638 259.96564Q321.60638 261.2 321.21576 262.09064Q320.82513 262.98126 320.122 263.48126L321.63763 264.6844L320.872 265.3875L319.07513 263.96564Q318.65326 264.075 318.1845 264.075Q317.1845 264.075 316.40326 263.575Q315.622 263.075 315.1845 262.16876Q314.76263 261.2469 314.747 260.02814L314.747 259.41876Q314.747 258.1844 315.16888 257.2469Q315.60638 256.3094 316.38763 255.80939Q317.16888 255.29376 318.16888 255.29376Q319.20013 255.29376 319.98138 255.79376Q320.76263 256.29376 321.1845 257.23126Q321.60638 258.16876 321.60638 259.41876L321.60638 259.96564ZM320.48138 259.40314Q320.48138 257.90314 319.88763 257.09064Q319.29388 256.2625 318.16888 256.2625Q317.10638 256.2625 316.497 257.075Q315.88763 257.8875 315.872 259.325L315.872 259.96564Q315.872 261.41876 316.48138 262.2625Q317.09076 263.10626 318.1845 263.10626Q319.27826 263.10626 319.872 262.325Q320.46576 261.52814 320.48138 260.04376L320.48138 259.40314ZM326.372 263.95L325.29388 263.95L325.29388 256.73126L323.10638 257.52814L323.10638 256.54376L326.21576 255.37189L326.372 255.37189L326.372 263.95ZM330.3095 259.66876L330.747 255.41876L335.122 255.41876L335.122 256.41876L331.66888 256.41876L331.40326 258.7469Q332.04388 258.3719 332.84076 258.3719Q333.997 258.3719 334.6845 259.15314Q335.372 259.91876 335.372 261.23126Q335.372 262.54376 334.65326 263.3094Q333.95013 264.075 332.66888 264.075Q331.54388 264.075 330.82513 263.45Q330.10638 262.8094 330.01263 261.7L331.02826 261.7Q331.13763 262.4344 331.5595 262.8094Q331.98138 263.1844 332.66888 263.1844Q333.41888 263.1844 333.85638 262.66876Q334.29388 262.15314 334.29388 261.2469Q334.29388 260.3875 333.82513 259.8719Q333.35638 259.35626 332.57513 259.35626Q331.872 259.35626 331.46576 259.65314L331.1845 259.8875L330.3095 259.66876Z" fill-rule="nonzero"/><path fill="#4285f4" d="M183.0 49.916668C183.0 49.364384 183.44771 48.916668 184.0 48.916668L194.0 48.916668C194.55229 48.916668 195.0 49.364384 195.0 49.916668L195.0 59.916668C195.0 60.468952 194.55229 60.916668 194.0 60.916668L184.0 60.916668C183.44771 60.916668 183.0 60.468952 183.0 59.916668Z" fill-rule="nonzero"/><path fill="#757575" d="M203.98438 59.416668L203.98438 50.885418L206.78125 50.885418Q208.17188 50.885418 208.85938 51.463543Q209.5625 52.026043 209.5625 53.151043Q209.5625 53.760418 209.21875 54.229168Q208.89062 54.682293 208.29688 54.932293Q209.0 55.119793 209.39062 55.666668Q209.79688 56.197918 209.79688 56.947918Q209.79688 58.104168 209.04688 58.760418Q208.3125 59.416668 206.95312 59.416668L203.98438 59.416668ZM205.10938 55.432293L205.10938 58.494793L206.96875 58.494793Q207.76562 58.494793 208.21875 58.088543Q208.67188 57.682293 208.67188 56.963543Q208.67188 55.432293 206.98438 55.432293L205.10938 55.432293ZM205.10938 54.526043L206.8125 54.526043Q207.54688 54.526043 207.98438 54.166668Q208.4375 53.791668 208.4375 53.151043Q208.4375 52.447918 208.03125 52.135418Q207.625 51.807293 206.78125 51.807293L205.10938 51.807293L205.10938 54.526043ZM214.26562 59.416668L213.1875 59.416668L213.1875 52.197918L211.0 52.994793L211.0 52.010418L214.10938 50.838543L214.26562 50.838543L214.26562 59.416668Z" fill-rule="nonzero"/><path fill="#db4437" d="M233.0 49.916668C233.0 49.364384 233.44771 48.916668 234.0 48.916668L244.0 48.916668C244.55229 48.916668 245.0 49.364384 245.0 49.916668L245.0 59.916668C245.0 60.468952 244.55229 60.916668 244.0 60.916668L234.0 60.916668C233.44771 60.916668 233.0 60.468952 233.0 59.916668Z" fill-rule="nonzero"/><path fill="#757575" d="M253.98438 59.416668L253.98438 50.885418L256.78125 50.885418Q258.17188 50.885418 258.85938 51.463543Q259.5625 52.026043 259.5625 53.151043Q259.5625 53.760418 259.21875 54.229168Q258.89062 54.682293 258.29688 54.932293Q259.0 55.119793 259.39062 55.666668Q259.79688 56.197918 259.79688 56.947918Q259.79688 58.104168 259.04688 58.760418Q258.3125 59.416668 256.95312 59.416668L253.98438 59.416668ZM255.10938 55.432293L255.10938 58.494793L256.96875 58.494793Q257.76562 58.494793 258.21875 58.088543Q258.67188 57.682293 258.67188 56.963543Q258.67188 55.432293 256.98438 55.432293L255.10938 55.432293ZM255.10938 54.526043L256.8125 54.526043Q257.54688 54.526043 257.98438 54.166668Q258.4375 53.791668 258.4375 53.151043Q258.4375 52.447918 258.03125 52.135418Q257.625 51.807293 256.78125 51.807293L255.10938 51.807293L255.10938 54.526043ZM262.28125 54.619793L263.09375 54.619793Q263.875 54.604168 264.3125 54.213543Q264.75 53.822918 264.75 53.151043Q264.75 51.651043 263.25 51.651043Q262.54688 51.651043 262.125 52.057293Q261.71875 52.463543 261.71875 53.119793L260.625 53.119793Q260.625 52.104168 261.35938 51.432293Q262.10938 50.760418 263.25 50.760418Q264.45312 50.760418 265.14062 51.401043Q265.82812 52.041668 265.82812 53.182293Q265.82812 53.744793 265.46875 54.260418Q265.10938 54.776043 264.48438 55.041668Q265.1875 55.260418 265.5625 55.776043Q265.95312 56.291668 265.95312 57.041668Q265.95312 58.182293 265.20312 58.869793Q264.45312 59.541668 263.25 59.541668Q262.0625 59.541668 261.29688 58.885418Q260.54688 58.229168 260.54688 57.166668L261.64062 57.166668Q261.64062 57.838543 262.07812 58.244793Q262.51562 58.651043 263.26562 58.651043Q264.04688 58.651043 264.45312 58.244793Q264.875 57.822918 264.875 57.057293Q264.875 56.322918 264.42188 55.932293Q263.96875 55.526043 263.09375 55.510418L262.28125 55.510418L262.28125 54.619793Z" fill-rule="nonzero"/><path fill="#757575" d="M15.70625 33.05L15.70625 18.83125L20.346874 18.83125Q22.659374 18.83125 23.83125 19.784374Q25.003124 20.7375 25.003124 22.6125Q25.003124 23.6125 24.425 24.378124Q23.8625 25.14375 22.89375 25.565624Q24.034374 25.89375 24.70625 26.8Q25.378124 27.690624 25.378124 28.940624Q25.378124 30.8625 24.128124 31.95625Q22.89375 33.05 20.628124 33.05L15.70625 33.05ZM17.58125 26.39375L17.58125 31.51875L20.675 31.51875Q21.9875 31.51875 22.7375 30.846874Q23.4875 30.159374 23.4875 28.971874Q23.4875 26.39375 20.70625 26.39375L17.58125 26.39375ZM17.58125 24.89375L20.409374 24.89375Q21.64375 24.89375 22.378124 24.284374Q23.1125 23.659374 23.1125 22.6125Q23.1125 21.440624 22.425 20.909374Q21.753124 20.378124 20.346874 20.378124L17.58125 20.378124L17.58125 24.89375Z" fill-rule="nonzero"/><path fill="#757575" d="M41.753124 22.425L46.9875 22.425L46.9875 23.909374L41.753124 23.909374L41.753124 25.08125L47.534374 25.08125L47.534374 26.565624L41.753124 26.565624L41.753124 27.815624L49.8 27.815624L49.8 29.3L42.221874 29.3Q43.940624 31.64375 49.8 32.89375L49.253124 34.690624Q43.08125 33.20625 41.20625 30.003124Q39.33125 33.9875 33.003124 34.925L32.378124 33.284374Q38.2375 32.425 39.721874 29.3L32.3 29.3L32.3 27.815624L40.190624 27.815624L40.190624 26.565624L34.64375 26.565624L34.64375 25.08125L40.190624 25.08125L40.190624 23.909374L35.034374 23.909374L35.034374 22.425L40.190624 22.425L40.190624 20.8625L41.675 20.8625Q42.3 20.940624 41.753124 21.33125L41.753124 22.425ZM32.76875 18.753124L40.190624 18.753124L40.190624 16.95625L41.909374 16.95625Q42.690624 17.1125 41.9875 17.58125L41.9875 18.753124L49.33125 18.753124L49.33125 22.971874L47.76875 22.971874L47.76875 20.2375L34.33125 20.2375L34.33125 22.971874L32.76875 22.971874L32.76875 18.753124ZM67.53438 22.659374L65.425 22.659374L65.425 24.14375L69.01875 24.14375L69.01875 29.3L67.69063 29.3L67.69063 28.675L65.58125 28.675Q66.9875 31.4875 70.19063 33.05L69.25313 34.534374Q66.12813 32.7375 65.03438 30.2375Q63.940624 33.440624 60.346874 34.76875L59.64375 33.3625Q63.471874 31.95625 64.01875 28.675L61.909374 28.675L61.909374 29.534374L60.58125 29.534374L60.58125 24.14375L64.09688 24.14375L64.09688 22.659374L61.9875 22.659374L61.9875 21.565624Q61.20625 22.503124 60.034374 23.128124L59.175 21.8Q61.909374 20.315624 63.628124 16.878124L65.26875 17.1125Q65.50313 17.425 65.1125 17.503124Q66.9875 19.925 70.19063 21.33125L69.40938 22.7375Q68.55 22.425 67.53438 21.64375L67.53438 22.659374ZM56.909374 31.8Q56.596874 30.315624 56.284374 29.3L57.14375 29.14375Q57.6125 30.159374 57.846874 31.4875L56.909374 31.8ZM51.753124 32.971874Q52.378124 30.70625 52.378124 29.221874L53.39375 29.378124Q53.2375 31.878124 52.846874 33.3625L51.753124 32.971874ZM53.8625 32.58125Q53.8625 30.940624 53.70625 29.378124L54.565624 29.3Q54.8 30.784374 54.8 32.425L53.8625 32.58125ZM55.58125 33.20625L57.3 33.20625Q57.76875 33.20625 57.925 32.7375Q58.159374 32.1125 58.159374 31.253124L58.2375 28.20625L52.76875 28.20625L52.76875 17.659374L59.64375 17.659374L59.64375 18.909374L57.14375 18.909374L57.14375 20.628124L59.01875 20.628124L59.01875 21.878124L57.14375 21.878124L57.14375 23.753124L59.175 23.753124L59.175 25.003124L57.14375 25.003124L57.14375 26.95625L59.64375 26.95625L59.4875 31.409374Q59.409374 33.20625 59.096874 33.83125Q58.70625 34.690624 57.76875 34.690624L55.7375 34.690624L55.58125 33.20625ZM65.425 25.39375L65.425 27.425L67.69063 27.425L67.69063 25.39375L65.425 25.39375ZM64.09688 25.39375L61.909374 25.39375L61.909374 27.425L64.09688 27.425L64.09688 25.39375ZM55.89375 29.3Q56.440624 30.784374 56.440624 32.034374L55.503124 32.26875Q55.346874 30.471874 55.034374 29.378124L55.89375 29.3ZM55.815624 25.003124L54.096874 25.003124L54.096874 26.95625L55.815624 26.95625L55.815624 25.003124ZM55.815624 21.878124L54.096874 21.878124L54.096874 23.753124L55.815624 23.753124L55.815624 21.878124ZM55.815624 18.909374L54.096874 18.909374L54.096874 20.628124L55.815624 20.628124L55.815624 18.909374ZM67.14375 21.409374Q65.58125 20.315624 64.33125 18.51875Q63.39375 20.2375 62.14375 21.409374L67.14375 21.409374ZM80.58125 25.08125Q80.7375 31.01875 75.50313 34.3L74.175 32.815624Q78.78438 30.315624 78.78438 25.784374L78.78438 22.425L80.425 22.425Q81.12813 22.503124 80.58125 22.971874L80.58125 25.003124Q83.39375 22.89375 84.87813 20.8625L72.14375 21.33125L71.9875 19.534374L86.20625 19.14375L86.75313 18.9875L87.925 20.39375Q88.15938 20.70625 87.53438 20.628124Q85.19063 23.675 81.90938 26.33125L80.58125 25.08125ZM105.3 23.9875Q101.15938 32.58125 91.39375 33.05Q91.00313 34.065624 90.6125 33.20625L89.9875 31.175Q100.14375 30.940624 103.65938 22.815624L105.3 23.9875ZM94.28438 23.9875Q92.175 22.034374 90.3 20.784374L91.62813 19.14375Q93.26875 20.159374 95.76875 22.503124L94.28438 23.9875ZM106.9875 26.64375Q110.425 23.128124 111.3625 17.7375L113.31563 18.20625Q113.94063 18.3625 113.15938 18.83125Q112.69063 20.55 111.9875 22.190624L123.55 22.190624L123.55 23.909374L119.01875 23.909374Q118.31563 30.003124 113.15938 34.45625L111.3625 33.440624Q116.75313 29.14375 117.06563 23.909374L111.12813 23.909374Q110.1125 25.940624 108.55 27.503124L106.9875 26.64375ZM125.9875 26.64375L125.9875 24.925L143.40938 24.925L143.40938 26.64375L125.9875 26.64375ZM148.34688 23.675Q152.175 24.76875 156.08125 26.64375L155.14375 28.440624Q151.00313 26.33125 148.34688 25.628124L148.34688 33.753124L146.55 33.753124L146.55 18.128124L148.1125 18.128124Q149.05 18.20625 148.34688 18.753124L148.34688 23.675ZM177.8625 27.659374L182.2375 27.659374L182.2375 23.51875L177.8625 23.51875L177.8625 27.659374ZM182.2375 29.925L182.2375 29.14375L177.8625 29.14375L177.8625 30.003124L176.3 30.003124L176.3 22.034374L183.8 22.034374L183.8 29.925L182.2375 29.925ZM173.72188 32.1125L186.3 32.1125L186.3 19.378124L173.72188 19.378124L173.72188 32.1125ZM186.3 34.3L186.3 33.596874L173.72188 33.596874L173.72188 34.690624L172.15938 34.690624L172.15938 17.89375L187.8625 17.89375L187.8625 34.3L186.3 34.3ZM191.14375 26.4875Q195.83125 25.159374 199.50313 21.253124L201.3 21.565624Q201.6125 21.878124 201.06563 21.95625Q203.25313 24.45625 209.1125 25.940624L208.56563 27.659374Q205.75313 26.95625 203.95625 25.940624L203.95625 27.034374L196.14375 27.034374L196.14375 26.01875Q194.26875 27.346874 191.76875 28.128124L191.14375 26.4875ZM203.33125 25.55Q201.69063 24.690624 199.97188 22.815624Q198.87813 24.221874 196.84688 25.55L203.33125 25.55ZM191.14375 21.8Q193.01875 20.159374 194.1125 16.878124L195.75313 17.346874Q196.06563 17.659374 195.51875 17.7375L194.97188 18.83125L199.81563 18.83125L199.81563 20.08125L196.925 20.08125Q197.39375 20.940624 197.8625 22.1125L196.22188 22.58125Q195.83125 21.175 195.3625 20.08125L194.50313 20.08125Q193.56563 21.95625 192.2375 23.128124L191.14375 21.8ZM202.39375 18.83125L208.4875 18.83125L208.4875 20.08125L204.81563 20.08125Q205.44063 20.940624 205.83125 21.95625L204.19063 22.58125Q203.8 21.253124 203.175 20.08125L201.84688 20.08125L201.14375 21.33125L199.81563 20.55Q200.90938 18.83125 201.53438 16.64375L203.09688 17.1125Q203.40938 17.425 202.8625 17.503124L202.39375 18.83125ZM195.90938 29.690624L195.90938 32.425L204.34688 32.425L204.34688 29.690624L195.90938 29.690624ZM194.34688 28.440624L205.90938 28.440624L205.90938 34.534374L204.34688 34.534374L204.34688 33.675L195.90938 33.675L195.90938 34.76875L194.34688 34.76875L194.34688 28.440624ZM226.84688 22.1125Q225.9875 23.20625 224.65938 24.221874L223.4875 23.128124Q224.97188 21.95625 225.675 20.8625L227.15938 21.8Q227.39375 22.1125 226.84688 22.1125ZM225.3625 24.6125Q227.15938 25.471874 228.64375 26.721874L227.47188 28.128124Q225.9875 26.8 224.34688 25.70625L225.3625 24.6125ZM216.14375 25.784374Q214.89375 27.1125 213.33125 28.3625Q213.25313 28.909374 212.94063 28.596874L211.84688 27.26875Q213.72188 26.096874 215.12813 24.690624L216.14375 25.784374ZM216.3 26.33125L217.39375 26.33125L218.8 24.925Q218.01875 24.065624 216.45625 22.971874L217.31563 21.95625L217.8625 22.346874L219.34688 20.315624L220.44063 21.175Q220.75313 21.565624 220.20625 21.4875L218.87813 23.05L219.81563 23.909374L221.925 21.565624L222.94063 22.503124Q223.25313 22.89375 222.62813 22.815624L219.1125 26.33125L222.15938 25.940624L221.37813 24.925L222.55 24.221874Q223.56563 25.315624 224.50313 27.190624L223.175 27.971874L222.78438 27.1125L220.83125 27.346874L220.83125 29.3L228.95625 29.3L228.95625 30.784374L220.83125 30.784374L220.83125 34.690624L219.26875 34.690624L219.26875 30.784374L211.22188 30.784374L211.22188 29.3L219.26875 29.3L219.26875 27.58125L216.925 27.7375Q216.84688 28.284374 216.53438 27.971874L216.3 26.33125ZM228.01875 20.159374L212.15938 20.159374L212.15938 18.675L219.26875 18.675L219.26875 16.878124L220.75313 16.878124Q221.53438 17.034374 220.83125 17.503124L220.83125 18.675L228.01875 18.675L228.01875 20.159374ZM213.4875 21.096874Q214.89375 21.8 215.9875 22.815624L214.89375 24.14375Q213.87813 23.128124 212.47188 22.26875L213.4875 21.096874Z" fill-rule="nonzero"/></svg>