<svg version="1.1" viewBox="0.0 0.0 450.0 281.0" fill="none" stroke="none" stroke-linecap="square" stroke-miterlimit="10" width="450" height="281" xmlns:xlink="http://www.w3.org/1999/xlink" xmlns="http://www.w3.org/2000/svg"><path fill="#ffffff" d="M0 0L450.0 0L450.0 281.0L0 281.0L0 0Z" fill-rule="nonzero"/><path stroke="#333333" stroke-width="1.0" stroke-linecap="butt" d="M50.5 245.5L435.5 245.5" fill-rule="nonzero"/><path stroke="#cccccc" stroke-width="1.0" stroke-linecap="butt" d="M50.5 204.5L435.5 204.5" fill-rule="nonzero"/><path stroke="#cccccc" stroke-width="1.0" stroke-linecap="butt" d="M50.5 162.5L435.5 162.5" fill-rule="nonzero"/><path stroke="#cccccc" stroke-width="1.0" stroke-linecap="butt" d="M50.5 120.5L435.5 120.5" fill-rule="nonzero"/><path stroke="#cccccc" stroke-width="1.0" stroke-linecap="butt" d="M50.5 79.5L435.5 79.5" fill-rule="nonzero"/><clipPath id="id_0"><path d="M50.05 79.28333L435.95 79.28333L435.95 245.95L50.05 245.95L50.05 79.28333Z" clip-rule="nonzero"/></clipPath><path stroke="#000000" stroke-width="2.0" stroke-linecap="butt" stroke-opacity="0.0" clip-path="url(#id_0)" d="M127.0 246.0L92.0 246.0L92.0 81.0C92.0 79.89543 92.89543 79.0 94.0 79.0L125.0 79.0C126.10457 79.0 127.0 79.89543 127.0 81.0Z" fill-rule="nonzero"/><path fill="#4285f4" clip-path="url(#id_0)" d="M127.0 246.0L92.0 246.0L92.0 81.0C92.0 79.89543 92.89543 79.0 94.0 79.0L125.0 79.0C126.10457 79.0 127.0 79.89543 127.0 81.0Z" fill-rule="nonzero"/><path stroke="#000000" stroke-width="2.0" stroke-linecap="butt" stroke-opacity="0.0" clip-path="url(#id_0)" d="M242.0 246.0L207.0 246.0L207.0 127.0C207.0 125.89543 207.89543 125.0 209.0 125.0L240.0 125.0C241.10457 125.0 242.0 125.89543 242.0 127.0Z" fill-rule="nonzero"/><path fill="#4285f4" clip-path="url(#id_0)" d="M242.0 246.0L207.0 246.0L207.0 127.0C207.0 125.89543 207.89543 125.0 209.0 125.0L240.0 125.0C241.10457 125.0 242.0 125.89543 242.0 127.0Z" fill-rule="nonzero"/><path stroke="#000000" stroke-width="2.0" stroke-linecap="butt" stroke-opacity="0.0" clip-path="url(#id_0)" d="M357.0 246.0L322.0 246.0L322.0 246.0L357.0 246.0Z" fill-rule="nonzero"/><path fill="#4285f4" clip-path="url(#id_0)" d="M357.0 246.0L322.0 246.0L322.0 246.0L357.0 246.0Z" fill-rule="nonzero"/><path stroke="#000000" stroke-width="2.0" stroke-linecap="butt" stroke-opacity="0.0" clip-path="url(#id_0)" d="M164.0 246.0L129.0 246.0L129.0 98.0C129.0 96.89543 129.89543 96.0 131.0 96.0L162.0 96.0C163.10457 96.0 164.0 96.89543 164.0 98.0Z" fill-rule="nonzero"/><path fill="#db4437" clip-path="url(#id_0)" d="M164.0 246.0L129.0 246.0L129.0 98.0C129.0 96.89543 129.89543 96.0 131.0 96.0L162.0 96.0C163.10457 96.0 164.0 96.89543 164.0 98.0Z" fill-rule="nonzero"/><path stroke="#000000" stroke-width="2.0" stroke-linecap="butt" stroke-opacity="0.0" clip-path="url(#id_0)" d="M279.0 246.0L244.0 246.0L244.0 98.0C244.0 96.89543 244.89543 96.0 246.0 96.0L277.0 96.0C278.10458 96.0 279.0 96.89543 279.0 98.0Z" fill-rule="nonzero"/><path fill="#db4437" clip-path="url(#id_0)" d="M279.0 246.0L244.0 246.0L244.0 98.0C244.0 96.89543 244.89543 96.0 246.0 96.0L277.0 96.0C278.10458 96.0 279.0 96.89543 279.0 98.0Z" fill-rule="nonzero"/><path stroke="#000000" stroke-width="2.0" stroke-linecap="butt" stroke-opacity="0.0" clip-path="url(#id_0)" d="M394.0 246.0L359.0 246.0L359.0 148.0C359.0 146.89543 359.89542 146.0 361.0 146.0L392.0 146.0C393.10458 146.0 394.0 146.89543 394.0 148.0Z" fill-rule="nonzero"/><path fill="#db4437" clip-path="url(#id_0)" d="M394.0 246.0L359.0 246.0L359.0 148.0C359.0 146.89543 359.89542 146.0 361.0 146.0L392.0 146.0C393.10458 146.0 394.0 146.89543 394.0 148.0Z" fill-rule="nonzero"/><path stroke="#4285f4" stroke-width="3.0" stroke-linejoin="round" stroke-linecap="round" d="M98.765625 96.083336L97.6875 96.083336L97.6875 88.864586L95.5 89.66146L95.5 88.677086L98.609375 87.50521L98.765625 87.50521L98.765625 96.083336ZM107.5625 92.44271Q107.5625 94.34896 106.90625 95.28646Q106.265625 96.208336 104.875 96.208336Q103.515625 96.208336 102.859375 95.302086Q102.203125 94.395836 102.171875 92.583336L102.171875 91.145836Q102.171875 89.25521 102.8125 88.34896Q103.46875 87.427086 104.859375 87.427086Q106.234375 87.427086 106.890625 88.31771Q107.546875 89.19271 107.5625 91.03646L107.5625 92.44271ZM106.46875 90.958336Q106.46875 89.583336 106.078125 88.958336Q105.703125 88.31771 104.859375 88.31771Q104.03125 88.31771 103.640625 88.958336Q103.265625 89.583336 103.265625 90.88021L103.265625 92.614586Q103.265625 93.989586 103.65625 94.66146Q104.0625 95.31771 104.875 95.31771Q105.671875 95.31771 106.0625 94.69271Q106.453125 94.06771 106.46875 92.739586L106.46875 90.958336ZM114.5625 92.44271Q114.5625 94.34896 113.90625 95.28646Q113.265625 96.208336 111.875 96.208336Q110.515625 96.208336 109.859375 95.302086Q109.203125 94.395836 109.171875 92.583336L109.171875 91.145836Q109.171875 89.25521 109.8125 88.34896Q110.46875 87.427086 111.859375 87.427086Q113.234375 87.427086 113.890625 88.31771Q114.546875 89.19271 114.5625 91.03646L114.5625 92.44271ZM113.46875 90.958336Q113.46875 89.583336 113.078125 88.958336Q112.703125 88.31771 111.859375 88.31771Q111.03125 88.31771 110.640625 88.958336Q110.265625 89.583336 110.265625 90.88021L110.265625 92.614586Q110.265625 93.989586 110.65625 94.66146Q111.0625 95.31771 111.875 95.31771Q112.671875 95.31771 113.0625 94.69271Q113.453125 94.06771 113.46875 92.739586L113.46875 90.958336ZM116.109375 89.19271Q116.109375 88.427086 116.59375 87.927086Q117.09375 87.427086 117.859375 87.427086Q118.640625 87.427086 119.125 87.927086Q119.609375 88.427086 119.609375 89.22396L119.609375 89.645836Q119.609375 90.41146 119.109375 90.91146Q118.625 91.395836 117.875 91.395836Q117.109375 91.395836 116.609375 90.91146Q116.109375 90.41146 116.109375 89.59896L116.109375 89.19271ZM116.921875 89.645836Q116.921875 90.09896 117.171875 90.395836Q117.4375 90.69271 117.875 90.69271Q118.296875 90.69271 118.546875 90.41146Q118.796875 90.114586 118.796875 89.614586L118.796875 89.19271Q118.796875 88.739586 118.546875 88.44271Q118.296875 88.13021 117.859375 88.13021Q117.421875 88.13021 117.171875 88.44271Q116.921875 88.739586 116.921875 89.208336L116.921875 89.645836ZM120.265625 93.989586Q120.265625 93.22396 120.75 92.739586Q121.25 92.239586 122.015625 92.239586Q122.78125 92.239586 123.265625 92.739586Q123.765625 93.22396 123.765625 94.03646L123.765625 94.44271Q123.765625 95.208336 123.28125 95.708336Q122.796875 96.208336 122.03125 96.208336Q121.265625 96.208336 120.765625 95.72396Q120.265625 95.22396 120.265625 94.41146L120.265625 93.989586ZM121.078125 94.44271Q121.078125 94.91146 121.328125 95.208336Q121.59375 95.50521 122.03125 95.50521Q122.453125 95.50521 122.703125 95.22396Q122.953125 94.927086 122.953125 94.427086L122.953125 93.989586Q122.953125 93.520836 122.6875 93.239586Q122.4375 92.94271 122.015625 92.94271Q121.59375 92.94271 121.328125 93.239586Q121.078125 93.520836 121.078125 94.020836L121.078125 94.44271ZM118.125 95.44271L117.5 95.052086L121.671875 88.38021L122.28125 88.770836L118.125 95.44271Z" fill-rule="nonzero"/><path fill="#ffffff" d="M98.765625 96.083336L97.6875 96.083336L97.6875 88.864586L95.5 89.66146L95.5 88.677086L98.609375 87.50521L98.765625 87.50521L98.765625 96.083336ZM107.5625 92.44271Q107.5625 94.34896 106.90625 95.28646Q106.265625 96.208336 104.875 96.208336Q103.515625 96.208336 102.859375 95.302086Q102.203125 94.395836 102.171875 92.583336L102.171875 91.145836Q102.171875 89.25521 102.8125 88.34896Q103.46875 87.427086 104.859375 87.427086Q106.234375 87.427086 106.890625 88.31771Q107.546875 89.19271 107.5625 91.03646L107.5625 92.44271ZM106.46875 90.958336Q106.46875 89.583336 106.078125 88.958336Q105.703125 88.31771 104.859375 88.31771Q104.03125 88.31771 103.640625 88.958336Q103.265625 89.583336 103.265625 90.88021L103.265625 92.614586Q103.265625 93.989586 103.65625 94.66146Q104.0625 95.31771 104.875 95.31771Q105.671875 95.31771 106.0625 94.69271Q106.453125 94.06771 106.46875 92.739586L106.46875 90.958336ZM114.5625 92.44271Q114.5625 94.34896 113.90625 95.28646Q113.265625 96.208336 111.875 96.208336Q110.515625 96.208336 109.859375 95.302086Q109.203125 94.395836 109.171875 92.583336L109.171875 91.145836Q109.171875 89.25521 109.8125 88.34896Q110.46875 87.427086 111.859375 87.427086Q113.234375 87.427086 113.890625 88.31771Q114.546875 89.19271 114.5625 91.03646L114.5625 92.44271ZM113.46875 90.958336Q113.46875 89.583336 113.078125 88.958336Q112.703125 88.31771 111.859375 88.31771Q111.03125 88.31771 110.640625 88.958336Q110.265625 89.583336 110.265625 90.88021L110.265625 92.614586Q110.265625 93.989586 110.65625 94.66146Q111.0625 95.31771 111.875 95.31771Q112.671875 95.31771 113.0625 94.69271Q113.453125 94.06771 113.46875 92.739586L113.46875 90.958336ZM116.109375 89.19271Q116.109375 88.427086 116.59375 87.927086Q117.09375 87.427086 117.859375 87.427086Q118.640625 87.427086 119.125 87.927086Q119.609375 88.427086 119.609375 89.22396L119.609375 89.645836Q119.609375 90.41146 119.109375 90.91146Q118.625 91.395836 117.875 91.395836Q117.109375 91.395836 116.609375 90.91146Q116.109375 90.41146 116.109375 89.59896L116.109375 89.19271ZM116.921875 89.645836Q116.921875 90.09896 117.171875 90.395836Q117.4375 90.69271 117.875 90.69271Q118.296875 90.69271 118.546875 90.41146Q118.796875 90.114586 118.796875 89.614586L118.796875 89.19271Q118.796875 88.739586 118.546875 88.44271Q118.296875 88.13021 117.859375 88.13021Q117.421875 88.13021 117.171875 88.44271Q116.921875 88.739586 116.921875 89.208336L116.921875 89.645836ZM120.265625 93.989586Q120.265625 93.22396 120.75 92.739586Q121.25 92.239586 122.015625 92.239586Q122.78125 92.239586 123.265625 92.739586Q123.765625 93.22396 123.765625 94.03646L123.765625 94.44271Q123.765625 95.208336 123.28125 95.708336Q122.796875 96.208336 122.03125 96.208336Q121.265625 96.208336 120.765625 95.72396Q120.265625 95.22396 120.265625 94.41146L120.265625 93.989586ZM121.078125 94.44271Q121.078125 94.91146 121.328125 95.208336Q121.59375 95.50521 122.03125 95.50521Q122.453125 95.50521 122.703125 95.22396Q122.953125 94.927086 122.953125 94.427086L122.953125 93.989586Q122.953125 93.520836 122.6875 93.239586Q122.4375 92.94271 122.015625 92.94271Q121.59375 92.94271 121.328125 93.239586Q121.078125 93.520836 121.078125 94.020836L121.078125 94.44271ZM118.125 95.44271L117.5 95.052086L121.671875 88.38021L122.28125 88.770836L118.125 95.44271Z" fill-rule="nonzero"/><path stroke="#4285f4" stroke-width="3.0" stroke-linejoin="round" stroke-linecap="round" d="M219.21875 133.616L215.6875 141.53787L214.54688 141.53787L218.0625 133.89725L213.45312 133.89725L213.45312 133.00662L219.21875 133.00662L219.21875 133.616ZM222.28125 136.741L223.09375 136.741Q223.875 136.72537 224.3125 136.33475Q224.75 135.94412 224.75 135.27225Q224.75 133.77225 223.25 133.77225Q222.54688 133.77225 222.125 134.1785Q221.71875 134.58475 221.71875 135.241L220.625 135.241Q220.625 134.22537 221.35938 133.5535Q222.10938 132.88162 223.25 132.88162Q224.45312 132.88162 225.14062 133.52225Q225.82812 134.16287 225.82812 135.3035Q225.82812 135.866 225.46875 136.38162Q225.10938 136.89725 224.48438 137.16287Q225.1875 137.38162 225.5625 137.89725Q225.95312 138.41287 225.95312 139.16287Q225.95312 140.3035 225.20312 140.991Q224.45312 141.66287 223.25 141.66287Q222.0625 141.66287 221.29688 141.00662Q220.54688 140.35037 220.54688 139.28787L221.64062 139.28787Q221.64062 139.95975 222.07812 140.366Q222.51562 140.77225 223.26562 140.77225Q224.04688 140.77225 224.45312 140.366Q224.875 139.94412 224.875 139.1785Q224.875 138.44412 224.42188 138.0535Q223.96875 137.64725 223.09375 137.63162L222.28125 137.63162L222.28125 136.741ZM227.60938 134.64725Q227.60938 133.88162 228.09375 133.38162Q228.59375 132.88162 229.35938 132.88162Q230.14062 132.88162 230.625 133.38162Q231.10938 133.88162 231.10938 134.6785L231.10938 135.10037Q231.10938 135.866 230.60938 136.366Q230.125 136.85037 229.375 136.85037Q228.60938 136.85037 228.10938 136.366Q227.60938 135.866 227.60938 135.0535L227.60938 134.64725ZM228.42188 135.10037Q228.42188 135.5535 228.67188 135.85037Q228.9375 136.14725 229.375 136.14725Q229.79688 136.14725 230.04688 135.866Q230.29688 135.56912 230.29688 135.06912L230.29688 134.64725Q230.29688 134.19412 230.04688 133.89725Q229.79688 133.58475 229.35938 133.58475Q228.92188 133.58475 228.67188 133.89725Q228.42188 134.19412 228.42188 134.66287L228.42188 135.10037ZM231.76562 139.44412Q231.76562 138.6785 232.25 138.19412Q232.75 137.69412 233.51562 137.69412Q234.28125 137.69412 234.76562 138.19412Q235.26562 138.6785 235.26562 139.491L235.26562 139.89725Q235.26562 140.66287 234.78125 141.16287Q234.29688 141.66287 233.53125 141.66287Q232.76562 141.66287 232.26562 141.1785Q231.76562 140.6785 231.76562 139.866L231.76562 139.44412ZM232.57812 139.89725Q232.57812 140.366 232.82812 140.66287Q233.09375 140.95975 233.53125 140.95975Q233.95312 140.95975 234.20312 140.6785Q234.45312 140.38162 234.45312 139.88162L234.45312 139.44412Q234.45312 138.97537 234.1875 138.69412Q233.9375 138.39725 233.51562 138.39725Q233.09375 138.39725 232.82812 138.69412Q232.57812 138.97537 232.57812 139.47537L232.57812 139.89725ZM229.625 140.89725L229.0 140.50662L233.17188 133.83475L233.78125 134.22537L229.625 140.89725Z" fill-rule="nonzero"/><path fill="#ffffff" d="M219.21875 133.616L215.6875 141.53787L214.54688 141.53787L218.0625 133.89725L213.45312 133.89725L213.45312 133.00662L219.21875 133.00662L219.21875 133.616ZM222.28125 136.741L223.09375 136.741Q223.875 136.72537 224.3125 136.33475Q224.75 135.94412 224.75 135.27225Q224.75 133.77225 223.25 133.77225Q222.54688 133.77225 222.125 134.1785Q221.71875 134.58475 221.71875 135.241L220.625 135.241Q220.625 134.22537 221.35938 133.5535Q222.10938 132.88162 223.25 132.88162Q224.45312 132.88162 225.14062 133.52225Q225.82812 134.16287 225.82812 135.3035Q225.82812 135.866 225.46875 136.38162Q225.10938 136.89725 224.48438 137.16287Q225.1875 137.38162 225.5625 137.89725Q225.95312 138.41287 225.95312 139.16287Q225.95312 140.3035 225.20312 140.991Q224.45312 141.66287 223.25 141.66287Q222.0625 141.66287 221.29688 141.00662Q220.54688 140.35037 220.54688 139.28787L221.64062 139.28787Q221.64062 139.95975 222.07812 140.366Q222.51562 140.77225 223.26562 140.77225Q224.04688 140.77225 224.45312 140.366Q224.875 139.94412 224.875 139.1785Q224.875 138.44412 224.42188 138.0535Q223.96875 137.64725 223.09375 137.63162L222.28125 137.63162L222.28125 136.741ZM227.60938 134.64725Q227.60938 133.88162 228.09375 133.38162Q228.59375 132.88162 229.35938 132.88162Q230.14062 132.88162 230.625 133.38162Q231.10938 133.88162 231.10938 134.6785L231.10938 135.10037Q231.10938 135.866 230.60938 136.366Q230.125 136.85037 229.375 136.85037Q228.60938 136.85037 228.10938 136.366Q227.60938 135.866 227.60938 135.0535L227.60938 134.64725ZM228.42188 135.10037Q228.42188 135.5535 228.67188 135.85037Q228.9375 136.14725 229.375 136.14725Q229.79688 136.14725 230.04688 135.866Q230.29688 135.56912 230.29688 135.06912L230.29688 134.64725Q230.29688 134.19412 230.04688 133.89725Q229.79688 133.58475 229.35938 133.58475Q228.92188 133.58475 228.67188 133.89725Q228.42188 134.19412 228.42188 134.66287L228.42188 135.10037ZM231.76562 139.44412Q231.76562 138.6785 232.25 138.19412Q232.75 137.69412 233.51562 137.69412Q234.28125 137.69412 234.76562 138.19412Q235.26562 138.6785 235.26562 139.491L235.26562 139.89725Q235.26562 140.66287 234.78125 141.16287Q234.29688 141.66287 233.53125 141.66287Q232.76562 141.66287 232.26562 141.1785Q231.76562 140.6785 231.76562 139.866L231.76562 139.44412ZM232.57812 139.89725Q232.57812 140.366 232.82812 140.66287Q233.09375 140.95975 233.53125 140.95975Q233.95312 140.95975 234.20312 140.6785Q234.45312 140.38162 234.45312 139.88162L234.45312 139.44412Q234.45312 138.97537 234.1875 138.69412Q233.9375 138.39725 233.51562 138.39725Q233.09375 138.39725 232.82812 138.69412Q232.57812 138.97537 232.57812 139.47537L232.57812 139.89725ZM229.625 140.89725L229.0 140.50662L233.17188 133.83475L233.78125 134.22537L229.625 140.89725Z" fill-rule="nonzero"/><path stroke="#ffffff" stroke-width="3.0" stroke-linejoin="round" stroke-linecap="round" d="M337.5625 227.30937Q337.5625 229.21562 336.90625 230.15312Q336.26562 231.075 334.875 231.075Q333.51562 231.075 332.85938 230.16875Q332.20312 229.2625 332.17188 227.45L332.17188 226.0125Q332.17188 224.12187 332.8125 223.21562Q333.46875 222.29375 334.85938 222.29375Q336.23438 222.29375 336.89062 223.18437Q337.54688 224.05937 337.5625 225.90312L337.5625 227.30937ZM336.46875 225.825Q336.46875 224.45 336.07812 223.825Q335.70312 223.18437 334.85938 223.18437Q334.03125 223.18437 333.64062 223.825Q333.26562 224.45 333.26562 225.74687L333.26562 227.48125Q333.26562 228.85625 333.65625 229.52812Q334.0625 230.18437 334.875 230.18437Q335.67188 230.18437 336.0625 229.55937Q336.45312 228.93437 336.46875 227.60625L336.46875 225.825ZM339.10938 224.05937Q339.10938 223.29375 339.59375 222.79375Q340.09375 222.29375 340.85938 222.29375Q341.64062 222.29375 342.125 222.79375Q342.60938 223.29375 342.60938 224.09062L342.60938 224.5125Q342.60938 225.27812 342.10938 225.77812Q341.625 226.2625 340.875 226.2625Q340.10938 226.2625 339.60938 225.77812Q339.10938 225.27812 339.10938 224.46562L339.10938 224.05937ZM339.92188 224.5125Q339.92188 224.96562 340.17188 225.2625Q340.4375 225.55937 340.875 225.55937Q341.29688 225.55937 341.54688 225.27812Q341.79688 224.98125 341.79688 224.48125L341.79688 224.05937Q341.79688 223.60625 341.54688 223.30937Q341.29688 222.99687 340.85938 222.99687Q340.42188 222.99687 340.17188 223.30937Q339.92188 223.60625 339.92188 224.075L339.92188 224.5125ZM343.26562 228.85625Q343.26562 228.09062 343.75 227.60625Q344.25 227.10625 345.01562 227.10625Q345.78125 227.10625 346.26562 227.60625Q346.76562 228.09062 346.76562 228.90312L346.76562 229.30937Q346.76562 230.075 346.28125 230.575Q345.79688 231.075 345.03125 231.075Q344.26562 231.075 343.76562 230.59062Q343.26562 230.09062 343.26562 229.27812L343.26562 228.85625ZM344.07812 229.30937Q344.07812 229.77812 344.32812 230.075Q344.59375 230.37187 345.03125 230.37187Q345.45312 230.37187 345.70312 230.09062Q345.95312 229.79375 345.95312 229.29375L345.95312 228.85625Q345.95312 228.3875 345.6875 228.10625Q345.4375 227.80937 345.01562 227.80937Q344.59375 227.80937 344.32812 228.10625Q344.07812 228.3875 344.07812 228.8875L344.07812 229.30937ZM341.125 230.30937L340.5 229.91875L344.67188 223.24687L345.28125 223.6375L341.125 230.30937Z" fill-rule="nonzero"/><path fill="#4285f4" d="M337.5625 227.30937Q337.5625 229.21562 336.90625 230.15312Q336.26562 231.075 334.875 231.075Q333.51562 231.075 332.85938 230.16875Q332.20312 229.2625 332.17188 227.45L332.17188 226.0125Q332.17188 224.12187 332.8125 223.21562Q333.46875 222.29375 334.85938 222.29375Q336.23438 222.29375 336.89062 223.18437Q337.54688 224.05937 337.5625 225.90312L337.5625 227.30937ZM336.46875 225.825Q336.46875 224.45 336.07812 223.825Q335.70312 223.18437 334.85938 223.18437Q334.03125 223.18437 333.64062 223.825Q333.26562 224.45 333.26562 225.74687L333.26562 227.48125Q333.26562 228.85625 333.65625 229.52812Q334.0625 230.18437 334.875 230.18437Q335.67188 230.18437 336.0625 229.55937Q336.45312 228.93437 336.46875 227.60625L336.46875 225.825ZM339.10938 224.05937Q339.10938 223.29375 339.59375 222.79375Q340.09375 222.29375 340.85938 222.29375Q341.64062 222.29375 342.125 222.79375Q342.60938 223.29375 342.60938 224.09062L342.60938 224.5125Q342.60938 225.27812 342.10938 225.77812Q341.625 226.2625 340.875 226.2625Q340.10938 226.2625 339.60938 225.77812Q339.10938 225.27812 339.10938 224.46562L339.10938 224.05937ZM339.92188 224.5125Q339.92188 224.96562 340.17188 225.2625Q340.4375 225.55937 340.875 225.55937Q341.29688 225.55937 341.54688 225.27812Q341.79688 224.98125 341.79688 224.48125L341.79688 224.05937Q341.79688 223.60625 341.54688 223.30937Q341.29688 222.99687 340.85938 222.99687Q340.42188 222.99687 340.17188 223.30937Q339.92188 223.60625 339.92188 224.075L339.92188 224.5125ZM343.26562 228.85625Q343.26562 228.09062 343.75 227.60625Q344.25 227.10625 345.01562 227.10625Q345.78125 227.10625 346.26562 227.60625Q346.76562 228.09062 346.76562 228.90312L346.76562 229.30937Q346.76562 230.075 346.28125 230.575Q345.79688 231.075 345.03125 231.075Q344.26562 231.075 343.76562 230.59062Q343.26562 230.09062 343.26562 229.27812L343.26562 228.85625ZM344.07812 229.30937Q344.07812 229.77812 344.32812 230.075Q344.59375 230.37187 345.03125 230.37187Q345.45312 230.37187 345.70312 230.09062Q345.95312 229.79375 345.95312 229.29375L345.95312 228.85625Q345.95312 228.3875 345.6875 228.10625Q345.4375 227.80937 345.01562 227.80937Q344.59375 227.80937 344.32812 228.10625Q344.07812 228.3875 344.07812 228.8875L344.07812 229.30937ZM341.125 230.30937L340.5 229.91875L344.67188 223.24687L345.28125 223.6375L341.125 230.30937Z" fill-rule="nonzero"/><path stroke="#db4437" stroke-width="3.0" stroke-linejoin="round" stroke-linecap="round" d="M139.85938 109.0Q139.53125 109.40625 139.04688 109.65625Q138.57812 109.890625 138.01562 109.890625Q137.28125 109.890625 136.73438 109.53125Q136.1875 109.171875 135.89062 108.515625Q135.59375 107.84375 135.59375 107.046875Q135.59375 106.203125 135.90625 105.515625Q136.23438 104.828125 136.82812 104.46875Q137.4375 104.09375 138.23438 104.09375Q139.5 104.09375 140.21875 105.046875Q140.95312 106.0 140.95312 107.625L140.95312 107.9375Q140.95312 110.4375 139.96875 111.578125Q138.98438 112.71875 137.0 112.75L136.78125 112.75L136.78125 111.84375L137.01562 111.84375Q138.35938 111.8125 139.07812 111.140625Q139.79688 110.46875 139.85938 109.0ZM138.1875 109.0Q138.73438 109.0 139.1875 108.671875Q139.65625 108.328125 139.875 107.84375L139.875 107.40625Q139.875 106.34375 139.40625 105.671875Q138.9375 105.0 138.23438 105.0Q137.51562 105.0 137.07812 105.546875Q136.65625 106.09375 136.65625 107.0Q136.65625 107.875 137.0625 108.4375Q137.48438 109.0 138.1875 109.0ZM148.0625 109.109375Q148.0625 111.015625 147.40625 111.953125Q146.76562 112.875 145.375 112.875Q144.01562 112.875 143.35938 111.96875Q142.70312 111.0625 142.67188 109.25L142.67188 107.8125Q142.67188 105.921875 143.3125 105.015625Q143.96875 104.09375 145.35938 104.09375Q146.73438 104.09375 147.39062 104.984375Q148.04688 105.859375 148.0625 107.703125L148.0625 109.109375ZM146.96875 107.625Q146.96875 106.25 146.57812 105.625Q146.20312 104.984375 145.35938 104.984375Q144.53125 104.984375 144.14062 105.625Q143.76562 106.25 143.76562 107.546875L143.76562 109.28125Q143.76562 110.65625 144.15625 111.328125Q144.5625 111.984375 145.375 111.984375Q146.17188 111.984375 146.5625 111.359375Q146.95312 110.734375 146.96875 109.40625L146.96875 107.625ZM149.60938 105.859375Q149.60938 105.09375 150.09375 104.59375Q150.59375 104.09375 151.35938 104.09375Q152.14062 104.09375 152.625 104.59375Q153.10938 105.09375 153.10938 105.890625L153.10938 106.3125Q153.10938 107.078125 152.60938 107.578125Q152.125 108.0625 151.375 108.0625Q150.60938 108.0625 150.10938 107.578125Q149.60938 107.078125 149.60938 106.265625L149.60938 105.859375ZM150.42188 106.3125Q150.42188 106.765625 150.67188 107.0625Q150.9375 107.359375 151.375 107.359375Q151.79688 107.359375 152.04688 107.078125Q152.29688 106.78125 152.29688 106.28125L152.29688 105.859375Q152.29688 105.40625 152.04688 105.109375Q151.79688 104.796875 151.35938 104.796875Q150.92188 104.796875 150.67188 105.109375Q150.42188 105.40625 150.42188 105.875L150.42188 106.3125ZM153.76562 110.65625Q153.76562 109.890625 154.25 109.40625Q154.75 108.90625 155.51562 108.90625Q156.28125 108.90625 156.76562 109.40625Q157.26562 109.890625 157.26562 110.703125L157.26562 111.109375Q157.26562 111.875 156.78125 112.375Q156.29688 112.875 155.53125 112.875Q154.76562 112.875 154.26562 112.390625Q153.76562 111.890625 153.76562 111.078125L153.76562 110.65625ZM154.57812 111.109375Q154.57812 111.578125 154.82812 111.875Q155.09375 112.171875 155.53125 112.171875Q155.95312 112.171875 156.20312 111.890625Q156.45312 111.59375 156.45312 111.09375L156.45312 110.65625Q156.45312 110.1875 156.1875 109.90625Q155.9375 109.609375 155.51562 109.609375Q155.09375 109.609375 154.82812 109.90625Q154.57812 110.1875 154.57812 110.6875L154.57812 111.109375ZM151.625 112.109375L151.0 111.71875L155.17188 105.046875L155.78125 105.4375L151.625 112.109375Z" fill-rule="nonzero"/><path fill="#ffffff" d="M139.85938 109.0Q139.53125 109.40625 139.04688 109.65625Q138.57812 109.890625 138.01562 109.890625Q137.28125 109.890625 136.73438 109.53125Q136.1875 109.171875 135.89062 108.515625Q135.59375 107.84375 135.59375 107.046875Q135.59375 106.203125 135.90625 105.515625Q136.23438 104.828125 136.82812 104.46875Q137.4375 104.09375 138.23438 104.09375Q139.5 104.09375 140.21875 105.046875Q140.95312 106.0 140.95312 107.625L140.95312 107.9375Q140.95312 110.4375 139.96875 111.578125Q138.98438 112.71875 137.0 112.75L136.78125 112.75L136.78125 111.84375L137.01562 111.84375Q138.35938 111.8125 139.07812 111.140625Q139.79688 110.46875 139.85938 109.0ZM138.1875 109.0Q138.73438 109.0 139.1875 108.671875Q139.65625 108.328125 139.875 107.84375L139.875 107.40625Q139.875 106.34375 139.40625 105.671875Q138.9375 105.0 138.23438 105.0Q137.51562 105.0 137.07812 105.546875Q136.65625 106.09375 136.65625 107.0Q136.65625 107.875 137.0625 108.4375Q137.48438 109.0 138.1875 109.0ZM148.0625 109.109375Q148.0625 111.015625 147.40625 111.953125Q146.76562 112.875 145.375 112.875Q144.01562 112.875 143.35938 111.96875Q142.70312 111.0625 142.67188 109.25L142.67188 107.8125Q142.67188 105.921875 143.3125 105.015625Q143.96875 104.09375 145.35938 104.09375Q146.73438 104.09375 147.39062 104.984375Q148.04688 105.859375 148.0625 107.703125L148.0625 109.109375ZM146.96875 107.625Q146.96875 106.25 146.57812 105.625Q146.20312 104.984375 145.35938 104.984375Q144.53125 104.984375 144.14062 105.625Q143.76562 106.25 143.76562 107.546875L143.76562 109.28125Q143.76562 110.65625 144.15625 111.328125Q144.5625 111.984375 145.375 111.984375Q146.17188 111.984375 146.5625 111.359375Q146.95312 110.734375 146.96875 109.40625L146.96875 107.625ZM149.60938 105.859375Q149.60938 105.09375 150.09375 104.59375Q150.59375 104.09375 151.35938 104.09375Q152.14062 104.09375 152.625 104.59375Q153.10938 105.09375 153.10938 105.890625L153.10938 106.3125Q153.10938 107.078125 152.60938 107.578125Q152.125 108.0625 151.375 108.0625Q150.60938 108.0625 150.10938 107.578125Q149.60938 107.078125 149.60938 106.265625L149.60938 105.859375ZM150.42188 106.3125Q150.42188 106.765625 150.67188 107.0625Q150.9375 107.359375 151.375 107.359375Q151.79688 107.359375 152.04688 107.078125Q152.29688 106.78125 152.29688 106.28125L152.29688 105.859375Q152.29688 105.40625 152.04688 105.109375Q151.79688 104.796875 151.35938 104.796875Q150.92188 104.796875 150.67188 105.109375Q150.42188 105.40625 150.42188 105.875L150.42188 106.3125ZM153.76562 110.65625Q153.76562 109.890625 154.25 109.40625Q154.75 108.90625 155.51562 108.90625Q156.28125 108.90625 156.76562 109.40625Q157.26562 109.890625 157.26562 110.703125L157.26562 111.109375Q157.26562 111.875 156.78125 112.375Q156.29688 112.875 155.53125 112.875Q154.76562 112.875 154.26562 112.390625Q153.76562 111.890625 153.76562 111.078125L153.76562 110.65625ZM154.57812 111.109375Q154.57812 111.578125 154.82812 111.875Q155.09375 112.171875 155.53125 112.171875Q155.95312 112.171875 156.20312 111.890625Q156.45312 111.59375 156.45312 111.09375L156.45312 110.65625Q156.45312 110.1875 156.1875 109.90625Q155.9375 109.609375 155.51562 109.609375Q155.09375 109.609375 154.82812 109.90625Q154.57812 110.1875 154.57812 110.6875L154.57812 111.109375ZM151.625 112.109375L151.0 111.71875L155.17188 105.046875L155.78125 105.4375L151.625 112.109375Z" fill-rule="nonzero"/><path stroke="#db4437" stroke-width="3.0" stroke-linejoin="round" stroke-linecap="round" d="M254.85938 109.0Q254.53125 109.40625 254.04688 109.65625Q253.57812 109.890625 253.01562 109.890625Q252.28125 109.890625 251.73438 109.53125Q251.1875 109.171875 250.89062 108.515625Q250.59375 107.84375 250.59375 107.046875Q250.59375 106.203125 250.90625 105.515625Q251.23438 104.828125 251.82812 104.46875Q252.4375 104.09375 253.23438 104.09375Q254.5 104.09375 255.21875 105.046875Q255.95312 106.0 255.95312 107.625L255.95312 107.9375Q255.95312 110.4375 254.96875 111.578125Q253.98438 112.71875 252.0 112.75L251.78125 112.75L251.78125 111.84375L252.01562 111.84375Q253.35938 111.8125 254.07812 111.140625Q254.79688 110.46875 254.85938 109.0ZM253.1875 109.0Q253.73438 109.0 254.1875 108.671875Q254.65625 108.328125 254.875 107.84375L254.875 107.40625Q254.875 106.34375 254.40625 105.671875Q253.9375 105.0 253.23438 105.0Q252.51562 105.0 252.07812 105.546875Q251.65625 106.09375 251.65625 107.0Q251.65625 107.875 252.0625 108.4375Q252.48438 109.0 253.1875 109.0ZM263.0625 109.109375Q263.0625 111.015625 262.40625 111.953125Q261.76562 112.875 260.375 112.875Q259.01562 112.875 258.35938 111.96875Q257.70312 111.0625 257.67188 109.25L257.67188 107.8125Q257.67188 105.921875 258.3125 105.015625Q258.96875 104.09375 260.35938 104.09375Q261.73438 104.09375 262.39062 104.984375Q263.04688 105.859375 263.0625 107.703125L263.0625 109.109375ZM261.96875 107.625Q261.96875 106.25 261.57812 105.625Q261.20312 104.984375 260.35938 104.984375Q259.53125 104.984375 259.14062 105.625Q258.76562 106.25 258.76562 107.546875L258.76562 109.28125Q258.76562 110.65625 259.15625 111.328125Q259.5625 111.984375 260.375 111.984375Q261.17188 111.984375 261.5625 111.359375Q261.95312 110.734375 261.96875 109.40625L261.96875 107.625ZM264.60938 105.859375Q264.60938 105.09375 265.09375 104.59375Q265.59375 104.09375 266.35938 104.09375Q267.14062 104.09375 267.625 104.59375Q268.10938 105.09375 268.10938 105.890625L268.10938 106.3125Q268.10938 107.078125 267.60938 107.578125Q267.125 108.0625 266.375 108.0625Q265.60938 108.0625 265.10938 107.578125Q264.60938 107.078125 264.60938 106.265625L264.60938 105.859375ZM265.42188 106.3125Q265.42188 106.765625 265.67188 107.0625Q265.9375 107.359375 266.375 107.359375Q266.79688 107.359375 267.04688 107.078125Q267.29688 106.78125 267.29688 106.28125L267.29688 105.859375Q267.29688 105.40625 267.04688 105.109375Q266.79688 104.796875 266.35938 104.796875Q265.92188 104.796875 265.67188 105.109375Q265.42188 105.40625 265.42188 105.875L265.42188 106.3125ZM268.76562 110.65625Q268.76562 109.890625 269.25 109.40625Q269.75 108.90625 270.51562 108.90625Q271.28125 108.90625 271.76562 109.40625Q272.26562 109.890625 272.26562 110.703125L272.26562 111.109375Q272.26562 111.875 271.78125 112.375Q271.29688 112.875 270.53125 112.875Q269.76562 112.875 269.26562 112.390625Q268.76562 111.890625 268.76562 111.078125L268.76562 110.65625ZM269.57812 111.109375Q269.57812 111.578125 269.82812 111.875Q270.09375 112.171875 270.53125 112.171875Q270.95312 112.171875 271.20312 111.890625Q271.45312 111.59375 271.45312 111.09375L271.45312 110.65625Q271.45312 110.1875 271.1875 109.90625Q270.9375 109.609375 270.51562 109.609375Q270.09375 109.609375 269.82812 109.90625Q269.57812 110.1875 269.57812 110.6875L269.57812 111.109375ZM266.625 112.109375L266.0 111.71875L270.17188 105.046875L270.78125 105.4375L266.625 112.109375Z" fill-rule="nonzero"/><path fill="#ffffff" d="M254.85938 109.0Q254.53125 109.40625 254.04688 109.65625Q253.57812 109.890625 253.01562 109.890625Q252.28125 109.890625 251.73438 109.53125Q251.1875 109.171875 250.89062 108.515625Q250.59375 107.84375 250.59375 107.046875Q250.59375 106.203125 250.90625 105.515625Q251.23438 104.828125 251.82812 104.46875Q252.4375 104.09375 253.23438 104.09375Q254.5 104.09375 255.21875 105.046875Q255.95312 106.0 255.95312 107.625L255.95312 107.9375Q255.95312 110.4375 254.96875 111.578125Q253.98438 112.71875 252.0 112.75L251.78125 112.75L251.78125 111.84375L252.01562 111.84375Q253.35938 111.8125 254.07812 111.140625Q254.79688 110.46875 254.85938 109.0ZM253.1875 109.0Q253.73438 109.0 254.1875 108.671875Q254.65625 108.328125 254.875 107.84375L254.875 107.40625Q254.875 106.34375 254.40625 105.671875Q253.9375 105.0 253.23438 105.0Q252.51562 105.0 252.07812 105.546875Q251.65625 106.09375 251.65625 107.0Q251.65625 107.875 252.0625 108.4375Q252.48438 109.0 253.1875 109.0ZM263.0625 109.109375Q263.0625 111.015625 262.40625 111.953125Q261.76562 112.875 260.375 112.875Q259.01562 112.875 258.35938 111.96875Q257.70312 111.0625 257.67188 109.25L257.67188 107.8125Q257.67188 105.921875 258.3125 105.015625Q258.96875 104.09375 260.35938 104.09375Q261.73438 104.09375 262.39062 104.984375Q263.04688 105.859375 263.0625 107.703125L263.0625 109.109375ZM261.96875 107.625Q261.96875 106.25 261.57812 105.625Q261.20312 104.984375 260.35938 104.984375Q259.53125 104.984375 259.14062 105.625Q258.76562 106.25 258.76562 107.546875L258.76562 109.28125Q258.76562 110.65625 259.15625 111.328125Q259.5625 111.984375 260.375 111.984375Q261.17188 111.984375 261.5625 111.359375Q261.95312 110.734375 261.96875 109.40625L261.96875 107.625ZM264.60938 105.859375Q264.60938 105.09375 265.09375 104.59375Q265.59375 104.09375 266.35938 104.09375Q267.14062 104.09375 267.625 104.59375Q268.10938 105.09375 268.10938 105.890625L268.10938 106.3125Q268.10938 107.078125 267.60938 107.578125Q267.125 108.0625 266.375 108.0625Q265.60938 108.0625 265.10938 107.578125Q264.60938 107.078125 264.60938 106.265625L264.60938 105.859375ZM265.42188 106.3125Q265.42188 106.765625 265.67188 107.0625Q265.9375 107.359375 266.375 107.359375Q266.79688 107.359375 267.04688 107.078125Q267.29688 106.78125 267.29688 106.28125L267.29688 105.859375Q267.29688 105.40625 267.04688 105.109375Q266.79688 104.796875 266.35938 104.796875Q265.92188 104.796875 265.67188 105.109375Q265.42188 105.40625 265.42188 105.875L265.42188 106.3125ZM268.76562 110.65625Q268.76562 109.890625 269.25 109.40625Q269.75 108.90625 270.51562 108.90625Q271.28125 108.90625 271.76562 109.40625Q272.26562 109.890625 272.26562 110.703125L272.26562 111.109375Q272.26562 111.875 271.78125 112.375Q271.29688 112.875 270.53125 112.875Q269.76562 112.875 269.26562 112.390625Q268.76562 111.890625 268.76562 111.078125L268.76562 110.65625ZM269.57812 111.109375Q269.57812 111.578125 269.82812 111.875Q270.09375 112.171875 270.53125 112.171875Q270.95312 112.171875 271.20312 111.890625Q271.45312 111.59375 271.45312 111.09375L271.45312 110.65625Q271.45312 110.1875 271.1875 109.90625Q270.9375 109.609375 270.51562 109.609375Q270.09375 109.609375 269.82812 109.90625Q269.57812 110.1875 269.57812 110.6875L269.57812 111.109375ZM266.625 112.109375L266.0 111.71875L270.17188 105.046875L270.78125 105.4375L266.625 112.109375Z" fill-rule="nonzero"/><path stroke="#db4437" stroke-width="3.0" stroke-linejoin="round" stroke-linecap="round" d="M369.96875 154.21875L369.96875 155.125L369.76562 155.125Q368.5 155.15625 367.75 155.89062Q367.0 156.60938 366.875 157.92188Q367.5625 157.15625 368.71875 157.15625Q369.82812 157.15625 370.5 157.9375Q371.17188 158.71875 371.17188 159.96875Q371.17188 161.28125 370.45312 162.07812Q369.73438 162.875 368.51562 162.875Q367.29688 162.875 366.53125 161.9375Q365.78125 160.98438 365.78125 159.5L365.78125 159.09375Q365.78125 156.73438 366.78125 155.48438Q367.78125 154.23438 369.76562 154.21875L369.96875 154.21875ZM368.54688 158.0625Q367.98438 158.0625 367.51562 158.39062Q367.04688 158.71875 366.85938 159.23438L366.85938 159.625Q366.85938 160.6875 367.32812 161.32812Q367.8125 161.96875 368.51562 161.96875Q369.25 161.96875 369.67188 161.4375Q370.09375 160.89062 370.09375 160.01562Q370.09375 159.14062 369.67188 158.60938Q369.25 158.0625 368.54688 158.0625ZM378.0625 159.10938Q378.0625 161.01562 377.40625 161.95312Q376.76562 162.875 375.375 162.875Q374.01562 162.875 373.35938 161.96875Q372.70312 161.0625 372.67188 159.25L372.67188 157.8125Q372.67188 155.92188 373.3125 155.01562Q373.96875 154.09375 375.35938 154.09375Q376.73438 154.09375 377.39062 154.98438Q378.04688 155.85938 378.0625 157.70312L378.0625 159.10938ZM376.96875 157.625Q376.96875 156.25 376.57812 155.625Q376.20312 154.98438 375.35938 154.98438Q374.53125 154.98438 374.14062 155.625Q373.76562 156.25 373.76562 157.54688L373.76562 159.28125Q373.76562 160.65625 374.15625 161.32812Q374.5625 161.98438 375.375 161.98438Q376.17188 161.98438 376.5625 161.35938Q376.95312 160.73438 376.96875 159.40625L376.96875 157.625ZM379.60938 155.85938Q379.60938 155.09375 380.09375 154.59375Q380.59375 154.09375 381.35938 154.09375Q382.14062 154.09375 382.625 154.59375Q383.10938 155.09375 383.10938 155.89062L383.10938 156.3125Q383.10938 157.07812 382.60938 157.57812Q382.125 158.0625 381.375 158.0625Q380.60938 158.0625 380.10938 157.57812Q379.60938 157.07812 379.60938 156.26562L379.60938 155.85938ZM380.42188 156.3125Q380.42188 156.76562 380.67188 157.0625Q380.9375 157.35938 381.375 157.35938Q381.79688 157.35938 382.04688 157.07812Q382.29688 156.78125 382.29688 156.28125L382.29688 155.85938Q382.29688 155.40625 382.04688 155.10938Q381.79688 154.79688 381.35938 154.79688Q380.92188 154.79688 380.67188 155.10938Q380.42188 155.40625 380.42188 155.875L380.42188 156.3125ZM383.76562 160.65625Q383.76562 159.89062 384.25 159.40625Q384.75 158.90625 385.51562 158.90625Q386.28125 158.90625 386.76562 159.40625Q387.26562 159.89062 387.26562 160.70312L387.26562 161.10938Q387.26562 161.875 386.78125 162.375Q386.29688 162.875 385.53125 162.875Q384.76562 162.875 384.26562 162.39062Q383.76562 161.89062 383.76562 161.07812L383.76562 160.65625ZM384.57812 161.10938Q384.57812 161.57812 384.82812 161.875Q385.09375 162.17188 385.53125 162.17188Q385.95312 162.17188 386.20312 161.89062Q386.45312 161.59375 386.45312 161.09375L386.45312 160.65625Q386.45312 160.1875 386.1875 159.90625Q385.9375 159.60938 385.51562 159.60938Q385.09375 159.60938 384.82812 159.90625Q384.57812 160.1875 384.57812 160.6875L384.57812 161.10938ZM381.625 162.10938L381.0 161.71875L385.17188 155.04688L385.78125 155.4375L381.625 162.10938Z" fill-rule="nonzero"/><path fill="#ffffff" d="M369.96875 154.21875L369.96875 155.125L369.76562 155.125Q368.5 155.15625 367.75 155.89062Q367.0 156.60938 366.875 157.92188Q367.5625 157.15625 368.71875 157.15625Q369.82812 157.15625 370.5 157.9375Q371.17188 158.71875 371.17188 159.96875Q371.17188 161.28125 370.45312 162.07812Q369.73438 162.875 368.51562 162.875Q367.29688 162.875 366.53125 161.9375Q365.78125 160.98438 365.78125 159.5L365.78125 159.09375Q365.78125 156.73438 366.78125 155.48438Q367.78125 154.23438 369.76562 154.21875L369.96875 154.21875ZM368.54688 158.0625Q367.98438 158.0625 367.51562 158.39062Q367.04688 158.71875 366.85938 159.23438L366.85938 159.625Q366.85938 160.6875 367.32812 161.32812Q367.8125 161.96875 368.51562 161.96875Q369.25 161.96875 369.67188 161.4375Q370.09375 160.89062 370.09375 160.01562Q370.09375 159.14062 369.67188 158.60938Q369.25 158.0625 368.54688 158.0625ZM378.0625 159.10938Q378.0625 161.01562 377.40625 161.95312Q376.76562 162.875 375.375 162.875Q374.01562 162.875 373.35938 161.96875Q372.70312 161.0625 372.67188 159.25L372.67188 157.8125Q372.67188 155.92188 373.3125 155.01562Q373.96875 154.09375 375.35938 154.09375Q376.73438 154.09375 377.39062 154.98438Q378.04688 155.85938 378.0625 157.70312L378.0625 159.10938ZM376.96875 157.625Q376.96875 156.25 376.57812 155.625Q376.20312 154.98438 375.35938 154.98438Q374.53125 154.98438 374.14062 155.625Q373.76562 156.25 373.76562 157.54688L373.76562 159.28125Q373.76562 160.65625 374.15625 161.32812Q374.5625 161.98438 375.375 161.98438Q376.17188 161.98438 376.5625 161.35938Q376.95312 160.73438 376.96875 159.40625L376.96875 157.625ZM379.60938 155.85938Q379.60938 155.09375 380.09375 154.59375Q380.59375 154.09375 381.35938 154.09375Q382.14062 154.09375 382.625 154.59375Q383.10938 155.09375 383.10938 155.89062L383.10938 156.3125Q383.10938 157.07812 382.60938 157.57812Q382.125 158.0625 381.375 158.0625Q380.60938 158.0625 380.10938 157.57812Q379.60938 157.07812 379.60938 156.26562L379.60938 155.85938ZM380.42188 156.3125Q380.42188 156.76562 380.67188 157.0625Q380.9375 157.35938 381.375 157.35938Q381.79688 157.35938 382.04688 157.07812Q382.29688 156.78125 382.29688 156.28125L382.29688 155.85938Q382.29688 155.40625 382.04688 155.10938Q381.79688 154.79688 381.35938 154.79688Q380.92188 154.79688 380.67188 155.10938Q380.42188 155.40625 380.42188 155.875L380.42188 156.3125ZM383.76562 160.65625Q383.76562 159.89062 384.25 159.40625Q384.75 158.90625 385.51562 158.90625Q386.28125 158.90625 386.76562 159.40625Q387.26562 159.89062 387.26562 160.70312L387.26562 161.10938Q387.26562 161.875 386.78125 162.375Q386.29688 162.875 385.53125 162.875Q384.76562 162.875 384.26562 162.39062Q383.76562 161.89062 383.76562 161.07812L383.76562 160.65625ZM384.57812 161.10938Q384.57812 161.57812 384.82812 161.875Q385.09375 162.17188 385.53125 162.17188Q385.95312 162.17188 386.20312 161.89062Q386.45312 161.59375 386.45312 161.09375L386.45312 160.65625Q386.45312 160.1875 386.1875 159.90625Q385.9375 159.60938 385.51562 159.60938Q385.09375 159.60938 384.82812 159.90625Q384.57812 160.1875 384.57812 160.6875L384.57812 161.10938ZM381.625 162.10938L381.0 161.71875L385.17188 155.04688L385.78125 155.4375L381.625 162.10938Z" fill-rule="nonzero"/><path fill="#757575" d="M34.1125 246.80937Q34.1125 248.71562 33.45625 249.65312Q32.815624 250.575 31.425 250.575Q30.065624 250.575 29.409374 249.66875Q28.753124 248.7625 28.721874 246.95L28.721874 245.5125Q28.721874 243.62187 29.3625 242.71562Q30.01875 241.79375 31.409374 241.79375Q32.784374 241.79375 33.440624 242.68437Q34.096874 243.55937 34.1125 245.40312L34.1125 246.80937ZM33.01875 245.325Q33.01875 243.95 32.628124 243.325Q32.253124 242.68437 31.409374 242.68437Q30.58125 242.68437 30.190624 243.325Q29.815624 243.95 29.815624 245.24687L29.815624 246.98125Q29.815624 248.35625 30.20625 249.02812Q30.6125 249.68437 31.425 249.68437Q32.221874 249.68437 32.6125 249.05937Q33.003124 248.43437 33.01875 247.10625L33.01875 245.325ZM35.659374 243.55937Q35.659374 242.79375 36.14375 242.29375Q36.64375 241.79375 37.409374 241.79375Q38.190624 241.79375 38.675 242.29375Q39.159374 242.79375 39.159374 243.59062L39.159374 244.0125Q39.159374 244.77812 38.659374 245.27812Q38.175 245.7625 37.425 245.7625Q36.659374 245.7625 36.159374 245.27812Q35.659374 244.77812 35.659374 243.96562L35.659374 243.55937ZM36.471874 244.0125Q36.471874 244.46562 36.721874 244.7625Q36.9875 245.05937 37.425 245.05937Q37.846874 245.05937 38.096874 244.77812Q38.346874 244.48125 38.346874 243.98125L38.346874 243.55937Q38.346874 243.10625 38.096874 242.80937Q37.846874 242.49687 37.409374 242.49687Q36.971874 242.49687 36.721874 242.80937Q36.471874 243.10625 36.471874 243.575L36.471874 244.0125ZM39.815624 248.35625Q39.815624 247.59062 40.3 247.10625Q40.8 246.60625 41.565624 246.60625Q42.33125 246.60625 42.815624 247.10625Q43.315624 247.59062 43.315624 248.40312L43.315624 248.80937Q43.315624 249.575 42.83125 250.075Q42.346874 250.575 41.58125 250.575Q40.815624 250.575 40.315624 250.09062Q39.815624 249.59062 39.815624 248.77812L39.815624 248.35625ZM40.628124 248.80937Q40.628124 249.27812 40.878124 249.575Q41.14375 249.87187 41.58125 249.87187Q42.003124 249.87187 42.253124 249.59062Q42.503124 249.29375 42.503124 248.79375L42.503124 248.35625Q42.503124 247.8875 42.2375 247.60625Q41.9875 247.30937 41.565624 247.30937Q41.14375 247.30937 40.878124 247.60625Q40.628124 247.8875 40.628124 248.3875L40.628124 248.80937ZM37.675 249.80937L37.05 249.41875L41.221874 242.74687L41.83125 243.1375L37.675 249.80937Z" fill-rule="nonzero"/><path fill="#757575" d="M27.346874 208.78334L21.753124 208.78334L21.753124 208.00209L24.70625 204.72084Q25.3625 203.97084 25.6125 203.51772Q25.8625 203.04897 25.8625 202.54897Q25.8625 201.87709 25.45625 201.45522Q25.065624 201.01772 24.378124 201.01772Q23.58125 201.01772 23.128124 201.48647Q22.675 201.93959 22.675 202.76772L21.596874 202.76772Q21.596874 201.58022 22.346874 200.86147Q23.1125 200.12709 24.378124 200.12709Q25.58125 200.12709 26.26875 200.75209Q26.95625 201.37709 26.95625 202.42397Q26.95625 203.67397 25.346874 205.42397L23.065624 207.89272L27.346874 207.89272L27.346874 208.78334ZM29.253124 204.50209L29.690624 200.25209L34.065624 200.25209L34.065624 201.25209L30.6125 201.25209L30.346874 203.58022Q30.9875 203.20522 31.784374 203.20522Q32.940624 203.20522 33.628124 203.98647Q34.315624 204.75209 34.315624 206.06459Q34.315624 207.37709 33.596874 208.14272Q32.89375 208.90834 31.6125 208.90834Q30.4875 208.90834 29.76875 208.28334Q29.05 207.64272 28.95625 206.53334L29.971874 206.53334Q30.08125 207.26772 30.503124 207.64272Q30.925 208.01772 31.6125 208.01772Q32.3625 208.01772 32.8 207.50209Q33.2375 206.98647 33.2375 206.08022Q33.2375 205.22084 32.76875 204.70522Q32.3 204.18959 31.51875 204.18959Q30.815624 204.18959 30.409374 204.48647L30.128124 204.72084L29.253124 204.50209ZM35.659374 201.89272Q35.659374 201.12709 36.14375 200.62709Q36.64375 200.12709 37.409374 200.12709Q38.190624 200.12709 38.675 200.62709Q39.159374 201.12709 39.159374 201.92397L39.159374 202.34584Q39.159374 203.11147 38.659374 203.61147Q38.175 204.09584 37.425 204.09584Q36.659374 204.09584 36.159374 203.61147Q35.659374 203.11147 35.659374 202.29897L35.659374 201.89272ZM36.471874 202.34584Q36.471874 202.79897 36.721874 203.09584Q36.9875 203.39272 37.425 203.39272Q37.846874 203.39272 38.096874 203.11147Q38.346874 202.81459 38.346874 202.31459L38.346874 201.89272Q38.346874 201.43959 38.096874 201.14272Q37.846874 200.83022 37.409374 200.83022Q36.971874 200.83022 36.721874 201.14272Q36.471874 201.43959 36.471874 201.90834L36.471874 202.34584ZM39.815624 206.68959Q39.815624 205.92397 40.3 205.43959Q40.8 204.93959 41.565624 204.93959Q42.33125 204.93959 42.815624 205.43959Q43.315624 205.92397 43.315624 206.73647L43.315624 207.14272Q43.315624 207.90834 42.83125 208.40834Q42.346874 208.90834 41.58125 208.90834Q40.815624 208.90834 40.315624 208.42397Q39.815624 207.92397 39.815624 207.11147L39.815624 206.68959ZM40.628124 207.14272Q40.628124 207.61147 40.878124 207.90834Q41.14375 208.20522 41.58125 208.20522Q42.003124 208.20522 42.253124 207.92397Q42.503124 207.62709 42.503124 207.12709L42.503124 206.68959Q42.503124 206.22084 42.2375 205.93959Q41.9875 205.64272 41.565624 205.64272Q41.14375 205.64272 40.878124 205.93959Q40.628124 206.22084 40.628124 206.72084L40.628124 207.14272ZM37.675 208.14272L37.05 207.75209L41.221874 201.08022L41.83125 201.47084L37.675 208.14272Z" fill-rule="nonzero"/><path fill="#757575" d="M22.253124 162.83542L22.690624 158.58542L27.065624 158.58542L27.065624 159.58542L23.6125 159.58542L23.346874 161.91354Q23.9875 161.53854 24.784374 161.53854Q25.940624 161.53854 26.628124 162.3198Q27.315624 163.08542 27.315624 164.39792Q27.315624 165.71042 26.596874 166.47604Q25.89375 167.24167 24.6125 167.24167Q23.4875 167.24167 22.76875 166.61667Q22.05 165.97604 21.95625 164.86667L22.971874 164.86667Q23.08125 165.60104 23.503124 165.97604Q23.925 166.35104 24.6125 166.35104Q25.3625 166.35104 25.8 165.83542Q26.2375 165.3198 26.2375 164.41354Q26.2375 163.55417 25.76875 163.03854Q25.3 162.52292 24.51875 162.52292Q23.815624 162.52292 23.409374 162.8198L23.128124 163.05417L22.253124 162.83542ZM34.1125 163.47604Q34.1125 165.3823 33.45625 166.3198Q32.815624 167.24167 31.425 167.24167Q30.065624 167.24167 29.409374 166.33542Q28.753124 165.42917 28.721874 163.61667L28.721874 162.17917Q28.721874 160.28854 29.3625 159.3823Q30.01875 158.46042 31.409374 158.46042Q32.784374 158.46042 33.440624 159.35104Q34.096874 160.22604 34.1125 162.0698L34.1125 163.47604ZM33.01875 161.99167Q33.01875 160.61667 32.628124 159.99167Q32.253124 159.35104 31.409374 159.35104Q30.58125 159.35104 30.190624 159.99167Q29.815624 160.61667 29.815624 161.91354L29.815624 163.64792Q29.815624 165.02292 30.20625 165.6948Q30.6125 166.35104 31.425 166.35104Q32.221874 166.35104 32.6125 165.72604Q33.003124 165.10104 33.01875 163.77292L33.01875 161.99167ZM35.659374 160.22604Q35.659374 159.46042 36.14375 158.96042Q36.64375 158.46042 37.409374 158.46042Q38.190624 158.46042 38.675 158.96042Q39.159374 159.46042 39.159374 160.2573L39.159374 160.67917Q39.159374 161.4448 38.659374 161.9448Q38.175 162.42917 37.425 162.42917Q36.659374 162.42917 36.159374 161.9448Q35.659374 161.4448 35.659374 160.6323L35.659374 160.22604ZM36.471874 160.67917Q36.471874 161.1323 36.721874 161.42917Q36.9875 161.72604 37.425 161.72604Q37.846874 161.72604 38.096874 161.4448Q38.346874 161.14792 38.346874 160.64792L38.346874 160.22604Q38.346874 159.77292 38.096874 159.47604Q37.846874 159.16354 37.409374 159.16354Q36.971874 159.16354 36.721874 159.47604Q36.471874 159.77292 36.471874 160.24167L36.471874 160.67917ZM39.815624 165.02292Q39.815624 164.2573 40.3 163.77292Q40.8 163.27292 41.565624 163.27292Q42.33125 163.27292 42.815624 163.77292Q43.315624 164.2573 43.315624 165.0698L43.315624 165.47604Q43.315624 166.24167 42.83125 166.74167Q42.346874 167.24167 41.58125 167.24167Q40.815624 167.24167 40.315624 166.7573Q39.815624 166.2573 39.815624 165.4448L39.815624 165.02292ZM40.628124 165.47604Q40.628124 165.9448 40.878124 166.24167Q41.14375 166.53854 41.58125 166.53854Q42.003124 166.53854 42.253124 166.2573Q42.503124 165.96042 42.503124 165.46042L42.503124 165.02292Q42.503124 164.55417 42.2375 164.27292Q41.9875 163.97604 41.565624 163.97604Q41.14375 163.97604 40.878124 164.27292Q40.628124 164.55417 40.628124 165.05417L40.628124 165.47604ZM37.675 166.47604L37.05 166.08542L41.221874 159.41354L41.83125 159.80417L37.675 166.47604Z" fill-rule="nonzero"/><path fill="#757575" d="M27.26875 117.52812L23.7375 125.45L22.596874 125.45L26.1125 117.80937L21.503124 117.80937L21.503124 116.91875L27.26875 116.91875L27.26875 117.52812ZM29.253124 121.16875L29.690624 116.91875L34.065624 116.91875L34.065624 117.91875L30.6125 117.91875L30.346874 120.24687Q30.9875 119.87187 31.784374 119.87187Q32.940624 119.87187 33.628124 120.65312Q34.315624 121.41875 34.315624 122.73125Q34.315624 124.04375 33.596874 124.80937Q32.89375 125.575 31.6125 125.575Q30.4875 125.575 29.76875 124.95Q29.05 124.30937 28.95625 123.2L29.971874 123.2Q30.08125 123.93437 30.503124 124.30937Q30.925 124.68437 31.6125 124.68437Q32.3625 124.68437 32.8 124.16875Q33.2375 123.65312 33.2375 122.74687Q33.2375 121.8875 32.76875 121.37187Q32.3 120.85625 31.51875 120.85625Q30.815624 120.85625 30.409374 121.15312L30.128124 121.3875L29.253124 121.16875ZM35.659374 118.55937Q35.659374 117.79375 36.14375 117.29375Q36.64375 116.79375 37.409374 116.79375Q38.190624 116.79375 38.675 117.29375Q39.159374 117.79375 39.159374 118.59062L39.159374 119.0125Q39.159374 119.77812 38.659374 120.27812Q38.175 120.7625 37.425 120.7625Q36.659374 120.7625 36.159374 120.27812Q35.659374 119.77812 35.659374 118.96562L35.659374 118.55937ZM36.471874 119.0125Q36.471874 119.46562 36.721874 119.7625Q36.9875 120.05937 37.425 120.05937Q37.846874 120.05937 38.096874 119.77812Q38.346874 119.48125 38.346874 118.98125L38.346874 118.55937Q38.346874 118.10625 38.096874 117.80937Q37.846874 117.49687 37.409374 117.49687Q36.971874 117.49687 36.721874 117.80937Q36.471874 118.10625 36.471874 118.575L36.471874 119.0125ZM39.815624 123.35625Q39.815624 122.59062 40.3 122.10625Q40.8 121.60625 41.565624 121.60625Q42.33125 121.60625 42.815624 122.10625Q43.315624 122.59062 43.315624 123.40312L43.315624 123.80937Q43.315624 124.575 42.83125 125.075Q42.346874 125.575 41.58125 125.575Q40.815624 125.575 40.315624 125.09062Q39.815624 124.59062 39.815624 123.77812L39.815624 123.35625ZM40.628124 123.80937Q40.628124 124.27812 40.878124 124.575Q41.14375 124.87187 41.58125 124.87187Q42.003124 124.87187 42.253124 124.59062Q42.503124 124.29375 42.503124 123.79375L42.503124 123.35625Q42.503124 122.8875 42.2375 122.60625Q41.9875 122.30937 41.565624 122.30937Q41.14375 122.30937 40.878124 122.60625Q40.628124 122.8875 40.628124 123.3875L40.628124 123.80937ZM37.675 124.80937L37.05 124.41875L41.221874 117.74687L41.83125 118.1375L37.675 124.80937Z" fill-rule="nonzero"/><path fill="#757575" d="M18.315624 83.78333L17.2375 83.78333L17.2375 76.56458L15.05 77.36146L15.05 76.37708L18.159374 75.20521L18.315624 75.20521L18.315624 83.78333ZM27.1125 80.14271Q27.1125 82.04896 26.45625 82.98646Q25.815624 83.90833 24.425 83.90833Q23.065624 83.90833 22.409374 83.00208Q21.753124 82.09583 21.721874 80.28333L21.721874 78.84583Q21.721874 76.95521 22.3625 76.04896Q23.01875 75.12708 24.409374 75.12708Q25.784374 75.12708 26.440624 76.01771Q27.096874 76.89271 27.1125 78.73646L27.1125 80.14271ZM26.01875 78.65833Q26.01875 77.28333 25.628124 76.65833Q25.253124 76.01771 24.409374 76.01771Q23.58125 76.01771 23.190624 76.65833Q22.815624 77.28333 22.815624 78.58021L22.815624 80.31458Q22.815624 81.68958 23.20625 82.36146Q23.6125 83.01771 24.425 83.01771Q25.221874 83.01771 25.6125 82.39271Q26.003124 81.76771 26.01875 80.43958L26.01875 78.65833ZM34.1125 80.14271Q34.1125 82.04896 33.45625 82.98646Q32.815624 83.90833 31.425 83.90833Q30.065624 83.90833 29.409374 83.00208Q28.753124 82.09583 28.721874 80.28333L28.721874 78.84583Q28.721874 76.95521 29.3625 76.04896Q30.01875 75.12708 31.409374 75.12708Q32.784374 75.12708 33.440624 76.01771Q34.096874 76.89271 34.1125 78.73646L34.1125 80.14271ZM33.01875 78.65833Q33.01875 77.28333 32.628124 76.65833Q32.253124 76.01771 31.409374 76.01771Q30.58125 76.01771 30.190624 76.65833Q29.815624 77.28333 29.815624 78.58021L29.815624 80.31458Q29.815624 81.68958 30.20625 82.36146Q30.6125 83.01771 31.425 83.01771Q32.221874 83.01771 32.6125 82.39271Q33.003124 81.76771 33.01875 80.43958L33.01875 78.65833ZM35.659374 76.89271Q35.659374 76.12708 36.14375 75.62708Q36.64375 75.12708 37.409374 75.12708Q38.190624 75.12708 38.675 75.62708Q39.159374 76.12708 39.159374 76.92396L39.159374 77.34583Q39.159374 78.11146 38.659374 78.61146Q38.175 79.09583 37.425 79.09583Q36.659374 79.09583 36.159374 78.61146Q35.659374 78.11146 35.659374 77.29896L35.659374 76.89271ZM36.471874 77.34583Q36.471874 77.79896 36.721874 78.09583Q36.9875 78.39271 37.425 78.39271Q37.846874 78.39271 38.096874 78.11146Q38.346874 77.81458 38.346874 77.31458L38.346874 76.89271Q38.346874 76.43958 38.096874 76.14271Q37.846874 75.83021 37.409374 75.83021Q36.971874 75.83021 36.721874 76.14271Q36.471874 76.43958 36.471874 76.90833L36.471874 77.34583ZM39.815624 81.68958Q39.815624 80.92396 40.3 80.43958Q40.8 79.93958 41.565624 79.93958Q42.33125 79.93958 42.815624 80.43958Q43.315624 80.92396 43.315624 81.73646L43.315624 82.14271Q43.315624 82.90833 42.83125 83.40833Q42.346874 83.90833 41.58125 83.90833Q40.815624 83.90833 40.315624 83.42396Q39.815624 82.92396 39.815624 82.11146L39.815624 81.68958ZM40.628124 82.14271Q40.628124 82.61146 40.878124 82.90833Q41.14375 83.20521 41.58125 83.20521Q42.003124 83.20521 42.253124 82.92396Q42.503124 82.62708 42.503124 82.12708L42.503124 81.68958Q42.503124 81.22083 42.2375 80.93958Q41.9875 80.64271 41.565624 80.64271Q41.14375 80.64271 40.878124 80.93958Q40.628124 81.22083 40.628124 81.72083L40.628124 82.14271ZM37.675 83.14271L37.05 82.75208L41.221874 76.08021L41.83125 76.47083L37.675 83.14271Z" fill-rule="nonzero"/><path fill="#757575" d="M124.30597 259.96564Q124.30597 261.2 123.915344 262.09064Q123.52472 262.98126 122.821594 263.48126L124.33722 264.6844L123.571594 265.3875L121.77472 263.96564Q121.352844 264.075 120.884094 264.075Q119.884094 264.075 119.102844 263.575Q118.321594 263.075 117.884094 262.16876Q117.46222 261.2469 117.446594 260.02814L117.446594 259.41876Q117.446594 258.1844 117.86847 257.2469Q118.30597 256.3094 119.08722 255.80939Q119.86847 255.29376 120.86847 255.29376Q121.89972 255.29376 122.68097 255.79376Q123.46222 256.29376 123.884094 257.23126Q124.30597 258.16876 124.30597 259.41876L124.30597 259.96564ZM123.18097 259.40314Q123.18097 257.90314 122.58722 257.09064Q121.99347 256.2625 120.86847 256.2625Q119.80597 256.2625 119.196594 257.075Q118.58722 257.8875 118.571594 259.325L118.571594 259.96564Q118.571594 261.41876 119.18097 262.2625Q119.790344 263.10626 120.884094 263.10626Q121.977844 263.10626 122.571594 262.325Q123.165344 261.52814 123.18097 260.04376L123.18097 259.40314ZM129.0716 263.95L127.99347 263.95L127.99347 256.73126L125.80597 257.52814L125.80597 256.54376L128.91534 255.37189L129.0716 255.37189L129.0716 263.95ZM134.08722 259.15314L134.89972 259.15314Q135.68097 259.1375 136.11847 258.7469Q136.55597 258.35626 136.55597 257.6844Q136.55597 256.1844 135.05597 256.1844Q134.35284 256.1844 133.93097 256.59064Q133.52472 256.9969 133.52472 257.65314L132.43097 257.65314Q132.43097 256.6375 133.16534 255.96564Q133.91534 255.29376 135.05597 255.29376Q136.2591 255.29376 136.9466 255.93439Q137.6341 256.575 137.6341 257.71564Q137.6341 258.27814 137.27472 258.79376Q136.91534 259.3094 136.29034 259.575Q136.99347 259.79376 137.36847 260.3094Q137.7591 260.825 137.7591 261.575Q137.7591 262.71564 137.0091 263.40314Q136.2591 264.075 135.05597 264.075Q133.86847 264.075 133.10284 263.41876Q132.35284 262.7625 132.35284 261.7L133.4466 261.7Q133.4466 262.3719 133.8841 262.77814Q134.3216 263.1844 135.0716 263.1844Q135.85284 263.1844 136.2591 262.77814Q136.68097 262.35626 136.68097 261.59064Q136.68097 260.85626 136.22784 260.46564Q135.77472 260.0594 134.89972 260.04376L134.08722 260.04376L134.08722 259.15314Z" fill-rule="nonzero"/><path fill="#757575" d="M239.5 259.96564Q239.5 261.2 239.10938 262.09064Q238.71875 262.98126 238.01562 263.48126L239.53125 264.6844L238.76562 265.3875L236.96875 263.96564Q236.54688 264.075 236.07812 264.075Q235.07812 264.075 234.29688 263.575Q233.51562 263.075 233.07812 262.16876Q232.65625 261.2469 232.64062 260.02814L232.64062 259.41876Q232.64062 258.1844 233.0625 257.2469Q233.5 256.3094 234.28125 255.80939Q235.0625 255.29376 236.0625 255.29376Q237.09375 255.29376 237.875 255.79376Q238.65625 256.29376 239.07812 257.23126Q239.5 258.16876 239.5 259.41876L239.5 259.96564ZM238.375 259.40314Q238.375 257.90314 237.78125 257.09064Q237.1875 256.2625 236.0625 256.2625Q235.0 256.2625 234.39062 257.075Q233.78125 257.8875 233.76562 259.325L233.76562 259.96564Q233.76562 261.41876 234.375 262.2625Q234.98438 263.10626 236.07812 263.10626Q237.17188 263.10626 237.76562 262.325Q238.35938 261.52814 238.375 260.04376L238.375 259.40314ZM244.26562 263.95L243.1875 263.95L243.1875 256.73126L241.0 257.52814L241.0 256.54376L244.10938 255.37189L244.26562 255.37189L244.26562 263.95ZM252.28125 261.09064L253.46875 261.09064L253.46875 261.96564L252.28125 261.96564L252.28125 263.95L251.20312 263.95L251.20312 261.96564L247.3125 261.96564L247.3125 261.325L251.125 255.41876L252.28125 255.41876L252.28125 261.09064ZM248.54688 261.09064L251.20312 261.09064L251.20312 256.90314L251.0625 257.1375L248.54688 261.09064Z" fill-rule="nonzero"/><path fill="#757575" d="M354.69403 259.96564Q354.69403 261.2 354.3034 262.09064Q353.91278 262.98126 353.20966 263.48126L354.72528 264.6844L353.95966 265.3875L352.16278 263.96564Q351.7409 264.075 351.27216 264.075Q350.27216 264.075 349.4909 263.575Q348.70966 263.075 348.27216 262.16876Q347.85028 261.2469 347.83466 260.02814L347.83466 259.41876Q347.83466 258.1844 348.25653 257.2469Q348.69403 256.3094 349.47528 255.80939Q350.25653 255.29376 351.25653 255.29376Q352.28778 255.29376 353.06903 255.79376Q353.85028 256.29376 354.27216 257.23126Q354.69403 258.16876 354.69403 259.41876L354.69403 259.96564ZM353.56903 259.40314Q353.56903 257.90314 352.97528 257.09064Q352.38153 256.2625 351.25653 256.2625Q350.19403 256.2625 349.58466 257.075Q348.97528 257.8875 348.95966 259.325L348.95966 259.96564Q348.95966 261.41876 349.56903 262.2625Q350.1784 263.10626 351.27216 263.10626Q352.3659 263.10626 352.95966 262.325Q353.5534 261.52814 353.56903 260.04376L353.56903 259.40314ZM359.45966 263.95L358.38153 263.95L358.38153 256.73126L356.19403 257.52814L356.19403 256.54376L359.3034 255.37189L359.45966 255.37189L359.45966 263.95ZM363.39716 259.66876L363.83466 255.41876L368.20966 255.41876L368.20966 256.41876L364.75653 256.41876L364.4909 258.7469Q365.13153 258.3719 365.9284 258.3719Q367.08466 258.3719 367.77216 259.15314Q368.45966 259.91876 368.45966 261.23126Q368.45966 262.54376 367.7409 263.3094Q367.03778 264.075 365.75653 264.075Q364.63153 264.075 363.91278 263.45Q363.19403 262.8094 363.10028 261.7L364.1159 261.7Q364.22528 262.4344 364.64716 262.8094Q365.06903 263.1844 365.75653 263.1844Q366.50653 263.1844 366.94403 262.66876Q367.38153 262.15314 367.38153 261.2469Q367.38153 260.3875 366.91278 259.8719Q366.44403 259.35626 365.66278 259.35626Q364.95966 259.35626 364.5534 259.65314L364.27216 259.8875L363.39716 259.66876Z" fill-rule="nonzero"/><path fill="#4285f4" d="M182.0 49.916668C182.0 49.364384 182.44771 48.916668 183.0 48.916668L193.0 48.916668C193.55229 48.916668 194.0 49.364384 194.0 49.916668L194.0 59.916668C194.0 60.468952 193.55229 60.916668 193.0 60.916668L183.0 60.916668C182.44771 60.916668 182.0 60.468952 182.0 59.916668Z" fill-rule="nonzero"/><path fill="#757575" d="M207.70312 57.182293L204.125 57.182293L203.32812 59.416668L202.17188 59.416668L205.42188 50.885418L206.40625 50.885418L209.67188 59.416668L208.51562 59.416668L207.70312 57.182293ZM204.46875 56.260418L207.375 56.260418L205.92188 52.276043L204.46875 56.260418ZM214.26562 59.416668L213.1875 59.416668L213.1875 52.197918L211.0 52.994793L211.0 52.010418L214.10938 50.838543L214.26562 50.838543L214.26562 59.416668Z" fill-rule="nonzero"/><path fill="#db4437" d="M233.0 49.916668C233.0 49.364384 233.44771 48.916668 234.0 48.916668L244.0 48.916668C244.55229 48.916668 245.0 49.364384 245.0 49.916668L245.0 59.916668C245.0 60.468952 244.55229 60.916668 244.0 60.916668L234.0 60.916668C233.44771 60.916668 233.0 60.468952 233.0 59.916668Z" fill-rule="nonzero"/><path fill="#757575" d="M258.70312 57.182293L255.125 57.182293L254.32812 59.416668L253.17188 59.416668L256.42188 50.885418L257.40625 50.885418L260.67188 59.416668L259.51562 59.416668L258.70312 57.182293ZM255.46875 56.260418L258.375 56.260418L256.92188 52.276043L255.46875 56.260418ZM263.28125 54.619793L264.09375 54.619793Q264.875 54.604168 265.3125 54.213543Q265.75 53.822918 265.75 53.151043Q265.75 51.651043 264.25 51.651043Q263.54688 51.651043 263.125 52.057293Q262.71875 52.463543 262.71875 53.119793L261.625 53.119793Q261.625 52.104168 262.35938 51.432293Q263.10938 50.760418 264.25 50.760418Q265.45312 50.760418 266.14062 51.401043Q266.82812 52.041668 266.82812 53.182293Q266.82812 53.744793 266.46875 54.260418Q266.10938 54.776043 265.48438 55.041668Q266.1875 55.260418 266.5625 55.776043Q266.95312 56.291668 266.95312 57.041668Q266.95312 58.182293 266.20312 58.869793Q265.45312 59.541668 264.25 59.541668Q263.0625 59.541668 262.29688 58.885418Q261.54688 58.229168 261.54688 57.166668L262.64062 57.166668Q262.64062 57.838543 263.07812 58.244793Q263.51562 58.651043 264.26562 58.651043Q265.04688 58.651043 265.45312 58.244793Q265.875 57.822918 265.875 57.057293Q265.875 56.322918 265.42188 55.932293Q264.96875 55.526043 264.09375 55.510418L263.28125 55.510418L263.28125 54.619793Z" fill-rule="nonzero"/><path fill="#757575" d="M23.55 29.33125L17.596874 29.33125L16.253124 33.05L14.33125 33.05L19.753124 18.83125L21.39375 18.83125L26.83125 33.05L24.909374 33.05L23.55 29.33125ZM18.159374 27.8L23.003124 27.8L20.58125 21.14375L18.159374 27.8Z" fill-rule="nonzero"/><path fill="#757575" d="M42.753124 22.425L47.9875 22.425L47.9875 23.909374L42.753124 23.909374L42.753124 25.08125L48.534374 25.08125L48.534374 26.565624L42.753124 26.565624L42.753124 27.815624L50.8 27.815624L50.8 29.3L43.221874 29.3Q44.940624 31.64375 50.8 32.89375L50.253124 34.690624Q44.08125 33.20625 42.20625 30.003124Q40.33125 33.9875 34.003124 34.925L33.378124 33.284374Q39.2375 32.425 40.721874 29.3L33.3 29.3L33.3 27.815624L41.190624 27.815624L41.190624 26.565624L35.64375 26.565624L35.64375 25.08125L41.190624 25.08125L41.190624 23.909374L36.034374 23.909374L36.034374 22.425L41.190624 22.425L41.190624 20.8625L42.675 20.8625Q43.3 20.940624 42.753124 21.33125L42.753124 22.425ZM33.76875 18.753124L41.190624 18.753124L41.190624 16.95625L42.909374 16.95625Q43.690624 17.1125 42.9875 17.58125L42.9875 18.753124L50.33125 18.753124L50.33125 22.971874L48.76875 22.971874L48.76875 20.2375L35.33125 20.2375L35.33125 22.971874L33.76875 22.971874L33.76875 18.753124ZM68.53438 22.659374L66.425 22.659374L66.425 24.14375L70.01875 24.14375L70.01875 29.3L68.69063 29.3L68.69063 28.675L66.58125 28.675Q67.9875 31.4875 71.19063 33.05L70.25313 34.534374Q67.12813 32.7375 66.03438 30.2375Q64.94063 33.440624 61.346874 34.76875L60.64375 33.3625Q64.47188 31.95625 65.01875 28.675L62.909374 28.675L62.909374 29.534374L61.58125 29.534374L61.58125 24.14375L65.09688 24.14375L65.09688 22.659374L62.9875 22.659374L62.9875 21.565624Q62.20625 22.503124 61.034374 23.128124L60.175 21.8Q62.909374 20.315624 64.62813 16.878124L66.26875 17.1125Q66.50313 17.425 66.1125 17.503124Q67.9875 19.925 71.19063 21.33125L70.40938 22.7375Q69.55 22.425 68.53438 21.64375L68.53438 22.659374ZM57.909374 31.8Q57.596874 30.315624 57.284374 29.3L58.14375 29.14375Q58.6125 30.159374 58.846874 31.4875L57.909374 31.8ZM52.753124 32.971874Q53.378124 30.70625 53.378124 29.221874L54.39375 29.378124Q54.2375 31.878124 53.846874 33.3625L52.753124 32.971874ZM54.8625 32.58125Q54.8625 30.940624 54.70625 29.378124L55.565624 29.3Q55.8 30.784374 55.8 32.425L54.8625 32.58125ZM56.58125 33.20625L58.3 33.20625Q58.76875 33.20625 58.925 32.7375Q59.159374 32.1125 59.159374 31.253124L59.2375 28.20625L53.76875 28.20625L53.76875 17.659374L60.64375 17.659374L60.64375 18.909374L58.14375 18.909374L58.14375 20.628124L60.01875 20.628124L60.01875 21.878124L58.14375 21.878124L58.14375 23.753124L60.175 23.753124L60.175 25.003124L58.14375 25.003124L58.14375 26.95625L60.64375 26.95625L60.4875 31.409374Q60.409374 33.20625 60.096874 33.83125Q59.70625 34.690624 58.76875 34.690624L56.7375 34.690624L56.58125 33.20625ZM66.425 25.39375L66.425 27.425L68.69063 27.425L68.69063 25.39375L66.425 25.39375ZM65.09688 25.39375L62.909374 25.39375L62.909374 27.425L65.09688 27.425L65.09688 25.39375ZM56.89375 29.3Q57.440624 30.784374 57.440624 32.034374L56.503124 32.26875Q56.346874 30.471874 56.034374 29.378124L56.89375 29.3ZM56.815624 25.003124L55.096874 25.003124L55.096874 26.95625L56.815624 26.95625L56.815624 25.003124ZM56.815624 21.878124L55.096874 21.878124L55.096874 23.753124L56.815624 23.753124L56.815624 21.878124ZM56.815624 18.909374L55.096874 18.909374L55.096874 20.628124L56.815624 20.628124L56.815624 18.909374ZM68.14375 21.409374Q66.58125 20.315624 65.33125 18.51875Q64.39375 20.2375 63.14375 21.409374L68.14375 21.409374ZM81.58125 25.08125Q81.7375 31.01875 76.50313 34.3L75.175 32.815624Q79.78438 30.315624 79.78438 25.784374L79.78438 22.425L81.425 22.425Q82.12813 22.503124 81.58125 22.971874L81.58125 25.003124Q84.39375 22.89375 85.87813 20.8625L73.14375 21.33125L72.9875 19.534374L87.20625 19.14375L87.75313 18.9875L88.925 20.39375Q89.15938 20.70625 88.53438 20.628124Q86.19063 23.675 82.90938 26.33125L81.58125 25.08125ZM106.3 23.9875Q102.15938 32.58125 92.39375 33.05Q92.00313 34.065624 91.6125 33.20625L90.9875 31.175Q101.14375 30.940624 104.65938 22.815624L106.3 23.9875ZM95.28438 23.9875Q93.175 22.034374 91.3 20.784374L92.62813 19.14375Q94.26875 20.159374 96.76875 22.503124L95.28438 23.9875ZM107.9875 26.64375Q111.425 23.128124 112.3625 17.7375L114.31563 18.20625Q114.94063 18.3625 114.15938 18.83125Q113.69063 20.55 112.9875 22.190624L124.55 22.190624L124.55 23.909374L120.01875 23.909374Q119.31563 30.003124 114.15938 34.45625L112.3625 33.440624Q117.75313 29.14375 118.06563 23.909374L112.12813 23.909374Q111.1125 25.940624 109.55 27.503124L107.9875 26.64375ZM126.9875 26.64375L126.9875 24.925L144.40938 24.925L144.40938 26.64375L126.9875 26.64375ZM149.34688 23.675Q153.175 24.76875 157.08125 26.64375L156.14375 28.440624Q152.00313 26.33125 149.34688 25.628124L149.34688 33.753124L147.55 33.753124L147.55 18.128124L149.1125 18.128124Q150.05 18.20625 149.34688 18.753124L149.34688 23.675ZM178.8625 27.659374L183.2375 27.659374L183.2375 23.51875L178.8625 23.51875L178.8625 27.659374ZM183.2375 29.925L183.2375 29.14375L178.8625 29.14375L178.8625 30.003124L177.3 30.003124L177.3 22.034374L184.8 22.034374L184.8 29.925L183.2375 29.925ZM174.72188 32.1125L187.3 32.1125L187.3 19.378124L174.72188 19.378124L174.72188 32.1125ZM187.3 34.3L187.3 33.596874L174.72188 33.596874L174.72188 34.690624L173.15938 34.690624L173.15938 17.89375L188.8625 17.89375L188.8625 34.3L187.3 34.3ZM192.14375 26.4875Q196.83125 25.159374 200.50313 21.253124L202.3 21.565624Q202.6125 21.878124 202.06563 21.95625Q204.25313 24.45625 210.1125 25.940624L209.56563 27.659374Q206.75313 26.95625 204.95625 25.940624L204.95625 27.034374L197.14375 27.034374L197.14375 26.01875Q195.26875 27.346874 192.76875 28.128124L192.14375 26.4875ZM204.33125 25.55Q202.69063 24.690624 200.97188 22.815624Q199.87813 24.221874 197.84688 25.55L204.33125 25.55ZM192.14375 21.8Q194.01875 20.159374 195.1125 16.878124L196.75313 17.346874Q197.06563 17.659374 196.51875 17.7375L195.97188 18.83125L200.81563 18.83125L200.81563 20.08125L197.925 20.08125Q198.39375 20.940624 198.8625 22.1125L197.22188 22.58125Q196.83125 21.175 196.3625 20.08125L195.50313 20.08125Q194.56563 21.95625 193.2375 23.128124L192.14375 21.8ZM203.39375 18.83125L209.4875 18.83125L209.4875 20.08125L205.81563 20.08125Q206.44063 20.940624 206.83125 21.95625L205.19063 22.58125Q204.8 21.253124 204.175 20.08125L202.84688 20.08125L202.14375 21.33125L200.81563 20.55Q201.90938 18.83125 202.53438 16.64375L204.09688 17.1125Q204.40938 17.425 203.8625 17.503124L203.39375 18.83125ZM196.90938 29.690624L196.90938 32.425L205.34688 32.425L205.34688 29.690624L196.90938 29.690624ZM195.34688 28.440624L206.90938 28.440624L206.90938 34.534374L205.34688 34.534374L205.34688 33.675L196.90938 33.675L196.90938 34.76875L195.34688 34.76875L195.34688 28.440624ZM227.84688 22.1125Q226.9875 23.20625 225.65938 24.221874L224.4875 23.128124Q225.97188 21.95625 226.675 20.8625L228.15938 21.8Q228.39375 22.1125 227.84688 22.1125ZM226.3625 24.6125Q228.15938 25.471874 229.64375 26.721874L228.47188 28.128124Q226.9875 26.8 225.34688 25.70625L226.3625 24.6125ZM217.14375 25.784374Q215.89375 27.1125 214.33125 28.3625Q214.25313 28.909374 213.94063 28.596874L212.84688 27.26875Q214.72188 26.096874 216.12813 24.690624L217.14375 25.784374ZM217.3 26.33125L218.39375 26.33125L219.8 24.925Q219.01875 24.065624 217.45625 22.971874L218.31563 21.95625L218.8625 22.346874L220.34688 20.315624L221.44063 21.175Q221.75313 21.565624 221.20625 21.4875L219.87813 23.05L220.81563 23.909374L222.925 21.565624L223.94063 22.503124Q224.25313 22.89375 223.62813 22.815624L220.1125 26.33125L223.15938 25.940624L222.37813 24.925L223.55 24.221874Q224.56563 25.315624 225.50313 27.190624L224.175 27.971874L223.78438 27.1125L221.83125 27.346874L221.83125 29.3L229.95625 29.3L229.95625 30.784374L221.83125 30.784374L221.83125 34.690624L220.26875 34.690624L220.26875 30.784374L212.22188 30.784374L212.22188 29.3L220.26875 29.3L220.26875 27.58125L217.925 27.7375Q217.84688 28.284374 217.53438 27.971874L217.3 26.33125ZM229.01875 20.159374L213.15938 20.159374L213.15938 18.675L220.26875 18.675L220.26875 16.878124L221.75313 16.878124Q222.53438 17.034374 221.83125 17.503124L221.83125 18.675L229.01875 18.675L229.01875 20.159374ZM214.4875 21.096874Q215.89375 21.8 216.9875 22.815624L215.89375 24.14375Q214.87813 23.128124 213.47188 22.26875L214.4875 21.096874Z" fill-rule="nonzero"/></svg>