<svg version="1.1" viewBox="0.0 0.0 450.0 281.0" fill="none" stroke="none" stroke-linecap="square" stroke-miterlimit="10" width="450" height="281" xmlns:xlink="http://www.w3.org/1999/xlink" xmlns="http://www.w3.org/2000/svg"><path fill="#ffffff" d="M0 0L450.0 0L450.0 281.0L0 281.0L0 0Z" fill-rule="nonzero"/><path stroke="#333333" stroke-width="1.0" stroke-linecap="butt" d="M50.5 245.5L435.5 245.5" fill-rule="nonzero"/><path stroke="#cccccc" stroke-width="1.0" stroke-linecap="butt" d="M50.5 204.5L435.5 204.5" fill-rule="nonzero"/><path stroke="#cccccc" stroke-width="1.0" stroke-linecap="butt" d="M50.5 162.5L435.5 162.5" fill-rule="nonzero"/><path stroke="#cccccc" stroke-width="1.0" stroke-linecap="butt" d="M50.5 120.5L435.5 120.5" fill-rule="nonzero"/><path stroke="#cccccc" stroke-width="1.0" stroke-linecap="butt" d="M50.5 79.5L435.5 79.5" fill-rule="nonzero"/><clipPath id="id_0"><path d="M50.05 79.28333L435.95 79.28333L435.95 245.95L50.05 245.95L50.05 79.28333Z" clip-rule="nonzero"/></clipPath><path stroke="#000000" stroke-width="2.0" stroke-linecap="butt" stroke-opacity="0.0" clip-path="url(#id_0)" d="M160.0 246.0L109.0 246.0L109.0 81.0C109.0 79.89543 109.89543 79.0 111.0 79.0L158.0 79.0C159.10457 79.0 160.0 79.89543 160.0 81.0Z" fill-rule="nonzero"/><path fill="#4285f4" clip-path="url(#id_0)" d="M160.0 246.0L109.0 246.0L109.0 81.0C109.0 79.89543 109.89543 79.0 111.0 79.0L158.0 79.0C159.10457 79.0 160.0 79.89543 160.0 81.0Z" fill-rule="nonzero"/><path stroke="#000000" stroke-width="2.0" stroke-linecap="butt" stroke-opacity="0.0" clip-path="url(#id_0)" d="M324.0 246.0L273.0 246.0L273.0 218.0C273.0 216.89543 273.89542 216.0 275.0 216.0L322.0 216.0C323.10458 216.0 324.0 216.89543 324.0 218.0Z" fill-rule="nonzero"/><path fill="#4285f4" clip-path="url(#id_0)" d="M324.0 246.0L273.0 246.0L273.0 218.0C273.0 216.89543 273.89542 216.0 275.0 216.0L322.0 216.0C323.10458 216.0 324.0 216.89543 324.0 218.0Z" fill-rule="nonzero"/><path stroke="#000000" stroke-width="2.0" stroke-linecap="butt" stroke-opacity="0.0" clip-path="url(#id_0)" d="M213.0 246.0L162.0 246.0L162.0 81.0C162.0 79.89543 162.89543 79.0 164.0 79.0L211.0 79.0C212.10457 79.0 213.0 79.89543 213.0 81.0Z" fill-rule="nonzero"/><path fill="#db4437" clip-path="url(#id_0)" d="M213.0 246.0L162.0 246.0L162.0 81.0C162.0 79.89543 162.89543 79.0 164.0 79.0L211.0 79.0C212.10457 79.0 213.0 79.89543 213.0 81.0Z" fill-rule="nonzero"/><path stroke="#000000" stroke-width="2.0" stroke-linecap="butt" stroke-opacity="0.0" clip-path="url(#id_0)" d="M377.0 246.0L326.0 246.0L326.0 148.0C326.0 146.89543 326.89542 146.0 328.0 146.0L375.0 146.0C376.10458 146.0 377.0 146.89543 377.0 148.0Z" fill-rule="nonzero"/><path fill="#db4437" clip-path="url(#id_0)" d="M377.0 246.0L326.0 246.0L326.0 148.0C326.0 146.89543 326.89542 146.0 328.0 146.0L375.0 146.0C376.10458 146.0 377.0 146.89543 377.0 148.0Z" fill-rule="nonzero"/><path stroke="#4285f4" stroke-width="3.0" stroke-linejoin="round" stroke-linecap="round" d="M123.765625 96.083336L122.6875 96.083336L122.6875 88.864586L120.5 89.66146L120.5 88.677086L123.609375 87.50521L123.765625 87.50521L123.765625 96.083336ZM132.5625 92.44271Q132.5625 94.34896 131.90625 95.28646Q131.26562 96.208336 129.875 96.208336Q128.51562 96.208336 127.859375 95.302086Q127.203125 94.395836 127.171875 92.583336L127.171875 91.145836Q127.171875 89.25521 127.8125 88.34896Q128.46875 87.427086 129.85938 87.427086Q131.23438 87.427086 131.89062 88.31771Q132.54688 89.19271 132.5625 91.03646L132.5625 92.44271ZM131.46875 90.958336Q131.46875 89.583336 131.07812 88.958336Q130.70312 88.31771 129.85938 88.31771Q129.03125 88.31771 128.64062 88.958336Q128.26562 89.583336 128.26562 90.88021L128.26562 92.614586Q128.26562 93.989586 128.65625 94.66146Q129.0625 95.31771 129.875 95.31771Q130.67188 95.31771 131.0625 94.69271Q131.45312 94.06771 131.46875 92.739586L131.46875 90.958336ZM139.5625 92.44271Q139.5625 94.34896 138.90625 95.28646Q138.26562 96.208336 136.875 96.208336Q135.51562 96.208336 134.85938 95.302086Q134.20312 94.395836 134.17188 92.583336L134.17188 91.145836Q134.17188 89.25521 134.8125 88.34896Q135.46875 87.427086 136.85938 87.427086Q138.23438 87.427086 138.89062 88.31771Q139.54688 89.19271 139.5625 91.03646L139.5625 92.44271ZM138.46875 90.958336Q138.46875 89.583336 138.07812 88.958336Q137.70312 88.31771 136.85938 88.31771Q136.03125 88.31771 135.64062 88.958336Q135.26562 89.583336 135.26562 90.88021L135.26562 92.614586Q135.26562 93.989586 135.65625 94.66146Q136.0625 95.31771 136.875 95.31771Q137.67188 95.31771 138.0625 94.69271Q138.45312 94.06771 138.46875 92.739586L138.46875 90.958336ZM141.10938 89.19271Q141.10938 88.427086 141.59375 87.927086Q142.09375 87.427086 142.85938 87.427086Q143.64062 87.427086 144.125 87.927086Q144.60938 88.427086 144.60938 89.22396L144.60938 89.645836Q144.60938 90.41146 144.10938 90.91146Q143.625 91.395836 142.875 91.395836Q142.10938 91.395836 141.60938 90.91146Q141.10938 90.41146 141.10938 89.59896L141.10938 89.19271ZM141.92188 89.645836Q141.92188 90.09896 142.17188 90.395836Q142.4375 90.69271 142.875 90.69271Q143.29688 90.69271 143.54688 90.41146Q143.79688 90.114586 143.79688 89.614586L143.79688 89.19271Q143.79688 88.739586 143.54688 88.44271Q143.29688 88.13021 142.85938 88.13021Q142.42188 88.13021 142.17188 88.44271Q141.92188 88.739586 141.92188 89.208336L141.92188 89.645836ZM145.26562 93.989586Q145.26562 93.22396 145.75 92.739586Q146.25 92.239586 147.01562 92.239586Q147.78125 92.239586 148.26562 92.739586Q148.76562 93.22396 148.76562 94.03646L148.76562 94.44271Q148.76562 95.208336 148.28125 95.708336Q147.79688 96.208336 147.03125 96.208336Q146.26562 96.208336 145.76562 95.72396Q145.26562 95.22396 145.26562 94.41146L145.26562 93.989586ZM146.07812 94.44271Q146.07812 94.91146 146.32812 95.208336Q146.59375 95.50521 147.03125 95.50521Q147.45312 95.50521 147.70312 95.22396Q147.95312 94.927086 147.95312 94.427086L147.95312 93.989586Q147.95312 93.520836 147.6875 93.239586Q147.4375 92.94271 147.01562 92.94271Q146.59375 92.94271 146.32812 93.239586Q146.07812 93.520836 146.07812 94.020836L146.07812 94.44271ZM143.125 95.44271L142.5 95.052086L146.67188 88.38021L147.28125 88.770836L143.125 95.44271Z" fill-rule="nonzero"/><path fill="#ffffff" d="M123.765625 96.083336L122.6875 96.083336L122.6875 88.864586L120.5 89.66146L120.5 88.677086L123.609375 87.50521L123.765625 87.50521L123.765625 96.083336ZM132.5625 92.44271Q132.5625 94.34896 131.90625 95.28646Q131.26562 96.208336 129.875 96.208336Q128.51562 96.208336 127.859375 95.302086Q127.203125 94.395836 127.171875 92.583336L127.171875 91.145836Q127.171875 89.25521 127.8125 88.34896Q128.46875 87.427086 129.85938 87.427086Q131.23438 87.427086 131.89062 88.31771Q132.54688 89.19271 132.5625 91.03646L132.5625 92.44271ZM131.46875 90.958336Q131.46875 89.583336 131.07812 88.958336Q130.70312 88.31771 129.85938 88.31771Q129.03125 88.31771 128.64062 88.958336Q128.26562 89.583336 128.26562 90.88021L128.26562 92.614586Q128.26562 93.989586 128.65625 94.66146Q129.0625 95.31771 129.875 95.31771Q130.67188 95.31771 131.0625 94.69271Q131.45312 94.06771 131.46875 92.739586L131.46875 90.958336ZM139.5625 92.44271Q139.5625 94.34896 138.90625 95.28646Q138.26562 96.208336 136.875 96.208336Q135.51562 96.208336 134.85938 95.302086Q134.20312 94.395836 134.17188 92.583336L134.17188 91.145836Q134.17188 89.25521 134.8125 88.34896Q135.46875 87.427086 136.85938 87.427086Q138.23438 87.427086 138.89062 88.31771Q139.54688 89.19271 139.5625 91.03646L139.5625 92.44271ZM138.46875 90.958336Q138.46875 89.583336 138.07812 88.958336Q137.70312 88.31771 136.85938 88.31771Q136.03125 88.31771 135.64062 88.958336Q135.26562 89.583336 135.26562 90.88021L135.26562 92.614586Q135.26562 93.989586 135.65625 94.66146Q136.0625 95.31771 136.875 95.31771Q137.67188 95.31771 138.0625 94.69271Q138.45312 94.06771 138.46875 92.739586L138.46875 90.958336ZM141.10938 89.19271Q141.10938 88.427086 141.59375 87.927086Q142.09375 87.427086 142.85938 87.427086Q143.64062 87.427086 144.125 87.927086Q144.60938 88.427086 144.60938 89.22396L144.60938 89.645836Q144.60938 90.41146 144.10938 90.91146Q143.625 91.395836 142.875 91.395836Q142.10938 91.395836 141.60938 90.91146Q141.10938 90.41146 141.10938 89.59896L141.10938 89.19271ZM141.92188 89.645836Q141.92188 90.09896 142.17188 90.395836Q142.4375 90.69271 142.875 90.69271Q143.29688 90.69271 143.54688 90.41146Q143.79688 90.114586 143.79688 89.614586L143.79688 89.19271Q143.79688 88.739586 143.54688 88.44271Q143.29688 88.13021 142.85938 88.13021Q142.42188 88.13021 142.17188 88.44271Q141.92188 88.739586 141.92188 89.208336L141.92188 89.645836ZM145.26562 93.989586Q145.26562 93.22396 145.75 92.739586Q146.25 92.239586 147.01562 92.239586Q147.78125 92.239586 148.26562 92.739586Q148.76562 93.22396 148.76562 94.03646L148.76562 94.44271Q148.76562 95.208336 148.28125 95.708336Q147.79688 96.208336 147.03125 96.208336Q146.26562 96.208336 145.76562 95.72396Q145.26562 95.22396 145.26562 94.41146L145.26562 93.989586ZM146.07812 94.44271Q146.07812 94.91146 146.32812 95.208336Q146.59375 95.50521 147.03125 95.50521Q147.45312 95.50521 147.70312 95.22396Q147.95312 94.927086 147.95312 94.427086L147.95312 93.989586Q147.95312 93.520836 147.6875 93.239586Q147.4375 92.94271 147.01562 92.94271Q146.59375 92.94271 146.32812 93.239586Q146.07812 93.520836 146.07812 94.020836L146.07812 94.44271ZM143.125 95.44271L142.5 95.052086L146.67188 88.38021L147.28125 88.770836L143.125 95.44271Z" fill-rule="nonzero"/><path stroke="#4285f4" stroke-width="3.0" stroke-linejoin="round" stroke-linecap="round" d="M291.26562 232.44698L290.1875 232.44698L290.1875 225.22823L288.0 226.0251L288.0 225.04073L291.10938 223.86885L291.26562 223.86885L291.26562 232.44698ZM299.89062 226.13448Q299.89062 226.7751 299.54688 227.2751Q299.20312 227.7751 298.64062 228.05635Q299.29688 228.3376 299.6875 228.9001Q300.07812 229.44698 300.07812 230.1501Q300.07812 231.24385 299.32812 231.91573Q298.59375 232.57198 297.375 232.57198Q296.14062 232.57198 295.39062 231.91573Q294.65625 231.24385 294.65625 230.1501Q294.65625 229.44698 295.03125 228.9001Q295.40625 228.3376 296.07812 228.05635Q295.51562 227.7751 295.1875 227.2751Q294.85938 226.7751 294.85938 226.13448Q294.85938 225.05635 295.54688 224.43135Q296.23438 223.79073 297.375 223.79073Q298.5 223.79073 299.1875 224.43135Q299.89062 225.05635 299.89062 226.13448ZM299.0 230.11885Q299.0 229.4001 298.54688 228.9626Q298.09375 228.50948 297.35938 228.50948Q296.625 228.50948 296.17188 228.9626Q295.73438 229.4001 295.73438 230.13448Q295.73438 230.85323 296.17188 231.2751Q296.60938 231.68135 297.375 231.68135Q298.125 231.68135 298.5625 231.25948Q299.0 230.8376 299.0 230.11885ZM297.375 224.68135Q296.73438 224.68135 296.32812 225.0876Q295.9375 225.47823 295.9375 226.16573Q295.9375 226.80635 296.32812 227.2126Q296.71875 227.61885 297.35938 227.61885Q298.01562 227.61885 298.40625 227.2126Q298.79688 226.80635 298.79688 226.16573Q298.79688 225.50948 298.39062 225.10323Q297.98438 224.68135 297.375 224.68135ZM301.60938 225.55635Q301.60938 224.79073 302.09375 224.29073Q302.59375 223.79073 303.35938 223.79073Q304.14062 223.79073 304.625 224.29073Q305.10938 224.79073 305.10938 225.5876L305.10938 226.00948Q305.10938 226.7751 304.60938 227.2751Q304.125 227.75948 303.375 227.75948Q302.60938 227.75948 302.10938 227.2751Q301.60938 226.7751 301.60938 225.9626L301.60938 225.55635ZM302.42188 226.00948Q302.42188 226.4626 302.67188 226.75948Q302.9375 227.05635 303.375 227.05635Q303.79688 227.05635 304.04688 226.7751Q304.29688 226.47823 304.29688 225.97823L304.29688 225.55635Q304.29688 225.10323 304.04688 224.80635Q303.79688 224.49385 303.35938 224.49385Q302.92188 224.49385 302.67188 224.80635Q302.42188 225.10323 302.42188 225.57198L302.42188 226.00948ZM305.76562 230.35323Q305.76562 229.5876 306.25 229.10323Q306.75 228.60323 307.51562 228.60323Q308.28125 228.60323 308.76562 229.10323Q309.26562 229.5876 309.26562 230.4001L309.26562 230.80635Q309.26562 231.57198 308.78125 232.07198Q308.29688 232.57198 307.53125 232.57198Q306.76562 232.57198 306.26562 232.0876Q305.76562 231.5876 305.76562 230.7751L305.76562 230.35323ZM306.57812 230.80635Q306.57812 231.2751 306.82812 231.57198Q307.09375 231.86885 307.53125 231.86885Q307.95312 231.86885 308.20312 231.5876Q308.45312 231.29073 308.45312 230.79073L308.45312 230.35323Q308.45312 229.88448 308.1875 229.60323Q307.9375 229.30635 307.51562 229.30635Q307.09375 229.30635 306.82812 229.60323Q306.57812 229.88448 306.57812 230.38448L306.57812 230.80635ZM303.625 231.80635L303.0 231.41573L307.17188 224.74385L307.78125 225.13448L303.625 231.80635Z" fill-rule="nonzero"/><path fill="#ffffff" d="M291.26562 232.44698L290.1875 232.44698L290.1875 225.22823L288.0 226.0251L288.0 225.04073L291.10938 223.86885L291.26562 223.86885L291.26562 232.44698ZM299.89062 226.13448Q299.89062 226.7751 299.54688 227.2751Q299.20312 227.7751 298.64062 228.05635Q299.29688 228.3376 299.6875 228.9001Q300.07812 229.44698 300.07812 230.1501Q300.07812 231.24385 299.32812 231.91573Q298.59375 232.57198 297.375 232.57198Q296.14062 232.57198 295.39062 231.91573Q294.65625 231.24385 294.65625 230.1501Q294.65625 229.44698 295.03125 228.9001Q295.40625 228.3376 296.07812 228.05635Q295.51562 227.7751 295.1875 227.2751Q294.85938 226.7751 294.85938 226.13448Q294.85938 225.05635 295.54688 224.43135Q296.23438 223.79073 297.375 223.79073Q298.5 223.79073 299.1875 224.43135Q299.89062 225.05635 299.89062 226.13448ZM299.0 230.11885Q299.0 229.4001 298.54688 228.9626Q298.09375 228.50948 297.35938 228.50948Q296.625 228.50948 296.17188 228.9626Q295.73438 229.4001 295.73438 230.13448Q295.73438 230.85323 296.17188 231.2751Q296.60938 231.68135 297.375 231.68135Q298.125 231.68135 298.5625 231.25948Q299.0 230.8376 299.0 230.11885ZM297.375 224.68135Q296.73438 224.68135 296.32812 225.0876Q295.9375 225.47823 295.9375 226.16573Q295.9375 226.80635 296.32812 227.2126Q296.71875 227.61885 297.35938 227.61885Q298.01562 227.61885 298.40625 227.2126Q298.79688 226.80635 298.79688 226.16573Q298.79688 225.50948 298.39062 225.10323Q297.98438 224.68135 297.375 224.68135ZM301.60938 225.55635Q301.60938 224.79073 302.09375 224.29073Q302.59375 223.79073 303.35938 223.79073Q304.14062 223.79073 304.625 224.29073Q305.10938 224.79073 305.10938 225.5876L305.10938 226.00948Q305.10938 226.7751 304.60938 227.2751Q304.125 227.75948 303.375 227.75948Q302.60938 227.75948 302.10938 227.2751Q301.60938 226.7751 301.60938 225.9626L301.60938 225.55635ZM302.42188 226.00948Q302.42188 226.4626 302.67188 226.75948Q302.9375 227.05635 303.375 227.05635Q303.79688 227.05635 304.04688 226.7751Q304.29688 226.47823 304.29688 225.97823L304.29688 225.55635Q304.29688 225.10323 304.04688 224.80635Q303.79688 224.49385 303.35938 224.49385Q302.92188 224.49385 302.67188 224.80635Q302.42188 225.10323 302.42188 225.57198L302.42188 226.00948ZM305.76562 230.35323Q305.76562 229.5876 306.25 229.10323Q306.75 228.60323 307.51562 228.60323Q308.28125 228.60323 308.76562 229.10323Q309.26562 229.5876 309.26562 230.4001L309.26562 230.80635Q309.26562 231.57198 308.78125 232.07198Q308.29688 232.57198 307.53125 232.57198Q306.76562 232.57198 306.26562 232.0876Q305.76562 231.5876 305.76562 230.7751L305.76562 230.35323ZM306.57812 230.80635Q306.57812 231.2751 306.82812 231.57198Q307.09375 231.86885 307.53125 231.86885Q307.95312 231.86885 308.20312 231.5876Q308.45312 231.29073 308.45312 230.79073L308.45312 230.35323Q308.45312 229.88448 308.1875 229.60323Q307.9375 229.30635 307.51562 229.30635Q307.09375 229.30635 306.82812 229.60323Q306.57812 229.88448 306.57812 230.38448L306.57812 230.80635ZM303.625 231.80635L303.0 231.41573L307.17188 224.74385L307.78125 225.13448L303.625 231.80635Z" fill-rule="nonzero"/><path stroke="#db4437" stroke-width="3.0" stroke-linejoin="round" stroke-linecap="round" d="M176.76562 96.083336L175.6875 96.083336L175.6875 88.864586L173.5 89.66146L173.5 88.677086L176.60938 87.50521L176.76562 87.50521L176.76562 96.083336ZM185.5625 92.44271Q185.5625 94.34896 184.90625 95.28646Q184.26562 96.208336 182.875 96.208336Q181.51562 96.208336 180.85938 95.302086Q180.20312 94.395836 180.17188 92.583336L180.17188 91.145836Q180.17188 89.25521 180.8125 88.34896Q181.46875 87.427086 182.85938 87.427086Q184.23438 87.427086 184.89062 88.31771Q185.54688 89.19271 185.5625 91.03646L185.5625 92.44271ZM184.46875 90.958336Q184.46875 89.583336 184.07812 88.958336Q183.70312 88.31771 182.85938 88.31771Q182.03125 88.31771 181.64062 88.958336Q181.26562 89.583336 181.26562 90.88021L181.26562 92.614586Q181.26562 93.989586 181.65625 94.66146Q182.0625 95.31771 182.875 95.31771Q183.67188 95.31771 184.0625 94.69271Q184.45312 94.06771 184.46875 92.739586L184.46875 90.958336ZM192.5625 92.44271Q192.5625 94.34896 191.90625 95.28646Q191.26562 96.208336 189.875 96.208336Q188.51562 96.208336 187.85938 95.302086Q187.20312 94.395836 187.17188 92.583336L187.17188 91.145836Q187.17188 89.25521 187.8125 88.34896Q188.46875 87.427086 189.85938 87.427086Q191.23438 87.427086 191.89062 88.31771Q192.54688 89.19271 192.5625 91.03646L192.5625 92.44271ZM191.46875 90.958336Q191.46875 89.583336 191.07812 88.958336Q190.70312 88.31771 189.85938 88.31771Q189.03125 88.31771 188.64062 88.958336Q188.26562 89.583336 188.26562 90.88021L188.26562 92.614586Q188.26562 93.989586 188.65625 94.66146Q189.0625 95.31771 189.875 95.31771Q190.67188 95.31771 191.0625 94.69271Q191.45312 94.06771 191.46875 92.739586L191.46875 90.958336ZM194.10938 89.19271Q194.10938 88.427086 194.59375 87.927086Q195.09375 87.427086 195.85938 87.427086Q196.64062 87.427086 197.125 87.927086Q197.60938 88.427086 197.60938 89.22396L197.60938 89.645836Q197.60938 90.41146 197.10938 90.91146Q196.625 91.395836 195.875 91.395836Q195.10938 91.395836 194.60938 90.91146Q194.10938 90.41146 194.10938 89.59896L194.10938 89.19271ZM194.92188 89.645836Q194.92188 90.09896 195.17188 90.395836Q195.4375 90.69271 195.875 90.69271Q196.29688 90.69271 196.54688 90.41146Q196.79688 90.114586 196.79688 89.614586L196.79688 89.19271Q196.79688 88.739586 196.54688 88.44271Q196.29688 88.13021 195.85938 88.13021Q195.42188 88.13021 195.17188 88.44271Q194.92188 88.739586 194.92188 89.208336L194.92188 89.645836ZM198.26562 93.989586Q198.26562 93.22396 198.75 92.739586Q199.25 92.239586 200.01562 92.239586Q200.78125 92.239586 201.26562 92.739586Q201.76562 93.22396 201.76562 94.03646L201.76562 94.44271Q201.76562 95.208336 201.28125 95.708336Q200.79688 96.208336 200.03125 96.208336Q199.26562 96.208336 198.76562 95.72396Q198.26562 95.22396 198.26562 94.41146L198.26562 93.989586ZM199.07812 94.44271Q199.07812 94.91146 199.32812 95.208336Q199.59375 95.50521 200.03125 95.50521Q200.45312 95.50521 200.70312 95.22396Q200.95312 94.927086 200.95312 94.427086L200.95312 93.989586Q200.95312 93.520836 200.6875 93.239586Q200.4375 92.94271 200.01562 92.94271Q199.59375 92.94271 199.32812 93.239586Q199.07812 93.520836 199.07812 94.020836L199.07812 94.44271ZM196.125 95.44271L195.5 95.052086L199.67188 88.38021L200.28125 88.770836L196.125 95.44271Z" fill-rule="nonzero"/><path fill="#ffffff" d="M176.76562 96.083336L175.6875 96.083336L175.6875 88.864586L173.5 89.66146L173.5 88.677086L176.60938 87.50521L176.76562 87.50521L176.76562 96.083336ZM185.5625 92.44271Q185.5625 94.34896 184.90625 95.28646Q184.26562 96.208336 182.875 96.208336Q181.51562 96.208336 180.85938 95.302086Q180.20312 94.395836 180.17188 92.583336L180.17188 91.145836Q180.17188 89.25521 180.8125 88.34896Q181.46875 87.427086 182.85938 87.427086Q184.23438 87.427086 184.89062 88.31771Q185.54688 89.19271 185.5625 91.03646L185.5625 92.44271ZM184.46875 90.958336Q184.46875 89.583336 184.07812 88.958336Q183.70312 88.31771 182.85938 88.31771Q182.03125 88.31771 181.64062 88.958336Q181.26562 89.583336 181.26562 90.88021L181.26562 92.614586Q181.26562 93.989586 181.65625 94.66146Q182.0625 95.31771 182.875 95.31771Q183.67188 95.31771 184.0625 94.69271Q184.45312 94.06771 184.46875 92.739586L184.46875 90.958336ZM192.5625 92.44271Q192.5625 94.34896 191.90625 95.28646Q191.26562 96.208336 189.875 96.208336Q188.51562 96.208336 187.85938 95.302086Q187.20312 94.395836 187.17188 92.583336L187.17188 91.145836Q187.17188 89.25521 187.8125 88.34896Q188.46875 87.427086 189.85938 87.427086Q191.23438 87.427086 191.89062 88.31771Q192.54688 89.19271 192.5625 91.03646L192.5625 92.44271ZM191.46875 90.958336Q191.46875 89.583336 191.07812 88.958336Q190.70312 88.31771 189.85938 88.31771Q189.03125 88.31771 188.64062 88.958336Q188.26562 89.583336 188.26562 90.88021L188.26562 92.614586Q188.26562 93.989586 188.65625 94.66146Q189.0625 95.31771 189.875 95.31771Q190.67188 95.31771 191.0625 94.69271Q191.45312 94.06771 191.46875 92.739586L191.46875 90.958336ZM194.10938 89.19271Q194.10938 88.427086 194.59375 87.927086Q195.09375 87.427086 195.85938 87.427086Q196.64062 87.427086 197.125 87.927086Q197.60938 88.427086 197.60938 89.22396L197.60938 89.645836Q197.60938 90.41146 197.10938 90.91146Q196.625 91.395836 195.875 91.395836Q195.10938 91.395836 194.60938 90.91146Q194.10938 90.41146 194.10938 89.59896L194.10938 89.19271ZM194.92188 89.645836Q194.92188 90.09896 195.17188 90.395836Q195.4375 90.69271 195.875 90.69271Q196.29688 90.69271 196.54688 90.41146Q196.79688 90.114586 196.79688 89.614586L196.79688 89.19271Q196.79688 88.739586 196.54688 88.44271Q196.29688 88.13021 195.85938 88.13021Q195.42188 88.13021 195.17188 88.44271Q194.92188 88.739586 194.92188 89.208336L194.92188 89.645836ZM198.26562 93.989586Q198.26562 93.22396 198.75 92.739586Q199.25 92.239586 200.01562 92.239586Q200.78125 92.239586 201.26562 92.739586Q201.76562 93.22396 201.76562 94.03646L201.76562 94.44271Q201.76562 95.208336 201.28125 95.708336Q200.79688 96.208336 200.03125 96.208336Q199.26562 96.208336 198.76562 95.72396Q198.26562 95.22396 198.26562 94.41146L198.26562 93.989586ZM199.07812 94.44271Q199.07812 94.91146 199.32812 95.208336Q199.59375 95.50521 200.03125 95.50521Q200.45312 95.50521 200.70312 95.22396Q200.95312 94.927086 200.95312 94.427086L200.95312 93.989586Q200.95312 93.520836 200.6875 93.239586Q200.4375 92.94271 200.01562 92.94271Q199.59375 92.94271 199.32812 93.239586Q199.07812 93.520836 199.07812 94.020836L199.07812 94.44271ZM196.125 95.44271L195.5 95.052086L199.67188 88.38021L200.28125 88.770836L196.125 95.44271Z" fill-rule="nonzero"/><path stroke="#db4437" stroke-width="3.0" stroke-linejoin="round" stroke-linecap="round" d="M344.96875 154.21875L344.96875 155.125L344.76562 155.125Q343.5 155.15625 342.75 155.89062Q342.0 156.60938 341.875 157.92188Q342.5625 157.15625 343.71875 157.15625Q344.82812 157.15625 345.5 157.9375Q346.17188 158.71875 346.17188 159.96875Q346.17188 161.28125 345.45312 162.07812Q344.73438 162.875 343.51562 162.875Q342.29688 162.875 341.53125 161.9375Q340.78125 160.98438 340.78125 159.5L340.78125 159.09375Q340.78125 156.73438 341.78125 155.48438Q342.78125 154.23438 344.76562 154.21875L344.96875 154.21875ZM343.54688 158.0625Q342.98438 158.0625 342.51562 158.39062Q342.04688 158.71875 341.85938 159.23438L341.85938 159.625Q341.85938 160.6875 342.32812 161.32812Q342.8125 161.96875 343.51562 161.96875Q344.25 161.96875 344.67188 161.4375Q345.09375 160.89062 345.09375 160.01562Q345.09375 159.14062 344.67188 158.60938Q344.25 158.0625 343.54688 158.0625ZM353.0625 159.10938Q353.0625 161.01562 352.40625 161.95312Q351.76562 162.875 350.375 162.875Q349.01562 162.875 348.35938 161.96875Q347.70312 161.0625 347.67188 159.25L347.67188 157.8125Q347.67188 155.92188 348.3125 155.01562Q348.96875 154.09375 350.35938 154.09375Q351.73438 154.09375 352.39062 154.98438Q353.04688 155.85938 353.0625 157.70312L353.0625 159.10938ZM351.96875 157.625Q351.96875 156.25 351.57812 155.625Q351.20312 154.98438 350.35938 154.98438Q349.53125 154.98438 349.14062 155.625Q348.76562 156.25 348.76562 157.54688L348.76562 159.28125Q348.76562 160.65625 349.15625 161.32812Q349.5625 161.98438 350.375 161.98438Q351.17188 161.98438 351.5625 161.35938Q351.95312 160.73438 351.96875 159.40625L351.96875 157.625ZM354.60938 155.85938Q354.60938 155.09375 355.09375 154.59375Q355.59375 154.09375 356.35938 154.09375Q357.14062 154.09375 357.625 154.59375Q358.10938 155.09375 358.10938 155.89062L358.10938 156.3125Q358.10938 157.07812 357.60938 157.57812Q357.125 158.0625 356.375 158.0625Q355.60938 158.0625 355.10938 157.57812Q354.60938 157.07812 354.60938 156.26562L354.60938 155.85938ZM355.42188 156.3125Q355.42188 156.76562 355.67188 157.0625Q355.9375 157.35938 356.375 157.35938Q356.79688 157.35938 357.04688 157.07812Q357.29688 156.78125 357.29688 156.28125L357.29688 155.85938Q357.29688 155.40625 357.04688 155.10938Q356.79688 154.79688 356.35938 154.79688Q355.92188 154.79688 355.67188 155.10938Q355.42188 155.40625 355.42188 155.875L355.42188 156.3125ZM358.76562 160.65625Q358.76562 159.89062 359.25 159.40625Q359.75 158.90625 360.51562 158.90625Q361.28125 158.90625 361.76562 159.40625Q362.26562 159.89062 362.26562 160.70312L362.26562 161.10938Q362.26562 161.875 361.78125 162.375Q361.29688 162.875 360.53125 162.875Q359.76562 162.875 359.26562 162.39062Q358.76562 161.89062 358.76562 161.07812L358.76562 160.65625ZM359.57812 161.10938Q359.57812 161.57812 359.82812 161.875Q360.09375 162.17188 360.53125 162.17188Q360.95312 162.17188 361.20312 161.89062Q361.45312 161.59375 361.45312 161.09375L361.45312 160.65625Q361.45312 160.1875 361.1875 159.90625Q360.9375 159.60938 360.51562 159.60938Q360.09375 159.60938 359.82812 159.90625Q359.57812 160.1875 359.57812 160.6875L359.57812 161.10938ZM356.625 162.10938L356.0 161.71875L360.17188 155.04688L360.78125 155.4375L356.625 162.10938Z" fill-rule="nonzero"/><path fill="#ffffff" d="M344.96875 154.21875L344.96875 155.125L344.76562 155.125Q343.5 155.15625 342.75 155.89062Q342.0 156.60938 341.875 157.92188Q342.5625 157.15625 343.71875 157.15625Q344.82812 157.15625 345.5 157.9375Q346.17188 158.71875 346.17188 159.96875Q346.17188 161.28125 345.45312 162.07812Q344.73438 162.875 343.51562 162.875Q342.29688 162.875 341.53125 161.9375Q340.78125 160.98438 340.78125 159.5L340.78125 159.09375Q340.78125 156.73438 341.78125 155.48438Q342.78125 154.23438 344.76562 154.21875L344.96875 154.21875ZM343.54688 158.0625Q342.98438 158.0625 342.51562 158.39062Q342.04688 158.71875 341.85938 159.23438L341.85938 159.625Q341.85938 160.6875 342.32812 161.32812Q342.8125 161.96875 343.51562 161.96875Q344.25 161.96875 344.67188 161.4375Q345.09375 160.89062 345.09375 160.01562Q345.09375 159.14062 344.67188 158.60938Q344.25 158.0625 343.54688 158.0625ZM353.0625 159.10938Q353.0625 161.01562 352.40625 161.95312Q351.76562 162.875 350.375 162.875Q349.01562 162.875 348.35938 161.96875Q347.70312 161.0625 347.67188 159.25L347.67188 157.8125Q347.67188 155.92188 348.3125 155.01562Q348.96875 154.09375 350.35938 154.09375Q351.73438 154.09375 352.39062 154.98438Q353.04688 155.85938 353.0625 157.70312L353.0625 159.10938ZM351.96875 157.625Q351.96875 156.25 351.57812 155.625Q351.20312 154.98438 350.35938 154.98438Q349.53125 154.98438 349.14062 155.625Q348.76562 156.25 348.76562 157.54688L348.76562 159.28125Q348.76562 160.65625 349.15625 161.32812Q349.5625 161.98438 350.375 161.98438Q351.17188 161.98438 351.5625 161.35938Q351.95312 160.73438 351.96875 159.40625L351.96875 157.625ZM354.60938 155.85938Q354.60938 155.09375 355.09375 154.59375Q355.59375 154.09375 356.35938 154.09375Q357.14062 154.09375 357.625 154.59375Q358.10938 155.09375 358.10938 155.89062L358.10938 156.3125Q358.10938 157.07812 357.60938 157.57812Q357.125 158.0625 356.375 158.0625Q355.60938 158.0625 355.10938 157.57812Q354.60938 157.07812 354.60938 156.26562L354.60938 155.85938ZM355.42188 156.3125Q355.42188 156.76562 355.67188 157.0625Q355.9375 157.35938 356.375 157.35938Q356.79688 157.35938 357.04688 157.07812Q357.29688 156.78125 357.29688 156.28125L357.29688 155.85938Q357.29688 155.40625 357.04688 155.10938Q356.79688 154.79688 356.35938 154.79688Q355.92188 154.79688 355.67188 155.10938Q355.42188 155.40625 355.42188 155.875L355.42188 156.3125ZM358.76562 160.65625Q358.76562 159.89062 359.25 159.40625Q359.75 158.90625 360.51562 158.90625Q361.28125 158.90625 361.76562 159.40625Q362.26562 159.89062 362.26562 160.70312L362.26562 161.10938Q362.26562 161.875 361.78125 162.375Q361.29688 162.875 360.53125 162.875Q359.76562 162.875 359.26562 162.39062Q358.76562 161.89062 358.76562 161.07812L358.76562 160.65625ZM359.57812 161.10938Q359.57812 161.57812 359.82812 161.875Q360.09375 162.17188 360.53125 162.17188Q360.95312 162.17188 361.20312 161.89062Q361.45312 161.59375 361.45312 161.09375L361.45312 160.65625Q361.45312 160.1875 361.1875 159.90625Q360.9375 159.60938 360.51562 159.60938Q360.09375 159.60938 359.82812 159.90625Q359.57812 160.1875 359.57812 160.6875L359.57812 161.10938ZM356.625 162.10938L356.0 161.71875L360.17188 155.04688L360.78125 155.4375L356.625 162.10938Z" fill-rule="nonzero"/><path fill="#757575" d="M34.1125 246.80937Q34.1125 248.71562 33.45625 249.65312Q32.815624 250.575 31.425 250.575Q30.065624 250.575 29.409374 249.66875Q28.753124 248.7625 28.721874 246.95L28.721874 245.5125Q28.721874 243.62187 29.3625 242.71562Q30.01875 241.79375 31.409374 241.79375Q32.784374 241.79375 33.440624 242.68437Q34.096874 243.55937 34.1125 245.40312L34.1125 246.80937ZM33.01875 245.325Q33.01875 243.95 32.628124 243.325Q32.253124 242.68437 31.409374 242.68437Q30.58125 242.68437 30.190624 243.325Q29.815624 243.95 29.815624 245.24687L29.815624 246.98125Q29.815624 248.35625 30.20625 249.02812Q30.6125 249.68437 31.425 249.68437Q32.221874 249.68437 32.6125 249.05937Q33.003124 248.43437 33.01875 247.10625L33.01875 245.325ZM35.659374 243.55937Q35.659374 242.79375 36.14375 242.29375Q36.64375 241.79375 37.409374 241.79375Q38.190624 241.79375 38.675 242.29375Q39.159374 242.79375 39.159374 243.59062L39.159374 244.0125Q39.159374 244.77812 38.659374 245.27812Q38.175 245.7625 37.425 245.7625Q36.659374 245.7625 36.159374 245.27812Q35.659374 244.77812 35.659374 243.96562L35.659374 243.55937ZM36.471874 244.0125Q36.471874 244.46562 36.721874 244.7625Q36.9875 245.05937 37.425 245.05937Q37.846874 245.05937 38.096874 244.77812Q38.346874 244.48125 38.346874 243.98125L38.346874 243.55937Q38.346874 243.10625 38.096874 242.80937Q37.846874 242.49687 37.409374 242.49687Q36.971874 242.49687 36.721874 242.80937Q36.471874 243.10625 36.471874 243.575L36.471874 244.0125ZM39.815624 248.35625Q39.815624 247.59062 40.3 247.10625Q40.8 246.60625 41.565624 246.60625Q42.33125 246.60625 42.815624 247.10625Q43.315624 247.59062 43.315624 248.40312L43.315624 248.80937Q43.315624 249.575 42.83125 250.075Q42.346874 250.575 41.58125 250.575Q40.815624 250.575 40.315624 250.09062Q39.815624 249.59062 39.815624 248.77812L39.815624 248.35625ZM40.628124 248.80937Q40.628124 249.27812 40.878124 249.575Q41.14375 249.87187 41.58125 249.87187Q42.003124 249.87187 42.253124 249.59062Q42.503124 249.29375 42.503124 248.79375L42.503124 248.35625Q42.503124 247.8875 42.2375 247.60625Q41.9875 247.30937 41.565624 247.30937Q41.14375 247.30937 40.878124 247.60625Q40.628124 247.8875 40.628124 248.3875L40.628124 248.80937ZM37.675 249.80937L37.05 249.41875L41.221874 242.74687L41.83125 243.1375L37.675 249.80937Z" fill-rule="nonzero"/><path fill="#757575" d="M27.346874 208.78334L21.753124 208.78334L21.753124 208.00209L24.70625 204.72084Q25.3625 203.97084 25.6125 203.51772Q25.8625 203.04897 25.8625 202.54897Q25.8625 201.87709 25.45625 201.45522Q25.065624 201.01772 24.378124 201.01772Q23.58125 201.01772 23.128124 201.48647Q22.675 201.93959 22.675 202.76772L21.596874 202.76772Q21.596874 201.58022 22.346874 200.86147Q23.1125 200.12709 24.378124 200.12709Q25.58125 200.12709 26.26875 200.75209Q26.95625 201.37709 26.95625 202.42397Q26.95625 203.67397 25.346874 205.42397L23.065624 207.89272L27.346874 207.89272L27.346874 208.78334ZM29.253124 204.50209L29.690624 200.25209L34.065624 200.25209L34.065624 201.25209L30.6125 201.25209L30.346874 203.58022Q30.9875 203.20522 31.784374 203.20522Q32.940624 203.20522 33.628124 203.98647Q34.315624 204.75209 34.315624 206.06459Q34.315624 207.37709 33.596874 208.14272Q32.89375 208.90834 31.6125 208.90834Q30.4875 208.90834 29.76875 208.28334Q29.05 207.64272 28.95625 206.53334L29.971874 206.53334Q30.08125 207.26772 30.503124 207.64272Q30.925 208.01772 31.6125 208.01772Q32.3625 208.01772 32.8 207.50209Q33.2375 206.98647 33.2375 206.08022Q33.2375 205.22084 32.76875 204.70522Q32.3 204.18959 31.51875 204.18959Q30.815624 204.18959 30.409374 204.48647L30.128124 204.72084L29.253124 204.50209ZM35.659374 201.89272Q35.659374 201.12709 36.14375 200.62709Q36.64375 200.12709 37.409374 200.12709Q38.190624 200.12709 38.675 200.62709Q39.159374 201.12709 39.159374 201.92397L39.159374 202.34584Q39.159374 203.11147 38.659374 203.61147Q38.175 204.09584 37.425 204.09584Q36.659374 204.09584 36.159374 203.61147Q35.659374 203.11147 35.659374 202.29897L35.659374 201.89272ZM36.471874 202.34584Q36.471874 202.79897 36.721874 203.09584Q36.9875 203.39272 37.425 203.39272Q37.846874 203.39272 38.096874 203.11147Q38.346874 202.81459 38.346874 202.31459L38.346874 201.89272Q38.346874 201.43959 38.096874 201.14272Q37.846874 200.83022 37.409374 200.83022Q36.971874 200.83022 36.721874 201.14272Q36.471874 201.43959 36.471874 201.90834L36.471874 202.34584ZM39.815624 206.68959Q39.815624 205.92397 40.3 205.43959Q40.8 204.93959 41.565624 204.93959Q42.33125 204.93959 42.815624 205.43959Q43.315624 205.92397 43.315624 206.73647L43.315624 207.14272Q43.315624 207.90834 42.83125 208.40834Q42.346874 208.90834 41.58125 208.90834Q40.815624 208.90834 40.315624 208.42397Q39.815624 207.92397 39.815624 207.11147L39.815624 206.68959ZM40.628124 207.14272Q40.628124 207.61147 40.878124 207.90834Q41.14375 208.20522 41.58125 208.20522Q42.003124 208.20522 42.253124 207.92397Q42.503124 207.62709 42.503124 207.12709L42.503124 206.68959Q42.503124 206.22084 42.2375 205.93959Q41.9875 205.64272 41.565624 205.64272Q41.14375 205.64272 40.878124 205.93959Q40.628124 206.22084 40.628124 206.72084L40.628124 207.14272ZM37.675 208.14272L37.05 207.75209L41.221874 201.08022L41.83125 201.47084L37.675 208.14272Z" fill-rule="nonzero"/><path fill="#757575" d="M22.253124 162.83542L22.690624 158.58542L27.065624 158.58542L27.065624 159.58542L23.6125 159.58542L23.346874 161.91354Q23.9875 161.53854 24.784374 161.53854Q25.940624 161.53854 26.628124 162.3198Q27.315624 163.08542 27.315624 164.39792Q27.315624 165.71042 26.596874 166.47604Q25.89375 167.24167 24.6125 167.24167Q23.4875 167.24167 22.76875 166.61667Q22.05 165.97604 21.95625 164.86667L22.971874 164.86667Q23.08125 165.60104 23.503124 165.97604Q23.925 166.35104 24.6125 166.35104Q25.3625 166.35104 25.8 165.83542Q26.2375 165.3198 26.2375 164.41354Q26.2375 163.55417 25.76875 163.03854Q25.3 162.52292 24.51875 162.52292Q23.815624 162.52292 23.409374 162.8198L23.128124 163.05417L22.253124 162.83542ZM34.1125 163.47604Q34.1125 165.3823 33.45625 166.3198Q32.815624 167.24167 31.425 167.24167Q30.065624 167.24167 29.409374 166.33542Q28.753124 165.42917 28.721874 163.61667L28.721874 162.17917Q28.721874 160.28854 29.3625 159.3823Q30.01875 158.46042 31.409374 158.46042Q32.784374 158.46042 33.440624 159.35104Q34.096874 160.22604 34.1125 162.0698L34.1125 163.47604ZM33.01875 161.99167Q33.01875 160.61667 32.628124 159.99167Q32.253124 159.35104 31.409374 159.35104Q30.58125 159.35104 30.190624 159.99167Q29.815624 160.61667 29.815624 161.91354L29.815624 163.64792Q29.815624 165.02292 30.20625 165.6948Q30.6125 166.35104 31.425 166.35104Q32.221874 166.35104 32.6125 165.72604Q33.003124 165.10104 33.01875 163.77292L33.01875 161.99167ZM35.659374 160.22604Q35.659374 159.46042 36.14375 158.96042Q36.64375 158.46042 37.409374 158.46042Q38.190624 158.46042 38.675 158.96042Q39.159374 159.46042 39.159374 160.2573L39.159374 160.67917Q39.159374 161.4448 38.659374 161.9448Q38.175 162.42917 37.425 162.42917Q36.659374 162.42917 36.159374 161.9448Q35.659374 161.4448 35.659374 160.6323L35.659374 160.22604ZM36.471874 160.67917Q36.471874 161.1323 36.721874 161.42917Q36.9875 161.72604 37.425 161.72604Q37.846874 161.72604 38.096874 161.4448Q38.346874 161.14792 38.346874 160.64792L38.346874 160.22604Q38.346874 159.77292 38.096874 159.47604Q37.846874 159.16354 37.409374 159.16354Q36.971874 159.16354 36.721874 159.47604Q36.471874 159.77292 36.471874 160.24167L36.471874 160.67917ZM39.815624 165.02292Q39.815624 164.2573 40.3 163.77292Q40.8 163.27292 41.565624 163.27292Q42.33125 163.27292 42.815624 163.77292Q43.315624 164.2573 43.315624 165.0698L43.315624 165.47604Q43.315624 166.24167 42.83125 166.74167Q42.346874 167.24167 41.58125 167.24167Q40.815624 167.24167 40.315624 166.7573Q39.815624 166.2573 39.815624 165.4448L39.815624 165.02292ZM40.628124 165.47604Q40.628124 165.9448 40.878124 166.24167Q41.14375 166.53854 41.58125 166.53854Q42.003124 166.53854 42.253124 166.2573Q42.503124 165.96042 42.503124 165.46042L42.503124 165.02292Q42.503124 164.55417 42.2375 164.27292Q41.9875 163.97604 41.565624 163.97604Q41.14375 163.97604 40.878124 164.27292Q40.628124 164.55417 40.628124 165.05417L40.628124 165.47604ZM37.675 166.47604L37.05 166.08542L41.221874 159.41354L41.83125 159.80417L37.675 166.47604Z" fill-rule="nonzero"/><path fill="#757575" d="M27.26875 117.52812L23.7375 125.45L22.596874 125.45L26.1125 117.80937L21.503124 117.80937L21.503124 116.91875L27.26875 116.91875L27.26875 117.52812ZM29.253124 121.16875L29.690624 116.91875L34.065624 116.91875L34.065624 117.91875L30.6125 117.91875L30.346874 120.24687Q30.9875 119.87187 31.784374 119.87187Q32.940624 119.87187 33.628124 120.65312Q34.315624 121.41875 34.315624 122.73125Q34.315624 124.04375 33.596874 124.80937Q32.89375 125.575 31.6125 125.575Q30.4875 125.575 29.76875 124.95Q29.05 124.30937 28.95625 123.2L29.971874 123.2Q30.08125 123.93437 30.503124 124.30937Q30.925 124.68437 31.6125 124.68437Q32.3625 124.68437 32.8 124.16875Q33.2375 123.65312 33.2375 122.74687Q33.2375 121.8875 32.76875 121.37187Q32.3 120.85625 31.51875 120.85625Q30.815624 120.85625 30.409374 121.15312L30.128124 121.3875L29.253124 121.16875ZM35.659374 118.55937Q35.659374 117.79375 36.14375 117.29375Q36.64375 116.79375 37.409374 116.79375Q38.190624 116.79375 38.675 117.29375Q39.159374 117.79375 39.159374 118.59062L39.159374 119.0125Q39.159374 119.77812 38.659374 120.27812Q38.175 120.7625 37.425 120.7625Q36.659374 120.7625 36.159374 120.27812Q35.659374 119.77812 35.659374 118.96562L35.659374 118.55937ZM36.471874 119.0125Q36.471874 119.46562 36.721874 119.7625Q36.9875 120.05937 37.425 120.05937Q37.846874 120.05937 38.096874 119.77812Q38.346874 119.48125 38.346874 118.98125L38.346874 118.55937Q38.346874 118.10625 38.096874 117.80937Q37.846874 117.49687 37.409374 117.49687Q36.971874 117.49687 36.721874 117.80937Q36.471874 118.10625 36.471874 118.575L36.471874 119.0125ZM39.815624 123.35625Q39.815624 122.59062 40.3 122.10625Q40.8 121.60625 41.565624 121.60625Q42.33125 121.60625 42.815624 122.10625Q43.315624 122.59062 43.315624 123.40312L43.315624 123.80937Q43.315624 124.575 42.83125 125.075Q42.346874 125.575 41.58125 125.575Q40.815624 125.575 40.315624 125.09062Q39.815624 124.59062 39.815624 123.77812L39.815624 123.35625ZM40.628124 123.80937Q40.628124 124.27812 40.878124 124.575Q41.14375 124.87187 41.58125 124.87187Q42.003124 124.87187 42.253124 124.59062Q42.503124 124.29375 42.503124 123.79375L42.503124 123.35625Q42.503124 122.8875 42.2375 122.60625Q41.9875 122.30937 41.565624 122.30937Q41.14375 122.30937 40.878124 122.60625Q40.628124 122.8875 40.628124 123.3875L40.628124 123.80937ZM37.675 124.80937L37.05 124.41875L41.221874 117.74687L41.83125 118.1375L37.675 124.80937Z" fill-rule="nonzero"/><path fill="#757575" d="M18.315624 83.78333L17.2375 83.78333L17.2375 76.56458L15.05 77.36146L15.05 76.37708L18.159374 75.20521L18.315624 75.20521L18.315624 83.78333ZM27.1125 80.14271Q27.1125 82.04896 26.45625 82.98646Q25.815624 83.90833 24.425 83.90833Q23.065624 83.90833 22.409374 83.00208Q21.753124 82.09583 21.721874 80.28333L21.721874 78.84583Q21.721874 76.95521 22.3625 76.04896Q23.01875 75.12708 24.409374 75.12708Q25.784374 75.12708 26.440624 76.01771Q27.096874 76.89271 27.1125 78.73646L27.1125 80.14271ZM26.01875 78.65833Q26.01875 77.28333 25.628124 76.65833Q25.253124 76.01771 24.409374 76.01771Q23.58125 76.01771 23.190624 76.65833Q22.815624 77.28333 22.815624 78.58021L22.815624 80.31458Q22.815624 81.68958 23.20625 82.36146Q23.6125 83.01771 24.425 83.01771Q25.221874 83.01771 25.6125 82.39271Q26.003124 81.76771 26.01875 80.43958L26.01875 78.65833ZM34.1125 80.14271Q34.1125 82.04896 33.45625 82.98646Q32.815624 83.90833 31.425 83.90833Q30.065624 83.90833 29.409374 83.00208Q28.753124 82.09583 28.721874 80.28333L28.721874 78.84583Q28.721874 76.95521 29.3625 76.04896Q30.01875 75.12708 31.409374 75.12708Q32.784374 75.12708 33.440624 76.01771Q34.096874 76.89271 34.1125 78.73646L34.1125 80.14271ZM33.01875 78.65833Q33.01875 77.28333 32.628124 76.65833Q32.253124 76.01771 31.409374 76.01771Q30.58125 76.01771 30.190624 76.65833Q29.815624 77.28333 29.815624 78.58021L29.815624 80.31458Q29.815624 81.68958 30.20625 82.36146Q30.6125 83.01771 31.425 83.01771Q32.221874 83.01771 32.6125 82.39271Q33.003124 81.76771 33.01875 80.43958L33.01875 78.65833ZM35.659374 76.89271Q35.659374 76.12708 36.14375 75.62708Q36.64375 75.12708 37.409374 75.12708Q38.190624 75.12708 38.675 75.62708Q39.159374 76.12708 39.159374 76.92396L39.159374 77.34583Q39.159374 78.11146 38.659374 78.61146Q38.175 79.09583 37.425 79.09583Q36.659374 79.09583 36.159374 78.61146Q35.659374 78.11146 35.659374 77.29896L35.659374 76.89271ZM36.471874 77.34583Q36.471874 77.79896 36.721874 78.09583Q36.9875 78.39271 37.425 78.39271Q37.846874 78.39271 38.096874 78.11146Q38.346874 77.81458 38.346874 77.31458L38.346874 76.89271Q38.346874 76.43958 38.096874 76.14271Q37.846874 75.83021 37.409374 75.83021Q36.971874 75.83021 36.721874 76.14271Q36.471874 76.43958 36.471874 76.90833L36.471874 77.34583ZM39.815624 81.68958Q39.815624 80.92396 40.3 80.43958Q40.8 79.93958 41.565624 79.93958Q42.33125 79.93958 42.815624 80.43958Q43.315624 80.92396 43.315624 81.73646L43.315624 82.14271Q43.315624 82.90833 42.83125 83.40833Q42.346874 83.90833 41.58125 83.90833Q40.815624 83.90833 40.315624 83.42396Q39.815624 82.92396 39.815624 82.11146L39.815624 81.68958ZM40.628124 82.14271Q40.628124 82.61146 40.878124 82.90833Q41.14375 83.20521 41.58125 83.20521Q42.003124 83.20521 42.253124 82.92396Q42.503124 82.62708 42.503124 82.12708L42.503124 81.68958Q42.503124 81.22083 42.2375 80.93958Q41.9875 80.64271 41.565624 80.64271Q41.14375 80.64271 40.878124 80.93958Q40.628124 81.22083 40.628124 81.72083L40.628124 82.14271ZM37.675 83.14271L37.05 82.75208L41.221874 76.08021L41.83125 76.47083L37.675 83.14271Z" fill-rule="nonzero"/><path fill="#757575" d="M157.39362 259.96564Q157.39362 261.2 157.00299 262.09064Q156.61237 262.98126 155.90924 263.48126L157.42487 264.6844L156.65924 265.3875L154.86237 263.96564Q154.44049 264.075 153.97174 264.075Q152.97174 264.075 152.19049 263.575Q151.40924 263.075 150.97174 262.16876Q150.54987 261.2469 150.53424 260.02814L150.53424 259.41876Q150.53424 258.1844 150.95612 257.2469Q151.39362 256.3094 152.17487 255.80939Q152.95612 255.29376 153.95612 255.29376Q154.98737 255.29376 155.76862 255.79376Q156.54987 256.29376 156.97174 257.23126Q157.39362 258.16876 157.39362 259.41876L157.39362 259.96564ZM156.26862 259.40314Q156.26862 257.90314 155.67487 257.09064Q155.08112 256.2625 153.95612 256.2625Q152.89362 256.2625 152.28424 257.075Q151.67487 257.8875 151.65924 259.325L151.65924 259.96564Q151.65924 261.41876 152.26862 262.2625Q152.87799 263.10626 153.97174 263.10626Q155.06549 263.10626 155.65924 262.325Q156.25299 261.52814 156.26862 260.04376L156.26862 259.40314ZM162.15924 263.95L161.08112 263.95L161.08112 256.73126L158.89362 257.52814L158.89362 256.54376L162.00299 255.37189L162.15924 255.37189L162.15924 263.95ZM170.17487 261.09064L171.36237 261.09064L171.36237 261.96564L170.17487 261.96564L170.17487 263.95L169.09674 263.95L169.09674 261.96564L165.20612 261.96564L165.20612 261.325L169.01862 255.41876L170.17487 255.41876L170.17487 261.09064ZM166.44049 261.09064L169.09674 261.09064L169.09674 256.90314L168.95612 257.1375L166.44049 261.09064Z" fill-rule="nonzero"/><path fill="#757575" d="M321.60638 259.96564Q321.60638 261.2 321.21576 262.09064Q320.82513 262.98126 320.122 263.48126L321.63763 264.6844L320.872 265.3875L319.07513 263.96564Q318.65326 264.075 318.1845 264.075Q317.1845 264.075 316.40326 263.575Q315.622 263.075 315.1845 262.16876Q314.76263 261.2469 314.747 260.02814L314.747 259.41876Q314.747 258.1844 315.16888 257.2469Q315.60638 256.3094 316.38763 255.80939Q317.16888 255.29376 318.16888 255.29376Q319.20013 255.29376 319.98138 255.79376Q320.76263 256.29376 321.1845 257.23126Q321.60638 258.16876 321.60638 259.41876L321.60638 259.96564ZM320.48138 259.40314Q320.48138 257.90314 319.88763 257.09064Q319.29388 256.2625 318.16888 256.2625Q317.10638 256.2625 316.497 257.075Q315.88763 257.8875 315.872 259.325L315.872 259.96564Q315.872 261.41876 316.48138 262.2625Q317.09076 263.10626 318.1845 263.10626Q319.27826 263.10626 319.872 262.325Q320.46576 261.52814 320.48138 260.04376L320.48138 259.40314ZM326.372 263.95L325.29388 263.95L325.29388 256.73126L323.10638 257.52814L323.10638 256.54376L326.21576 255.37189L326.372 255.37189L326.372 263.95ZM330.3095 259.66876L330.747 255.41876L335.122 255.41876L335.122 256.41876L331.66888 256.41876L331.40326 258.7469Q332.04388 258.3719 332.84076 258.3719Q333.997 258.3719 334.6845 259.15314Q335.372 259.91876 335.372 261.23126Q335.372 262.54376 334.65326 263.3094Q333.95013 264.075 332.66888 264.075Q331.54388 264.075 330.82513 263.45Q330.10638 262.8094 330.01263 261.7L331.02826 261.7Q331.13763 262.4344 331.5595 262.8094Q331.98138 263.1844 332.66888 263.1844Q333.41888 263.1844 333.85638 262.66876Q334.29388 262.15314 334.29388 261.2469Q334.29388 260.3875 333.82513 259.8719Q333.35638 259.35626 332.57513 259.35626Q331.872 259.35626 331.46576 259.65314L331.1845 259.8875L330.3095 259.66876Z" fill-rule="nonzero"/><path fill="#4285f4" d="M183.0 49.916668C183.0 49.364384 183.44771 48.916668 184.0 48.916668L194.0 48.916668C194.55229 48.916668 195.0 49.364384 195.0 49.916668L195.0 59.916668C195.0 60.468952 194.55229 60.916668 194.0 60.916668L184.0 60.916668C183.44771 60.916668 183.0 60.468952 183.0 59.916668Z" fill-rule="nonzero"/><path fill="#757575" d="M203.98438 59.416668L203.98438 50.885418L206.78125 50.885418Q208.17188 50.885418 208.85938 51.463543Q209.5625 52.026043 209.5625 53.151043Q209.5625 53.760418 209.21875 54.229168Q208.89062 54.682293 208.29688 54.932293Q209.0 55.119793 209.39062 55.666668Q209.79688 56.197918 209.79688 56.947918Q209.79688 58.104168 209.04688 58.760418Q208.3125 59.416668 206.95312 59.416668L203.98438 59.416668ZM205.10938 55.432293L205.10938 58.494793L206.96875 58.494793Q207.76562 58.494793 208.21875 58.088543Q208.67188 57.682293 208.67188 56.963543Q208.67188 55.432293 206.98438 55.432293L205.10938 55.432293ZM205.10938 54.526043L206.8125 54.526043Q207.54688 54.526043 207.98438 54.166668Q208.4375 53.791668 208.4375 53.151043Q208.4375 52.447918 208.03125 52.135418Q207.625 51.807293 206.78125 51.807293L205.10938 51.807293L205.10938 54.526043ZM214.26562 59.416668L213.1875 59.416668L213.1875 52.197918L211.0 52.994793L211.0 52.010418L214.10938 50.838543L214.26562 50.838543L214.26562 59.416668Z" fill-rule="nonzero"/><path fill="#db4437" d="M233.0 49.916668C233.0 49.364384 233.44771 48.916668 234.0 48.916668L244.0 48.916668C244.55229 48.916668 245.0 49.364384 245.0 49.916668L245.0 59.916668C245.0 60.468952 244.55229 60.916668 244.0 60.916668L234.0 60.916668C233.44771 60.916668 233.0 60.468952 233.0 59.916668Z" fill-rule="nonzero"/><path fill="#757575" d="M253.98438 59.416668L253.98438 50.885418L256.78125 50.885418Q258.17188 50.885418 258.85938 51.463543Q259.5625 52.026043 259.5625 53.151043Q259.5625 53.760418 259.21875 54.229168Q258.89062 54.682293 258.29688 54.932293Q259.0 55.119793 259.39062 55.666668Q259.79688 56.197918 259.79688 56.947918Q259.79688 58.104168 259.04688 58.760418Q258.3125 59.416668 256.95312 59.416668L253.98438 59.416668ZM255.10938 55.432293L255.10938 58.494793L256.96875 58.494793Q257.76562 58.494793 258.21875 58.088543Q258.67188 57.682293 258.67188 56.963543Q258.67188 55.432293 256.98438 55.432293L255.10938 55.432293ZM255.10938 54.526043L256.8125 54.526043Q257.54688 54.526043 257.98438 54.166668Q258.4375 53.791668 258.4375 53.151043Q258.4375 52.447918 258.03125 52.135418Q257.625 51.807293 256.78125 51.807293L255.10938 51.807293L255.10938 54.526043ZM262.28125 54.619793L263.09375 54.619793Q263.875 54.604168 264.3125 54.213543Q264.75 53.822918 264.75 53.151043Q264.75 51.651043 263.25 51.651043Q262.54688 51.651043 262.125 52.057293Q261.71875 52.463543 261.71875 53.119793L260.625 53.119793Q260.625 52.104168 261.35938 51.432293Q262.10938 50.760418 263.25 50.760418Q264.45312 50.760418 265.14062 51.401043Q265.82812 52.041668 265.82812 53.182293Q265.82812 53.744793 265.46875 54.260418Q265.10938 54.776043 264.48438 55.041668Q265.1875 55.260418 265.5625 55.776043Q265.95312 56.291668 265.95312 57.041668Q265.95312 58.182293 265.20312 58.869793Q264.45312 59.541668 263.25 59.541668Q262.0625 59.541668 261.29688 58.885418Q260.54688 58.229168 260.54688 57.166668L261.64062 57.166668Q261.64062 57.838543 262.07812 58.244793Q262.51562 58.651043 263.26562 58.651043Q264.04688 58.651043 264.45312 58.244793Q264.875 57.822918 264.875 57.057293Q264.875 56.322918 264.42188 55.932293Q263.96875 55.526043 263.09375 55.510418L262.28125 55.510418L262.28125 54.619793Z" fill-rule="nonzero"/><path fill="#757575" d="M15.70625 33.05L15.70625 18.83125L20.346874 18.83125Q22.659374 18.83125 23.83125 19.784374Q25.003124 20.7375 25.003124 22.6125Q25.003124 23.6125 24.425 24.378124Q23.8625 25.14375 22.89375 25.565624Q24.034374 25.89375 24.70625 26.8Q25.378124 27.690624 25.378124 28.940624Q25.378124 30.8625 24.128124 31.95625Q22.89375 33.05 20.628124 33.05L15.70625 33.05ZM17.58125 26.39375L17.58125 31.51875L20.675 31.51875Q21.9875 31.51875 22.7375 30.846874Q23.4875 30.159374 23.4875 28.971874Q23.4875 26.39375 20.70625 26.39375L17.58125 26.39375ZM17.58125 24.89375L20.409374 24.89375Q21.64375 24.89375 22.378124 24.284374Q23.1125 23.659374 23.1125 22.6125Q23.1125 21.440624 22.425 20.909374Q21.753124 20.378124 20.346874 20.378124L17.58125 20.378124L17.58125 24.89375Z" fill-rule="nonzero"/><path fill="#757575" d="M41.753124 22.425L46.9875 22.425L46.9875 23.909374L41.753124 23.909374L41.753124 25.08125L47.534374 25.08125L47.534374 26.565624L41.753124 26.565624L41.753124 27.815624L49.8 27.815624L49.8 29.3L42.221874 29.3Q43.940624 31.64375 49.8 32.89375L49.253124 34.690624Q43.08125 33.20625 41.20625 30.003124Q39.33125 33.9875 33.003124 34.925L32.378124 33.284374Q38.2375 32.425 39.721874 29.3L32.3 29.3L32.3 27.815624L40.190624 27.815624L40.190624 26.565624L34.64375 26.565624L34.64375 25.08125L40.190624 25.08125L40.190624 23.909374L35.034374 23.909374L35.034374 22.425L40.190624 22.425L40.190624 20.8625L41.675 20.8625Q42.3 20.940624 41.753124 21.33125L41.753124 22.425ZM32.76875 18.753124L40.190624 18.753124L40.190624 16.95625L41.909374 16.95625Q42.690624 17.1125 41.9875 17.58125L41.9875 18.753124L49.33125 18.753124L49.33125 22.971874L47.76875 22.971874L47.76875 20.2375L34.33125 20.2375L34.33125 22.971874L32.76875 22.971874L32.76875 18.753124ZM67.53438 22.659374L65.425 22.659374L65.425 24.14375L69.01875 24.14375L69.01875 29.3L67.69063 29.3L67.69063 28.675L65.58125 28.675Q66.9875 31.4875 70.19063 33.05L69.25313 34.534374Q66.12813 32.7375 65.03438 30.2375Q63.940624 33.440624 60.346874 34.76875L59.64375 33.3625Q63.471874 31.95625 64.01875 28.675L61.909374 28.675L61.909374 29.534374L60.58125 29.534374L60.58125 24.14375L64.09688 24.14375L64.09688 22.659374L61.9875 22.659374L61.9875 21.565624Q61.20625 22.503124 60.034374 23.128124L59.175 21.8Q61.909374 20.315624 63.628124 16.878124L65.26875 17.1125Q65.50313 17.425 65.1125 17.503124Q66.9875 19.925 70.19063 21.33125L69.40938 22.7375Q68.55 22.425 67.53438 21.64375L67.53438 22.659374ZM56.909374 31.8Q56.596874 30.315624 56.284374 29.3L57.14375 29.14375Q57.6125 30.159374 57.846874 31.4875L56.909374 31.8ZM51.753124 32.971874Q52.378124 30.70625 52.378124 29.221874L53.39375 29.378124Q53.2375 31.878124 52.846874 33.3625L51.753124 32.971874ZM53.8625 32.58125Q53.8625 30.940624 53.70625 29.378124L54.565624 29.3Q54.8 30.784374 54.8 32.425L53.8625 32.58125ZM55.58125 33.20625L57.3 33.20625Q57.76875 33.20625 57.925 32.7375Q58.159374 32.1125 58.159374 31.253124L58.2375 28.20625L52.76875 28.20625L52.76875 17.659374L59.64375 17.659374L59.64375 18.909374L57.14375 18.909374L57.14375 20.628124L59.01875 20.628124L59.01875 21.878124L57.14375 21.878124L57.14375 23.753124L59.175 23.753124L59.175 25.003124L57.14375 25.003124L57.14375 26.95625L59.64375 26.95625L59.4875 31.409374Q59.409374 33.20625 59.096874 33.83125Q58.70625 34.690624 57.76875 34.690624L55.7375 34.690624L55.58125 33.20625ZM65.425 25.39375L65.425 27.425L67.69063 27.425L67.69063 25.39375L65.425 25.39375ZM64.09688 25.39375L61.909374 25.39375L61.909374 27.425L64.09688 27.425L64.09688 25.39375ZM55.89375 29.3Q56.440624 30.784374 56.440624 32.034374L55.503124 32.26875Q55.346874 30.471874 55.034374 29.378124L55.89375 29.3ZM55.815624 25.003124L54.096874 25.003124L54.096874 26.95625L55.815624 26.95625L55.815624 25.003124ZM55.815624 21.878124L54.096874 21.878124L54.096874 23.753124L55.815624 23.753124L55.815624 21.878124ZM55.815624 18.909374L54.096874 18.909374L54.096874 20.628124L55.815624 20.628124L55.815624 18.909374ZM67.14375 21.409374Q65.58125 20.315624 64.33125 18.51875Q63.39375 20.2375 62.14375 21.409374L67.14375 21.409374ZM80.58125 25.08125Q80.7375 31.01875 75.50313 34.3L74.175 32.815624Q78.78438 30.315624 78.78438 25.784374L78.78438 22.425L80.425 22.425Q81.12813 22.503124 80.58125 22.971874L80.58125 25.003124Q83.39375 22.89375 84.87813 20.8625L72.14375 21.33125L71.9875 19.534374L86.20625 19.14375L86.75313 18.9875L87.925 20.39375Q88.15938 20.70625 87.53438 20.628124Q85.19063 23.675 81.90938 26.33125L80.58125 25.08125ZM105.3 23.9875Q101.15938 32.58125 91.39375 33.05Q91.00313 34.065624 90.6125 33.20625L89.9875 31.175Q100.14375 30.940624 103.65938 22.815624L105.3 23.9875ZM94.28438 23.9875Q92.175 22.034374 90.3 20.784374L91.62813 19.14375Q93.26875 20.159374 95.76875 22.503124L94.28438 23.9875ZM106.9875 26.64375Q110.425 23.128124 111.3625 17.7375L113.31563 18.20625Q113.94063 18.3625 113.15938 18.83125Q112.69063 20.55 111.9875 22.190624L123.55 22.190624L123.55 23.909374L119.01875 23.909374Q118.31563 30.003124 113.15938 34.45625L111.3625 33.440624Q116.75313 29.14375 117.06563 23.909374L111.12813 23.909374Q110.1125 25.940624 108.55 27.503124L106.9875 26.64375ZM125.9875 26.64375L125.9875 24.925L143.40938 24.925L143.40938 26.64375L125.9875 26.64375ZM148.34688 23.675Q152.175 24.76875 156.08125 26.64375L155.14375 28.440624Q151.00313 26.33125 148.34688 25.628124L148.34688 33.753124L146.55 33.753124L146.55 18.128124L148.1125 18.128124Q149.05 18.20625 148.34688 18.753124L148.34688 23.675ZM171.14375 27.7375Q175.75313 25.159374 177.08125 21.096874L171.84688 21.096874L171.84688 19.6125L177.47188 19.6125Q177.70625 18.675 177.8625 16.8L179.89375 17.190624Q180.20625 17.503124 179.65938 17.58125L179.26875 19.6125L188.64375 19.6125L188.64375 21.096874L178.95625 21.096874Q178.64375 22.190624 178.25313 22.89375L185.9875 22.89375L185.9875 33.284374Q185.9875 34.534374 184.7375 34.534374L182.94063 34.534374L182.55 33.05L184.1125 33.05Q184.425 33.05 184.425 32.7375L184.425 30.628124L177.62813 30.628124L177.62813 34.76875L176.06563 34.76875L176.06563 26.175Q174.19063 28.128124 172.08125 29.378124L171.14375 27.7375ZM177.62813 27.425L177.62813 29.14375L184.425 29.14375L184.425 27.425L177.62813 27.425ZM184.425 25.940624L184.425 24.378124L177.62813 24.378124L177.62813 25.940624L184.425 25.940624ZM203.25313 23.20625L201.45625 23.20625L201.45625 21.721874L203.25313 21.721874L203.25313 17.425L204.7375 17.425Q205.3625 17.503124 204.81563 17.89375L204.81563 21.721874L208.40938 21.721874L208.25313 32.190624Q208.25313 34.534374 206.45625 34.534374L204.1125 34.534374L203.87813 32.815624L205.90938 32.815624Q206.69063 32.815624 206.69063 31.8L206.84688 23.20625L204.81563 23.20625L204.81563 24.6125Q204.81563 31.565624 198.4875 34.846874L197.70625 33.20625Q203.25313 30.70625 203.25313 23.909374L203.25313 23.20625ZM190.90938 32.815624Q193.72188 31.096874 195.44063 29.14375Q194.50313 28.20625 193.4875 27.346874L194.50313 26.175Q195.44063 26.878124 196.37813 27.659374Q197.00313 26.721874 197.62813 25.159374L199.19063 26.253124Q199.26875 26.64375 198.8 26.4875Q198.25313 27.7375 197.55 28.83125Q198.8 30.003124 199.34688 30.8625L198.01875 32.1125Q197.55 31.33125 196.6125 30.315624Q194.58125 32.7375 191.84688 34.3L190.90938 32.815624ZM195.675 23.3625Q194.19063 25.159374 192.2375 26.4875L191.06563 25.2375Q193.33125 23.675 194.65938 21.878124L196.06563 23.128124Q196.14375 23.51875 195.675 23.3625ZM201.45625 21.253124L191.45625 21.253124L191.45625 19.76875L195.675 19.76875L195.675 16.878124L197.15938 16.878124Q197.78438 16.95625 197.2375 17.346874L197.2375 19.76875L201.45625 19.76875L201.45625 21.253124ZM200.20625 26.01875Q199.26875 24.690624 197.31563 22.89375L198.4875 21.721874Q200.3625 23.20625 201.45625 24.76875L200.20625 26.01875ZM217.8625 27.659374L222.2375 27.659374L222.2375 23.51875L217.8625 23.51875L217.8625 27.659374ZM222.2375 29.925L222.2375 29.14375L217.8625 29.14375L217.8625 30.003124L216.3 30.003124L216.3 22.034374L223.8 22.034374L223.8 29.925L222.2375 29.925ZM213.72188 32.1125L226.3 32.1125L226.3 19.378124L213.72188 19.378124L213.72188 32.1125ZM226.3 34.3L226.3 33.596874L213.72188 33.596874L213.72188 34.690624L212.15938 34.690624L212.15938 17.89375L227.8625 17.89375L227.8625 34.3L226.3 34.3ZM231.14375 26.4875Q235.83125 25.159374 239.50313 21.253124L241.3 21.565624Q241.6125 21.878124 241.06563 21.95625Q243.25313 24.45625 249.1125 25.940624L248.56563 27.659374Q245.75313 26.95625 243.95625 25.940624L243.95625 27.034374L236.14375 27.034374L236.14375 26.01875Q234.26875 27.346874 231.76875 28.128124L231.14375 26.4875ZM243.33125 25.55Q241.69063 24.690624 239.97188 22.815624Q238.87813 24.221874 236.84688 25.55L243.33125 25.55ZM231.14375 21.8Q233.01875 20.159374 234.1125 16.878124L235.75313 17.346874Q236.06563 17.659374 235.51875 17.7375L234.97188 18.83125L239.81563 18.83125L239.81563 20.08125L236.925 20.08125Q237.39375 20.940624 237.8625 22.1125L236.22188 22.58125Q235.83125 21.175 235.3625 20.08125L234.50313 20.08125Q233.56563 21.95625 232.2375 23.128124L231.14375 21.8ZM242.39375 18.83125L248.4875 18.83125L248.4875 20.08125L244.81563 20.08125Q245.44063 20.940624 245.83125 21.95625L244.19063 22.58125Q243.8 21.253124 243.175 20.08125L241.84688 20.08125L241.14375 21.33125L239.81563 20.55Q240.90938 18.83125 241.53438 16.64375L243.09688 17.1125Q243.40938 17.425 242.8625 17.503124L242.39375 18.83125ZM235.90938 29.690624L235.90938 32.425L244.34688 32.425L244.34688 29.690624L235.90938 29.690624ZM234.34688 28.440624L245.90938 28.440624L245.90938 34.534374L244.34688 34.534374L244.34688 33.675L235.90938 33.675L235.90938 34.76875L234.34688 34.76875L234.34688 28.440624ZM266.84686 22.1125Q265.9875 23.20625 264.65936 24.221874L263.4875 23.128124Q264.97186 21.95625 265.675 20.8625L267.15936 21.8Q267.39374 22.1125 266.84686 22.1125ZM265.3625 24.6125Q267.15936 25.471874 268.64374 26.721874L267.47186 28.128124Q265.9875 26.8 264.34686 25.70625L265.3625 24.6125ZM256.14374 25.784374Q254.89375 27.1125 253.33125 28.3625Q253.25313 28.909374 252.94063 28.596874L251.84688 27.26875Q253.72188 26.096874 255.12813 24.690624L256.14374 25.784374ZM256.3 26.33125L257.39374 26.33125L258.8 24.925Q258.01874 24.065624 256.45624 22.971874L257.3156 21.95625L257.8625 22.346874L259.34686 20.315624L260.4406 21.175Q260.7531 21.565624 260.20624 21.4875L258.8781 23.05L259.8156 23.909374L261.925 21.565624L262.9406 22.503124Q263.2531 22.89375 262.6281 22.815624L259.1125 26.33125L262.15936 25.940624L261.3781 24.925L262.55 24.221874Q263.5656 25.315624 264.5031 27.190624L263.175 27.971874L262.78436 27.1125L260.83124 27.346874L260.83124 29.3L268.95624 29.3L268.95624 30.784374L260.83124 30.784374L260.83124 34.690624L259.26874 34.690624L259.26874 30.784374L251.22188 30.784374L251.22188 29.3L259.26874 29.3L259.26874 27.58125L256.925 27.7375Q256.84686 28.284374 256.53436 27.971874L256.3 26.33125ZM268.01874 20.159374L252.15938 20.159374L252.15938 18.675L259.26874 18.675L259.26874 16.878124L260.7531 16.878124Q261.53436 17.034374 260.83124 17.503124L260.83124 18.675L268.01874 18.675L268.01874 20.159374ZM253.4875 21.096874Q254.89375 21.8 255.9875 22.815624L254.89375 24.14375Q253.87813 23.128124 252.47188 22.26875L253.4875 21.096874Z" fill-rule="nonzero"/></svg>